<?xml version="1.0" encoding="utf-8"?>
<!-- Generator: Adobe Illustrator 24.1.2, SVG Export Plug-In . SVG Version: 6.00 Build 0)  -->
<svg version="1.1" id="Layer_1" xmlns="http://www.w3.org/2000/svg" xmlns:xlink="http://www.w3.org/1999/xlink" x="0px" y="0px"
	 viewBox="0 0 714 714" style="enable-background:new 0 0 714 714;" xml:space="preserve">
<style type="text/css">
	.st0{fill:#005EA1;}
	.st1{fill:#FFFFFF;}
	.st2{fill:#11426D;}
	.st3{fill:#046938;}
	.st4{fill:#6ABD45;}
	.st5{fill:#9F1D21;}
	.st6{fill:#ED2024;}
	.st7{fill:#B3B4B4;}
	.st8{fill:#E48E25;}
	.st9{fill:#FBB03A;}
	.st10{fill:#DBA428;}
	.st11{fill:#006937;}
	.st12{fill:#ED1863;}
	.st13{fill:#EF4B88;}
	.st14{fill:#F16E9F;}
	.st15{fill:#F0AAC4;}
	.st16{fill:#DA5872;}
	.st17{fill:#FFEEB2;}
	.st18{fill:#3D98D4;}
	.st19{fill:#61B2E3;}
	.st20{fill:#80C0E9;}
	.st21{fill:#BBD7E9;}
	.st22{fill:#DBE1F2;}
	.st23{fill:#E7EBF7;}
	.st24{fill:#A0B2DC;}
	.st25{fill:#B99A33;}
	.st26{fill:#009247;}
	.st27{fill:#8DC640;}
	.st28{fill:#F9F28A;}
	.st29{fill:#86702C;}
	.st30{fill:#F79420;}
	.st31{fill:#F26E73;}
	.st32{fill:#6D1111;}
	.st33{fill:#AD1F24;}
</style>
<g>
	<path class="st18" d="M596.8681641,633.7754517c-24.6842041-21.7089233-48.7051392-44.8675537-71.9817505-69.3980103
		c24.2359619-3.5178223,48.8745728-7.1743774,71.5541992-20.2974854
		c-32.3825684-12.5206909-63.1922607-32.3827515-90.8952332-58.5974121
		c-26.0860596-24.684845-49.2651367-54.7784729-72.3339844-84.7489319
		c-30.443512-39.5512695-80.45755-137.3973083-80.45755-137.3973083
		c-15.6100769,52.987793-47.3078003,95.6810303-77.7511902,135.2322998
		c-23.0688324,29.970459-46.2479248,60.0640869-72.3339691,84.7487793
		c-27.7029419,26.2146606-58.5126343,46.0769043-90.8952484,58.5975342
		c22.6796265,13.1231079,47.3182678,16.779541,71.554245,20.2974854
		c-23.2766418,24.5304565-47.2975616,47.6891479-71.9817581,69.3980103
		c43.7376785,3.4155273,87.7486496-8.2672119,127.0729752-33.7321777
		c-10.0381165,29.552002-20.0762177,59.104248-30.1140747,88.6564941
		c33.9816589-13.8614502,64.5079803-42.7695313,86.2194672-81.649292c6.617981,26.5585938,8.7302246,55.157959,6.108429,82.7196655
		c22.4697571-21.8220215,60.6445313-87.7600708,63.4466858-92.1365356
		c5.1152039,37.9754028,21.032196,72.4795532,43.5019531,94.3015137
		c-2.6217957-27.5616455-0.509552-56.1608887,6.1083984-82.7194824
		c21.7115173,38.8795776,52.2378235,67.7878418,86.2194824,81.6491699
		c-10.0378418-29.5522461-20.0759583-59.1043701-30.1140747-88.6564941
		C509.1195068,625.5082397,553.1304932,637.19104,596.8681641,633.7754517z"/>
	<path class="st19" d="M557.7072144,466.3568115c-21.706604-15.5610962-42.8430786-32.1468506-63.3377686-49.7013855
		c21.1561279-2.3434448,42.6629639-4.7827148,62.3980713-13.9522095
		c-28.3757935-9.0895081-55.4234924-23.3786621-79.7963562-42.156311
		c-22.9508362-17.6817627-43.39505-39.1835327-63.7424927-60.5971069
		c-31.1199646-32.7507935-63.7616272-68.4953766-74.3548279-114.9907684
		C298.795929,298.9772034,236.7692871,382.6994324,133.2674561,416.6077271
		c43.8431549,9.7429199,51.9622498,15.4263,93.9452362,4.3448181
		c-18.1379089,25.8568726-50.1020813,36.2507019-80.1427612,45.9936218
		c43.978363,8.3606567,112.6941071,20.6672058,146.7386322-12.6879272
		c-6.6899109,17.1355591-13.3795776,34.2710876-20.0694885,51.4066467
		c30.4096069-16.1257629,57.9311523-39.4155273,80.3087769-67.960968
		c4.7096558,26.9809265,18.8360901,51.5665894,38.6085205,67.1940002
		c-2.4649658-19.5751648-0.7999268-39.856842,4.8157654-58.6618958
		c19.2173157,27.7272644,46.0745239,48.4341431,75.8563232,58.4850769
		c-8.9581909-21.0345764-17.9161072-42.0691528-26.874054-63.1037292
		C480.9777222,459.9362793,519.5096436,468.5046082,557.7072144,466.3568115z"/>
	<path class="st20" d="M212.357254,341.2985535c14.7786407-13.0314026,29.1340637-26.8965149,43.0171661-41.5485535
		c-14.8338165-1.6643372-29.9148254-3.4029846-43.9239655-10.6848145
		c19.5957947-7.8035278,38.135849-19.8565979,54.6978607-35.5594025
		c15.5955811-14.7864685,29.3467407-32.6761932,43.0321045-50.4924927
		c20.9312134-27.2488403,42.8516846-56.9725342,49.1087341-95.2469254
		c30.789093,93.0434647,68.8401794,161.6197815,141.9144592,188.1678162
		c-18.4574585-6.7056274-34.0467834,10.887146-53.2570496,9.3518677c2.0591125,7.5656128,8.724762,13.1732788,14.0289001,18.6547546
		c3.7382507,3.8632202,18.7399597,22.6778259,23.1481323,22.7045593
		c-34.1092529-0.2067261-43.7508545-3.7438354-79.7856445-21.0657959
		c5.0933533,13.9765015,2.2262268,30.5249634,7.3193054,44.5014343
		c-21.6353455-12.8585205-41.4291382-31.6297302-57.7595825-54.7754211
		c-2.6269226,22.1928406-11.889801,42.5355835-25.3156433,55.5977783
		c1.2408752-16.0897217-0.4202271-32.7086487-4.8041382-48.0679626
		c-12.741272,22.9822998-30.9911194,40.2982483-51.5448608,48.9075317
		c5.7400818-17.3662109,11.4801941-34.7325134,17.2202759-52.0987854
		C265.7904968,335.0945129,239.0888214,342.5944214,212.357254,341.2985535z"/>
	<path class="st21" d="M465.0436707,217.5335846c-10.8984375-8.2346191-21.4981689-16.9957123-31.7631531-26.2536621
		c10.776825-1.0466614,21.7327271-2.140152,31.8474121-6.7348633c-14.3464661-4.9343262-27.9717712-12.5522308-40.1978455-22.474762
		c-22.2706604-18.074646-44.5133667-41.6299515-58.7856445-66.6958237
		c-2.753479-4.8358078-11.9529114-19.6911545-9.878479-25.3927994
		c-19.9171448,54.7422485-63.3569641,104.2036896-119.9192047,122.1053467
		c18.9391937,10.2865753,42.0091705,10.0234222,61.0695343-0.6966705
		c-9.4499512,13.2536469-19.6259766,25.8130035-30.4437866,37.5739594
		c22.2853394,4.6802826,46.4049683-2.7768555,64.0080872-19.7896423
		c-3.5524292,8.8255157-7.1048279,17.6510468-10.6575012,26.4765625
		c15.6032104-8.1144409,29.8008728-19.9637146,41.4300537-34.5767822
		c2.1565857,14.0170746,9.1214905,26.8675995,19.0361023,35.1212921
		c-1.0804138-10.1620941-0.0548096-20.6574707,2.9662476-30.3565979
		c9.5256348,14.5186768,29.1825867,22.6452179,44.2353821,28.0887909
		c-4.3688049-10.969696-14.9225159-19.1241608-19.2912903-30.0938416
		C426.09021,213.5991821,445.6045837,218.3439331,465.0436707,217.5335846z"/>
	<path class="st20" d="M357.9304199,11.5507116l10.7332764,21.7479897c0.4473267,0.9063721,1.3119812,1.5345955,2.3122253,1.6799393
		l24.0003357,3.4874535c2.5188599,0.3660088,3.5246277,3.4614449,1.7019653,5.2380981l-17.3668213,16.9284515
		c-0.7237549,0.705513-1.0540466,1.7219963-0.8831787,2.7181969l4.0997314,23.9033546
		c0.4302979,2.5086823-2.2028503,4.4217606-4.45578,3.2373276l-21.4665527-11.2856369
		c-0.8946533-0.4703369-1.9634399-0.4703369-2.8580933,0l-21.4665527,11.2856369
		c-2.2529297,1.184433-4.8860474-0.7286453-4.45578-3.2373276l4.0997314-23.9033546
		c0.1708679-0.9962006-0.1593933-2.0126839-0.8831787-2.7181969l-17.3668213-16.9284515
		c-1.8226624-1.7766533-0.8168945-4.8720894,1.7019653-5.2380981l24.0003357-3.4874535
		c1.0002441-0.1453438,1.8649292-0.7735672,2.3122559-1.6799393L352.42276,11.5507116
		C353.5492249,9.26824,356.8039551,9.26824,357.9304199,11.5507116z"/>
	<path class="st1" d="M373.1160583,50.3667679c-0.9903259-0.1161957-1.9807739-0.1071587-2.971344,0.0159454
		c-0.9905701,0.1220703-1.9812012,0.2873154-2.9716797,0.3627853c-1.9810486,0.1532631-3.9621277,0.3437424-5.9432678,0.5714378
		c-1.4035034,0.1658669-2.8070679,0.3295784-4.2106018,0.5178299c0.6929932-0.4527626,1.3765869-0.9152794,2.0604858-1.3774757
		c1.1291504-0.770752,2.2324524-1.5682983,3.309906-2.3925819c0.5379028-0.4129753,1.1382141-0.7613716,1.7084961-1.1408424
		c0.5702515-0.3794975,1.0640564-0.8381767,1.4675903-1.3903503c0.4073181-0.5481873,0.7631531-1.1497574,1.0615845-1.8107262
		c0.2930603-0.6665649,0.5413513-1.3795052,0.6420898-2.2452126l-0.2677002-0.2772369
		c-0.8686829,0.0704422-1.5899048,0.2936287-2.2662964,0.5632133c-0.67099,0.2751579-1.2846069,0.6097412-1.8467102,0.9976807
		c-0.5659485,0.3839798-1.0415955,0.8614273-1.4408264,1.4180565c-0.3991394,0.5566788-0.7683105,1.1444321-1.1998291,1.6675873
		c-0.8614502,1.047966-1.697052,2.1227264-2.5068054,3.2242508c-0.552887,0.759388-1.1068115,1.5177383-1.6456299,2.2916603
		c0.2133789-1.5360832,0.3937073-3.0721474,0.5769653-4.6082344c0.2299194-1.9808731,0.4226074-3.9617271,0.578064-5.9426003
		c0.0765686-0.9904518,0.2429504-1.9808769,0.3661194-2.971302c0.1242065-0.990448,0.1343689-1.9808769,0.0192566-2.971302
		c-0.1120605-0.990448-0.2976379-1.9808731-0.5651245-2.9713001c-0.2781067-0.9904499-0.6126709-1.980875-1.1690674-2.9713249
		h-0.3854065c-0.556427,0.9904499-0.8909607,1.980875-1.1691284,2.9713249
		c-0.2674561,0.990427-0.4530334,1.9808521-0.5651245,2.9713001c-0.1150818,0.9904251-0.1049194,1.980854,0.0192871,2.971302
		c0.1231689,0.9904251,0.2895203,1.9808502,0.3661194,2.971302c0.1554565,1.9808731,0.348175,3.9617271,0.578064,5.9426003
		c0.1774902,1.487606,0.3512573,2.9751892,0.5558777,4.4627724c-0.4706421-0.7592926-0.9542542-1.5065498-1.4372864-2.2543526
		c-0.7470398-1.1449776-1.5214539-2.2646484-2.3231201-3.3590164c-0.4016724-0.5464058-0.7375183-1.1538162-1.105011-1.7318878
		c-0.3675842-0.5780258-0.8158569-1.0812721-1.3594971-1.4962006c-0.5396118-0.4186668-1.1336365-0.7869225-1.7882385-1.0990982
		c-0.6603088-0.3068733-1.3679504-0.5699005-2.2313538-0.6886749l-0.2827454,0.2618637
		c0.0523376,0.8699684,0.2604675,1.5956573,0.5158997,2.2775269c0.2611389,0.67659,0.5828552,1.2970505,0.9590149,1.8671265
		c0.3721008,0.5737877,0.8395691,1.0592842,1.3877563,1.4700012c0.5482483,0.4106712,1.1281738,0.7919731,1.6422119,1.234314
		c1.0298157,0.883091,2.0869446,1.7408981,3.1713562,2.5734062c0.6971436,0.5300865,1.3938293,1.0606194,2.1026917,1.5798378
		c-1.4541931-0.2003593-2.9084473-0.3724403-4.3626709-0.5475693c-1.9806213-0.2321243-3.9612732-0.4270363-5.9419556-0.5847321
		c-0.9903564-0.0776711-1.9806213-0.2451477-2.9709167-0.3694191c-0.9902649-0.125309-1.9806824-0.1365776-2.971283-0.0226059
		c-0.9905396,0.1109734-1.9811707,0.2954597-2.9718933,0.5618286c-0.9907532,0.2770157-1.9815674,0.6104584-2.9726257,1.1657753
		l-0.0004272,0.3853912c0.9898071,0.5575218,1.9798584,0.8931694,2.9700012,1.1724129
		c0.9901123,0.2685966,1.9803467,0.4552612,2.9706421,0.5684395c0.9903259,0.1161995,1.9807739,0.1071625,2.971344-0.0159454
		c0.9905701-0.1220665,1.9812012-0.2873154,2.9717102-0.3627853c1.9810486-0.1532631,3.9621277-0.3437424,5.9432373-0.571434
		c1.5308838-0.1808968,3.0617371-0.358799,4.5926514-0.5694809c-0.8253479,0.5304832-1.6331482,1.0791664-2.4425354,1.6261635
		c-1.1291504,0.7707558-2.2324524,1.5682755-3.309906,2.3925858c-0.5379333,0.4129715-1.1382141,0.7613678-1.7084961,1.1408157
		c-0.5702209,0.3795242-1.0640564,0.8382034-1.4675598,1.3903503c-0.4073486,0.5482101-0.7631836,1.1497803-1.0616455,1.8107491
		c-0.2930298,0.6665382-0.5412903,1.3795052-0.6420593,2.2452126l0.2677002,0.2772141
		c0.8687134-0.0704422,1.5899048-0.2936058,2.2662964-0.5631905c0.67099-0.2751846,1.2846069-0.6097412,1.8467407-0.9976807
		c0.565918-0.3839798,1.0415649-0.8614502,1.4407959-1.4180565c0.3991699-0.5566788,0.7683105-1.1444321,1.1998596-1.6675873
		c0.8614502-1.0479927,1.697052-2.1227264,2.5068054-3.224247c0.5411377-0.7433205,1.0830994-1.4858017,1.6111755-2.2426643
		c-0.1986084,1.4540558-0.3690796,2.9081383-0.5425415,4.3621941c-0.2298889,1.9808769-0.4226074,3.9617271-0.578064,5.9426041
		c-0.0765991,0.9904251-0.2429504,1.9808731-0.3661194,2.9712982c-0.1242065,0.990448-0.1343689,1.9808731-0.0192871,2.9712982
		c0.1120911,0.9904556,0.2976685,1.9808807,0.5651245,2.9713058c0.2781677,0.990448,0.6127014,1.9808731,1.1691284,2.9712982
		h0.3854065c0.5563965-0.9904251,0.8909607-1.9808502,1.1690674-2.9712982
		c0.2674866-0.9904251,0.453064-1.9808502,0.5651245-2.9713058c0.1151123-0.9904251,0.10495-1.9808502-0.0192566-2.9712982
		c-0.1231689-0.9904251-0.2895508-1.9808731-0.3661194-2.9712982c-0.1554565-1.9808769-0.3481445-3.9617271-0.578064-5.9426041
		c-0.1675415-1.4042397-0.3329468-2.8084793-0.5228882-4.2126923c0.4602966,0.7409668,0.9325256,1.4709435,1.4042969,2.201313
		c0.7470703,1.1449509,1.5214539,2.2646255,2.3231201,3.3590164c0.4017029,0.5464058,0.7375183,1.15382,1.105011,1.7318916
		c0.3675537,0.5779953,0.8158569,1.0812454,1.3594971,1.4961967c0.5396118,0.4186668,1.1336365,0.7869225,1.7882385,1.0990715
		c0.6603088,0.3068771,1.3679504,0.5699234,2.2313538,0.6886978l0.2827759-0.2618828
		c-0.0523682-0.8699684-0.2604675-1.5956612-0.5158997-2.2775002c-0.2611694-0.6765938-0.5828857-1.2970543-0.9590149-1.8671303
		c-0.3721313-0.5737877-0.8395996-1.0592804-1.3877869-1.4700012c-0.5482178-0.4106712-1.1281433-0.7919998-1.6422119-1.2343369
		c-1.0298157-0.8830643-2.0869446-1.7408752-3.1713867-2.5733833c-0.8064575-0.6132317-1.6105347-1.2287407-2.4360352-1.8243675
		c1.5653076,0.220562,3.1306763,0.4065361,4.6960754,0.5950584c1.9805908,0.2321243,3.9612427,0.4270363,5.9419556,0.5847092
		c0.9903259,0.0776939,1.9805603,0.2451744,2.9708862,0.369442c0.9902954,0.1253128,1.9807129,0.1365776,2.9712524,0.022583
		c0.9906006-0.1109505,1.9812012-0.2954369,2.9719543-0.5618057c0.9907532-0.2770157,1.9815369-0.6104584,2.9725952-1.1657753
		l0.0004578-0.3853912c-0.9898071-0.5575218-1.9798889-0.8931656-2.9700012-1.1724091
		C375.0965881,50.6666145,374.1063538,50.4799461,373.1160583,50.3667679z"/>
	<path class="st22" d="M436.5832214,285.7434692c-1.2813721-0.3476868-2.5627747-0.5892639-3.8445435-0.7357483
		c-1.2814941-0.1503296-2.5632935-0.1387024-3.8451843,0.0207214c-1.2819214,0.1578674-2.5639343,0.3717346-3.8458557,0.4694519
		c-2.5636597,0.1983337-5.1274719,0.4448547-7.6912842,0.7394714c-1.401062,0.1654968-2.8021545,0.3388672-4.2033691,0.5169373
		c-0.0421753-0.1938477-0.1045532-0.3796387-0.1833496-0.5570374c0.53479-0.3572693,1.0716553-0.7125854,1.6039734-1.0722961
		c1.4613647-0.9976196,2.8892212-2.0296631,4.2835693-3.096405c0.696167-0.5343933,1.4730225-0.985321,2.210968-1.4763794
		c0.7380676-0.4911804,1.3771362-1.0848389,1.899231-1.7993469c0.5271606-0.7094727,0.987793-1.4880371,1.3739014-2.3433228
		c0.3793945-0.8626709,0.7005615-1.7853699,0.8309631-2.9056702l-0.3464966-0.3586731
		c-1.124176,0.091095-2.057373,0.3799133-2.9328308,0.7287598c-0.8682556,0.3560791-1.6624756,0.789032-2.3899231,1.2911987
		c-0.7323608,0.4968872-1.3479004,1.1147461-1.864563,1.8352051c-0.5165405,0.7203369-0.9942627,1.4810486-1.5527344,2.15802
		c-1.1148376,1.3563232-2.1963196,2.7470398-3.2441406,4.172699c-0.3681335,0.5054016-0.7297974,1.0178223-1.0957031,1.5255432
		c-0.2493591-0.1422119-0.5165405-0.2559204-0.8050842-0.3196106c0.1795959-1.4013062,0.3505249-2.8026428,0.5177002-4.2039795
		c0.2974548-2.5635681,0.546936-5.1271057,0.7481384-7.6905212c0.098999-1.2817993,0.3143005-2.5635681,0.4737244-3.8453369
		c0.1608276-1.2817688,0.1738892-2.5634155,0.0250854-3.8451843c-0.1451721-1.2817688-0.3853149-2.5635681-0.7314453-3.8453369
		c-0.3598633-1.2817688-0.7928162-2.5635376-1.5130005-3.8453064h-0.4986877
		c-0.7202148,1.2817688-1.1530457,2.5635376-1.5130005,3.8453064c-0.3461304,1.2817688-0.5863037,2.5635681-0.7313538,3.8453369
		c-0.1489258,1.2817688-0.1357117,2.5634155,0.0249939,3.8451843c0.1593933,1.2817688,0.3747253,2.5635376,0.4738464,3.8453369
		c0.2010498,2.5634155,0.450531,5.1269531,0.7480164,7.6905212c0.1694946,1.42099,0.3487244,2.84198,0.5308838,4.2630005
		c-0.2155457,0.063385-0.4194946,0.1495667-0.6109924,0.2585144c-0.3537598-0.5544434-0.7041626-1.1117554-1.0605164-1.6634827
		c-0.9668274-1.4818115-1.9690857-2.9307556-3.0065918-4.3471069c-0.5197754-0.7070007-0.9544067-1.4931946-1.4300537-2.2412415
		c-0.475647-0.7480164-1.0557251-1.3993835-1.7592468-1.9363708c-0.6984558-0.5417786-1.467041-1.0183105-2.3143311-1.4223022
		c-0.8545227-0.3972168-1.7703552-0.7375488-2.8875427-0.8912659l-0.3659363,0.3388977
		c0.067688,1.1258545,0.3369446,2.0650024,0.6676941,2.9474487c0.3378296,0.8756104,0.7540894,1.6784973,1.2409973,2.4163208
		c0.4814758,0.7425842,1.0865173,1.3707886,1.7958679,1.9023438c0.7095947,0.5315552,1.460083,1.0250549,2.1254272,1.5974731
		c1.3326111,1.1428223,2.7006836,2.2528992,4.1040955,3.3303528c0.5592346,0.4250488,1.1239319,0.8451843,1.6865234,1.2670288
		c-0.0917358,0.1972046-0.167572,0.4026794-0.213501,0.6208191c-1.4657593-0.190979-2.9317932-0.3754883-4.3978271-0.552002
		c-2.5630493-0.3004456-5.1263428-0.5526123-7.6896057-0.7566833c-1.2817993-0.1005249-2.5632935-0.3172607-3.8448181-0.4781189
		c-1.2815247-0.1621094-2.5632935-0.1767273-3.8453369-0.0293579c-1.2817688,0.1436157-2.5638123,0.3824768-3.8460999,0.7272034
		c-1.2820129,0.3583984-2.5643311,0.7900696-3.8468628,1.508728l-0.0005188,0.4986877
		c1.2808533,0.7214966,2.5622559,1.1558533,3.8435059,1.5172424c1.2814026,0.3475647,2.5628967,0.5892639,3.8445435,0.7357483
		c1.2815247,0.1503601,2.5632935,0.1385803,3.8453369-0.0206909c1.2817688-0.1579895,2.5638123-0.3718872,3.8457031-0.4694519
		c2.5638123-0.1984863,5.1275024-0.4448547,7.6914368-0.739624c1.4868469-0.1757202,2.9738464-0.3550415,4.4607239-0.5458984
		c0.0627441,0.2200928,0.1496887,0.4277649,0.2596741,0.623291c-0.6461792,0.4295654-1.2957458,0.8560486-1.9378052,1.2900391
		c-1.4613647,0.9976501-2.8890991,2.0296936-4.2835693,3.096405c-0.6961365,0.5343933-1.4729004,0.985321-2.2109375,1.4763794
		c-0.7380676,0.4911804-1.3770142,1.0848389-1.8992615,1.7993469c-0.5271301,0.7094727-0.987793,1.4880371-1.3739014,2.3433228
		c-0.379364,0.8625488-0.700531,1.7853699-0.8309631,2.9056702l0.3465271,0.3586731
		c1.124176-0.091095,2.0573425-0.3798828,2.9328308-0.7287292c0.8683472-0.3561096,1.6624451-0.7890625,2.3898926-1.2911072
		c0.7323914-0.4970093,1.3480225-1.1148376,1.864563-1.8353271c0.5165405-0.7203369,0.9942627-1.4810181,1.5528564-2.15802
		c1.1147461-1.3562927,2.1961975-2.7470398,3.2441711-4.172699c0.4668579-0.6412659,0.9277649-1.2884827,1.3899536-1.9346924
		c0.1735229,0.0908508,0.3556824,0.1638184,0.5475769,0.2184143c-0.1922607,1.4864807-0.3771667,2.9729614-0.5545654,4.4593201
		c-0.2974854,2.5635376-0.5469666,5.1269531-0.7480164,7.6905212c-0.0991211,1.2817688-0.3144531,2.5635376-0.4738464,3.8453064
		c-0.1607056,1.2817688-0.1739197,2.5635681-0.0249939,3.8453369c0.14505,1.2817688,0.3852234,2.5635376,0.7313538,3.8453064
		c0.3599548,1.2817993,0.7927856,2.5635681,1.5130005,3.8452148h0.4986877
		c0.7201843-1.2816467,1.1531372-2.5634155,1.5130005-3.8452148c0.3461304-1.2817688,0.5862732-2.5635376,0.7314453-3.8453064
		c0.1488037-1.2817688,0.1357422-2.5635681-0.0250854-3.8453369c-0.1594238-1.2817688-0.3747253-2.5635376-0.4737244-3.8453064
		c-0.2012024-2.5635681-0.4506836-5.1269836-0.7481384-7.6905212c-0.1749573-1.4663086-0.3564758-2.9324646-0.545929-4.3987427
		c0.156311-0.0328674,0.3056335-0.0834656,0.4515991-0.1402893c0.4104309,0.6464539,0.8200989,1.2937012,1.2349243,1.9360046
		c0.9668274,1.4818115,1.9691162,2.9307556,3.0065918,4.3471069c0.5198975,0.7070007,0.9544067,1.4932251,1.4300537,2.2412415
		s1.0558777,1.3993835,1.7592468,1.9363708c0.6984558,0.5417786,1.4671936,1.0183411,2.3143311,1.4223022
		c0.8545227,0.3970947,1.7703857,0.7375488,2.8876953,0.8912659l0.3659058-0.3388977
		c-0.0676575-1.1258545-0.3370667-2.0649719-0.6676636-2.9474487c-0.3379822-0.8756104-0.7542419-1.6784973-1.2409973-2.4162903
		c-0.4816284-0.7426147-1.0866699-1.3708191-1.79599-1.9023743c-0.7095947-0.5315247-1.460083-1.0250549-2.1254272-1.5974731
		c-1.3326416-1.1428223-2.7007141-2.2528687-4.104126-3.3303528c-0.5713806-0.4345093-1.1515808-0.8609924-1.7261047-1.2926331
		c0.1731262-0.2497253,0.2978516-0.5311584,0.3866272-0.8291626c1.4213867,0.1845093,2.8427734,0.3597107,4.2643127,0.5310364
		c2.5631409,0.3003235,5.1263123,0.5525208,7.6896057,0.7566833c1.2817688,0.1004333,2.5632935,0.3172913,3.8448181,0.4779968
		c1.2816467,0.162262,2.5632935,0.1767578,3.8453064,0.0292358c1.2819214-0.1436157,2.5638123-0.3822327,3.8460999-0.7269287
		c1.2821655-0.358551,2.5643311-0.7900696,3.8468933-1.508728l0.0005188-0.4986877
		C439.145874,286.5391235,437.864624,286.1047363,436.5832214,285.7434692z"/>
	<path class="st22" d="M331.4451294,276.2639465c-1.2814026-0.3476868-2.5627747-0.5892639-3.844574-0.7357178
		c-1.2814941-0.1503601-2.5632629-0.1387329-3.8451843,0.0206909c-1.2818909,0.1578674-2.5639343,0.3717651-3.8458252,0.4694519
		c-2.5636902,0.1983643-5.1275024,0.4448547-7.6913147,0.7394714c-1.401062,0.1654968-2.8021545,0.3388977-4.2033386,0.5169373
		c-0.0422058-0.1938477-0.1045532-0.3796387-0.1833496-0.5570374c0.5347595-0.3572693,1.0716248-0.7125854,1.6039429-1.0722961
		c1.4613953-0.9976196,2.8892517-2.0296631,4.2835999-3.0963745c0.6961365-0.5344238,1.4730225-0.9853516,2.2109375-1.4764099
		c0.7380676-0.4911804,1.3771362-1.0848389,1.899231-1.7993469c0.5271606-0.7094421,0.987793-1.4880066,1.3739319-2.3433228
		c0.379364-0.8626709,0.700531-1.7853699,0.8309631-2.9056702l-0.3465271-0.3586731
		c-1.124176,0.091095-2.057373,0.3799133-2.9328308,0.7287598c-0.8682251,0.3560791-1.6624451,0.789032-2.3899231,1.2911987
		c-0.7323608,0.4968872-1.3478699,1.1147461-1.864563,1.8352051c-0.5165405,0.7203369-0.9942627,1.4810486-1.5527039,2.15802
		c-1.1148682,1.3563232-2.1963501,2.7470398-3.2441711,4.172699c-0.3681335,0.5054016-0.7297668,1.0178223-1.0957031,1.5255432
		c-0.2493591-0.1421814-0.5165405-0.2559204-0.8050842-0.3195801c0.1795959-1.4013367,0.3505249-2.8026733,0.5177002-4.20401
		c0.2974854-2.5635681,0.546936-5.1271057,0.7481384-7.6905212c0.098999-1.2817688,0.3143005-2.5635376,0.4737244-3.8453369
		c0.1608276-1.2817688,0.1738892-2.5634155,0.025116-3.8451843c-0.1452026-1.2817688-0.3853455-2.5635529-0.7314758-3.8453217
		c-0.3598328-1.2817841-0.7927856-2.5635529-1.5130005-3.8453217h-0.4986877
		c-0.7202148,1.2817688-1.1530151,2.5635376-1.5130005,3.8453217c-0.3461304,1.2817688-0.5862732,2.5635529-0.7313232,3.8453217
		c-0.1489563,1.2817688-0.1357422,2.5634155,0.0249634,3.8451843c0.1594238,1.2817993,0.3747253,2.5635681,0.4738464,3.8453369
		c0.2010803,2.5634155,0.450531,5.1269531,0.7480164,7.6905212c0.1694946,1.42099,0.3487244,2.8420105,0.5309143,4.2630005
		c-0.2155762,0.0634155-0.4194946,0.1495972-0.6109924,0.2585449c-0.3537903-0.5544739-0.7041626-1.1117554-1.0605164-1.6635132
		c-0.9668274-1.4818115-1.9691162-2.9307556-3.0065918-4.3471069c-0.5197754-0.7070007-0.9544067-1.4931946-1.4300842-2.2412109
		c-0.475647-0.7480469-1.0557251-1.3994141-1.7592163-1.9364014c-0.6984863-0.541748-1.4670715-1.0183105-2.3143616-1.4222717
		c-0.8544922-0.3972473-1.7703552-0.7375488-2.8875427-0.8912659l-0.3659058,0.3388672
		c0.0676575,1.1258545,0.3369141,2.0650024,0.6676636,2.9474792c0.3378296,0.8755798,0.7540894,1.6784668,1.2409973,2.4162903
		c0.4814758,0.7425842,1.0865173,1.3707886,1.7958679,1.9023438c0.7095947,0.5315552,1.460083,1.0250549,2.1254272,1.5975037
		c1.3326111,1.1427917,2.7007141,2.2528687,4.1040955,3.3303223c0.5592651,0.4250488,1.1239319,0.8452148,1.6865234,1.2670288
		c-0.0917358,0.1972046-0.167572,0.4026794-0.213501,0.6208191c-1.4657593-0.190979-2.9317932-0.3754883-4.3978271-0.5519714
		c-2.5630188-0.3004761-5.1263123-0.5526428-7.6896057-0.7567139c-1.2817688-0.1005249-2.5632935-0.3172607-3.8448181-0.4780884
		c-1.2815247-0.1621399-2.5632935-0.1767578-3.8453064-0.0293884c-1.2817993,0.1436157-2.5638123,0.3824768-3.8461304,0.7272034
		c-1.2820129,0.358429-2.5643005,0.7900696-3.8468628,1.508728l-0.0005188,0.4986877
		c1.2808838,0.7214966,2.5622559,1.1558533,3.8435059,1.5172729c1.2814026,0.3475342,2.5628967,0.5892639,3.8445435,0.7357178
		c1.2815247,0.1503601,2.5632935,0.1385803,3.8453369-0.0206909c1.2817688-0.1579895,2.5638123-0.3718872,3.8457031-0.4694519
		c2.5638123-0.1984863,5.1275024-0.4448547,7.6914368-0.739624c1.4868774-0.1756897,2.9738464-0.3550415,4.4607239-0.5458984
		c0.0627441,0.2200928,0.1497192,0.4277649,0.2597046,0.623291c-0.6462097,0.4295959-1.2957764,0.8560791-1.9378052,1.2900696
		c-1.4613953,0.9976196-2.8891296,2.0296631-4.2835999,3.0963745c-0.6961365,0.5343933-1.4728699,0.9853516-2.2109375,1.4763794
		c-0.7380676,0.4911804-1.3770142,1.0848389-1.8992615,1.7993469c-0.5271301,0.7094727-0.987793,1.4880371-1.3739014,2.3433228
		c-0.379364,0.8625488-0.700531,1.7854004-0.8309631,2.9056702l0.3465271,0.3586731
		c1.124176-0.0910645,2.057373-0.3798828,2.9328308-0.7287292c0.8683777-0.3561096,1.6624451-0.789032,2.3899231-1.2911072
		c0.7323608-0.4969788,1.3480225-1.1148376,1.864563-1.8352966c0.5165405-0.7203369,0.9942627-1.4810486,1.5528564-2.1580505
		c1.1147156-1.3562927,2.1961975-2.7470093,3.2441406-4.1726685c0.4668579-0.6412964,0.9277649-1.2885132,1.3899536-1.9347229
		c0.1735229,0.0908508,0.3557129,0.1638184,0.5476074,0.2184448c-0.1922913,1.4864502-0.3771973,2.9729309-0.5545959,4.4592896
		c-0.2974854,2.5635376-0.546936,5.1269531-0.7480164,7.6905212c-0.0991211,1.2817688-0.3144226,2.5635376-0.4738464,3.8453064
		c-0.1607056,1.2817993-0.1739197,2.5635681-0.0249634,3.8453369c0.14505,1.2817688,0.3851929,2.5635376,0.7313232,3.8453369
		c0.3599854,1.2817688,0.7927856,2.5635376,1.5130005,3.8451843h0.4986877
		c0.7202148-1.2816467,1.1531677-2.5634155,1.5130005-3.8451843c0.3461304-1.2817993,0.5862732-2.5635681,0.7314758-3.8453369
		c0.1487732-1.2817688,0.1357117-2.5635376-0.025116-3.8453369c-0.1594238-1.2817688-0.3747253-2.5635376-0.4737244-3.8453064
		c-0.2012024-2.5635681-0.4506531-5.1269836-0.7481384-7.6905212c-0.1749573-1.4663086-0.3564758-2.9324646-0.545929-4.3987427
		c0.156311-0.0328674,0.3056335-0.0834656,0.4515991-0.1402588c0.4104309,0.6464539,0.8200989,1.2936707,1.2349243,1.9359741
		c0.9668274,1.4818115,1.9691162,2.9307861,3.0065918,4.3471069c0.519928,0.7070313,0.9544067,1.4932251,1.4300842,2.2412415
		c0.475647,0.7480164,1.0558472,1.3993835,1.7592163,1.9363708c0.6984863,0.5417786,1.4671936,1.0183411,2.3143311,1.4223022
		c0.8545227,0.3971252,1.7703857,0.7375488,2.8876953,0.8912659l0.3659363-0.3388672
		c-0.067688-1.1258545-0.3370972-2.0650024-0.6676941-2.9474792c-0.3379517-0.8756104-0.7542114-1.6784973-1.2409973-2.4162903
		c-0.4815979-0.7425842-1.0866699-1.3707886-1.79599-1.9023438c-0.7095947-0.5315552-1.460083-1.0250549-2.1254272-1.5975037
		c-1.3326111-1.1427917-2.7007141-2.2528687-4.1040955-3.3303223c-0.5714111-0.4345093-1.1516113-0.8609924-1.7261353-1.2926636
		c0.1731262-0.2497253,0.2978821-0.5311584,0.3866272-0.8291626c1.4213867,0.1845398,2.842804,0.3597412,4.2643127,0.5310364
		c2.5631714,0.3003235,5.1263123,0.5525208,7.6896057,0.7567139c1.2817688,0.1004028,2.5632935,0.3172607,3.8448181,0.4779663
		c1.2816467,0.162262,2.5632935,0.1767578,3.8453064,0.0292358c1.2819214-0.1436157,2.5638123-0.3822327,3.8460999-0.7269287
		c1.2821655-0.358551,2.5643311-0.7900696,3.8468933-1.508728l0.0005188-0.4986877
		C334.0077515,277.0596008,332.7265015,276.6252136,331.4451294,276.2639465z"/>
	<path class="st20" d="M383.4082031,159.1530762c-1.2813721-0.3476868-2.5627747-0.5892639-3.8445435-0.735733
		c-1.2815247-0.1503601-2.5632935-0.1387177-3.8451843,0.0206909c-1.2819214,0.1578674-2.5639343,0.3717499-3.8458557,0.4694519
		c-2.5636902,0.198349-5.1274719,0.4448547-7.6912842,0.7394714c-1.4010925,0.1654968-2.8021545,0.3388824-4.2033691,0.5169373
		c-0.0421753-0.1938324-0.1045532-0.3796387-0.1833496-0.5570374c0.53479-0.357254,1.0716553-0.7125702,1.6039734-1.0722961
		c1.4613647-0.9976196,2.8892212-2.0296631,4.2835693-3.0963898c0.6961365-0.5343933,1.4730225-0.9853363,2.210968-1.4763794
		c0.7380371-0.4911804,1.3771362-1.0848389,1.899231-1.7993469c0.5271606-0.7094727,0.987793-1.4880371,1.3739014-2.3433228
		c0.3793945-0.8626709,0.700531-1.7853851,0.8309631-2.9056702l-0.3464966-0.3586731
		c-1.124176,0.0910797-2.057373,0.3798981-2.9328613,0.7287445c-0.8682251,0.3560791-1.6624451,0.789032-2.3898926,1.291214
		c-0.7323608,0.4968719-1.3479004,1.1147308-1.864563,1.8351898c-0.5165405,0.7203369-0.9942627,1.4810486-1.5527344,2.1580353
		c-1.1148376,1.356308-2.1963196,2.7470245-3.2441406,4.1726837c-0.3681335,0.5054169-0.7297974,1.0178223-1.0957336,1.5255585
		c-0.2493286-0.1422119-0.5165405-0.2559357-0.8050842-0.3196106c0.1795959-1.4013214,0.3505249-2.8026581,0.5177002-4.2039948
		c0.2974854-2.5635529,0.5469666-5.1271057,0.7481689-7.6905212c0.098999-1.2817688,0.3143005-2.5635529,0.4737244-3.8453217
		c0.1608276-1.2817841,0.1738892-2.5634308,0.0250854-3.8451996c-0.1451721-1.2817688-0.3853455-2.5635529-0.7314758-3.8453217
		c-0.3598328-1.2817841-0.7927856-2.5635529-1.5130005-3.8453217h-0.4986572
		c-0.7202148,1.2817688-1.1530457,2.5635376-1.5130005,3.8453217c-0.3461304,1.2817688-0.5863037,2.5635529-0.7313538,3.8453217
		c-0.1489258,1.2817688-0.1357422,2.5634155,0.0249939,3.8451996c0.1593933,1.2817688,0.3746948,2.5635529,0.4738159,3.8453217
		c0.2010803,2.5634155,0.4505615,5.1269684,0.7480469,7.6905212c0.1694946,1.4210052,0.3486938,2.8419952,0.5308838,4.2630005
		c-0.2155762,0.0634003-0.4194946,0.1495819-0.6109924,0.2585297c-0.3537598-0.5544434-0.7041626-1.1117401-1.0605164-1.6634827
		c-0.9668274-1.4818115-1.9691162-2.9307709-3.0065918-4.3471069c-0.5197754-0.707016-0.9544067-1.4932098-1.4300537-2.2412415
		c-0.475647-0.7480164-1.0557251-1.3993835-1.7592468-1.9363708c-0.6984558-0.5417786-1.4670715-1.0183258-2.3143311-1.4223022
		c-0.8545227-0.3972321-1.7703552-0.7375336-2.8875427-0.8912659l-0.3659363,0.3388824
		c0.067688,1.1258545,0.3369446,2.0650024,0.6676636,2.947464c0.3378601,0.8756104,0.7541199,1.6784973,1.2410278,2.4163055
		c0.4814758,0.7425842,1.0865173,1.3707886,1.7958679,1.9023438c0.7095947,0.5315552,1.4600525,1.0250549,2.1253967,1.5974884
		c1.3326416,1.142807,2.7007141,2.2528839,4.104126,3.3303375c0.5592346,0.4250641,1.1239014,0.8451996,1.6865234,1.2670288
		c-0.0917358,0.1972046-0.167572,0.4026794-0.213501,0.6208344c-1.4657898-0.190979-2.9318237-0.3755035-4.3978271-0.552002
		c-2.5630493-0.3004456-5.1263428-0.5526276-7.6896362-0.7566833c-1.2817688-0.1005402-2.5632935-0.317276-3.8447876-0.4781189
		c-1.2815247-0.1621246-2.5632935-0.1767426-3.8453369-0.0293732c-1.2817688,0.143631-2.5638123,0.3824921-3.8460999,0.7272034
		c-1.2820435,0.3584137-2.5643311,0.7900696-3.8468628,1.508728l-0.0005188,0.4986877
		c1.2808533,0.7214966,2.5622559,1.1558685,3.8435059,1.5172729c1.2813721,0.3475494,2.5628967,0.5892487,3.8445435,0.735733
		c1.2815247,0.1503448,2.5632935,0.1385803,3.8453369-0.0207062c1.2817688-0.1579895,2.5637817-0.3718872,3.8457031-0.4694519
		c2.5638123-0.1984863,5.1274719-0.4448547,7.6914368-0.7396088c1.4868469-0.1757202,2.9738464-0.3550568,4.4606934-0.5459137
		c0.0627747,0.220108,0.1497192,0.4277802,0.2597046,0.623291c-0.6461792,0.4295959-1.2957458,0.8560638-1.9378052,1.2900543
		c-1.4613647,0.9976349-2.8890991,2.0296783-4.2835693,3.0963898c-0.6961365,0.5344086-1.4729004,0.9853363-2.210968,1.4763947
		c-0.7380371,0.4911804-1.3769836,1.0848389-1.899231,1.7993469c-0.5271606,0.7094574-0.987793,1.4880219-1.3739014,2.3433228
		c-0.3793945,0.8625336-0.700531,1.7853699-0.8309631,2.9056702l0.3464966,0.3586731
		c1.124176-0.091095,2.057373-0.3798981,2.9328613-0.7287445c0.8683472-0.3560944,1.6624451-0.7890472,2.3898926-1.2910919
		c0.7323608-0.4970093,1.3480225-1.1148529,1.864563-1.8353271c0.5165405-0.7203369,0.9942627-1.4810333,1.5528564-2.15802
		c1.1147156-1.356308,2.1961975-2.7470398,3.2441711-4.172699c0.4668579-0.6412659,0.9277344-1.2884979,1.3899536-1.9346924
		c0.1734924,0.0908356,0.3556824,0.1638184,0.5475769,0.2184143c-0.1922607,1.4864807-0.3771667,2.9729614-0.5545654,4.4593048
		c-0.2974854,2.5635529-0.5469666,5.1269684-0.7480469,7.6905212c-0.0991211,1.2817688-0.3144226,2.5635376-0.4738159,3.8453217
		c-0.1607361,1.2817688-0.1739197,2.5635529-0.0249939,3.8453217c0.14505,1.2817688,0.3852234,2.5635529,0.7313538,3.8453217
		c0.3599548,1.2817841,0.7927856,2.5635529,1.5130005,3.8451996h0.4986572
		c0.7202148-1.2816467,1.1531677-2.5634155,1.5130005-3.8451996c0.3461304-1.2817688,0.5863037-2.5635529,0.7314758-3.8453217
		c0.1488037-1.2817688,0.1357422-2.5635529-0.0250854-3.8453217c-0.1594238-1.2817841-0.3747253-2.5635529-0.4737244-3.8453217
		c-0.2012024-2.5635529-0.4506836-5.1269684-0.7481689-7.6905212c-0.1749268-1.4662933-0.3564758-2.9324493-0.5458984-4.3987427
		c0.156311-0.0328674,0.3056335-0.0834656,0.4515686-0.1402588c0.4104614,0.6464386,0.8200989,1.2936707,1.2349548,1.9359894
		c0.9668274,1.4818115,1.9691162,2.9307556,3.0065918,4.3471069c0.5198975,0.7070007,0.9544067,1.4932098,1.4300537,2.2412262
		c0.475647,0.7480316,1.0558472,1.3993988,1.7592468,1.9363861c0.6984558,0.5417633,1.4671936,1.0183258,2.3143311,1.422287
		c0.8545227,0.39711,1.7703552,0.7375488,2.8876953,0.8912659l0.3659058-0.3388824
		c-0.0676575-1.1258545-0.3370667-2.0649872-0.6676636-2.947464c-0.3379822-0.8755951-0.7542419-1.6784973-1.2410278-2.4162903
		c-0.4815979-0.7425995-1.0866394-1.3708038-1.79599-1.9023438c-0.7095947-0.5315552-1.4600525-1.0250702-2.1253967-1.5975037
		c-1.3326416-1.142807-2.7007141-2.2528687-4.104126-3.3303375c-0.5714111-0.4345093-1.1516113-0.8609772-1.7261047-1.2926483
		c0.1731262-0.2497253,0.2978516-0.5311584,0.3866272-0.8291473c1.4213867,0.1845093,2.8427734,0.3597107,4.2642822,0.5310364
		c2.5631714,0.3003235,5.1263428,0.5525055,7.6896362,0.7566833c1.2817688,0.1004181,2.5632935,0.317276,3.8447876,0.4779816
		c1.2816467,0.162262,2.5632935,0.1767578,3.8453369,0.0292511c1.2818909-0.143631,2.5638123-0.3822327,3.8460999-0.726944
		c1.2821655-0.358551,2.5643311-0.7900696,3.8468628-1.508728l0.0005188-0.4986877
		C385.9708557,159.9487152,384.6896057,159.5143433,383.4082031,159.1530762z"/>
	<path class="st22" d="M499.1818237,404.4840698c-1.2813721-0.3476868-2.5627747-0.5892639-3.8445435-0.7357483
		c-1.2814941-0.1503601-2.5632935-0.1387024-3.8451843,0.0207214c-1.2819214,0.1578369-2.5639343,0.3717346-3.8458557,0.4694214
		c-2.5636597,0.1983643-5.1274719,0.4448547-7.6912842,0.739502c-1.401062,0.1654968-2.8021545,0.3388672-4.2033691,0.5169067
		c-0.0421753-0.1938171-0.1045532-0.3796387-0.1833496-0.5570374c0.53479-0.3572388,1.0716553-0.7125549,1.6039734-1.0722656
		c1.4613647-0.9976501,2.8892212-2.0296936,4.2835693-3.096405c0.696167-0.5343933,1.4730225-0.985321,2.210968-1.4763794
		c0.7380676-0.4911804,1.3771362-1.0848389,1.899231-1.7993469c0.5271606-0.7094727,0.987793-1.4880371,1.3739014-2.3433228
		c0.3793945-0.8626709,0.7005615-1.7853699,0.8309631-2.9056702l-0.3464966-0.3586731
		c-1.124176,0.091095-2.057373,0.3798828-2.9328308,0.7287292c-0.8682556,0.3561096-1.6624756,0.7890625-2.3899231,1.2912292
		c-0.7323608,0.4968872-1.3479004,1.1147156-1.864563,1.8352051c-0.5165405,0.7203369-0.9942627,1.4810181-1.5527344,2.15802
		c-1.1148376,1.3562927-2.1963196,2.7470398-3.2441406,4.172699c-0.3681335,0.5054016-0.7297974,1.0177917-1.0957031,1.5255432
		c-0.2493591-0.1422119-0.5165405-0.2559509-0.8051147-0.3196106c0.1796265-1.4013367,0.3505554-2.8026733,0.5177307-4.20401
		c0.2974548-2.5635376,0.546936-5.1270752,0.7481384-7.6905212c0.098999-1.2817688,0.3143005-2.5635376,0.4737244-3.8453064
		c0.1608276-1.2817688,0.1738892-2.5634155,0.0250854-3.8451843c-0.1451721-1.2817993-0.3853149-2.5635681-0.7314453-3.8453369
		c-0.3598633-1.2817688-0.7928162-2.5635376-1.5130005-3.8453369h-0.4986877
		c-0.7202148,1.2817993-1.1530457,2.5635681-1.5130005,3.8453369c-0.3461304,1.2817688-0.5863037,2.5635376-0.7313538,3.8453369
		c-0.1489258,1.2817688-0.1357117,2.5634155,0.0249939,3.8451843c0.1593933,1.2817688,0.3747253,2.5635376,0.4738464,3.8453064
		c0.2010498,2.563446,0.450531,5.1269836,0.7480164,7.6905212c0.1694946,1.4210205,0.3487244,2.8420105,0.5308838,4.263031
		c-0.2155457,0.063385-0.4194946,0.1495667-0.6109924,0.2585144c-0.3537598-0.5544434-0.7041626-1.1117554-1.0605164-1.6634827
		c-0.9668274-1.4818115-1.9691162-2.9307556-3.0065918-4.3471069c-0.5197754-0.7070007-0.9544067-1.4932251-1.4300537-2.2412415
		s-1.0557251-1.3993835-1.7592468-1.9363708c-0.6984558-0.5417786-1.467041-1.0183411-2.3143311-1.4223022
		c-0.8545227-0.3972473-1.7703552-0.7375488-2.8875427-0.8912659l-0.3659363,0.3388977
		c0.067688,1.1258545,0.3369446,2.0649719,0.6676941,2.9474487c0.3378296,0.8756104,0.7540894,1.6784973,1.2409973,2.4162903
		c0.4814758,0.7426147,1.0865173,1.3708191,1.7958679,1.9023438c0.7095947,0.5315552,1.460083,1.0250854,2.1254272,1.5975037
		c1.3326111,1.1428223,2.7006836,2.2528687,4.1040955,3.3303528c0.5592346,0.4250488,1.1239319,0.8451843,1.6865234,1.2670288
		c-0.0917358,0.1971741-0.167572,0.4026489-0.213501,0.6208191c-1.4657593-0.190979-2.9317932-0.3754883-4.3978271-0.552002
		c-2.5630493-0.3004456-5.1263428-0.5526428-7.6896057-0.7566833c-1.2817993-0.1005554-2.5632935-0.3172913-3.8448181-0.4781189
		c-1.2815247-0.1621399-2.5632935-0.1767578-3.8453369-0.0293579c-1.2817688,0.1436157-2.5638123,0.3824768-3.8460999,0.7271729
		c-1.2820129,0.358429-2.5643311,0.7901001-3.8468628,1.508728l-0.0005188,0.4986877
		c1.2808533,0.7214966,2.5622559,1.1558838,3.8435059,1.5172729c1.2814026,0.3475647,2.5628967,0.5892639,3.8445435,0.7357483
		c1.2815247,0.1503601,2.5632935,0.1385803,3.8453369-0.0207214c1.2817688-0.1579895,2.5638123-0.3718567,3.8457031-0.4694214
		c2.5638123-0.1984863,5.1275024-0.4448547,7.6914368-0.739624c1.4868469-0.1757202,2.9738464-0.3550415,4.4607239-0.5458984
		c0.0627441,0.2200928,0.1496887,0.4277649,0.2596741,0.623291c-0.6461792,0.4295654-1.2957458,0.8560486-1.9378052,1.2900391
		c-1.4613647,0.9976196-2.8890991,2.0296631-4.2835693,3.096405c-0.6961365,0.5343933-1.4729004,0.985321-2.2109375,1.4763794
		c-0.7380676,0.4911804-1.3770142,1.0848389-1.8992615,1.7993469c-0.5271301,0.7094727-0.987793,1.4880371-1.3739014,2.3433228
		c-0.379364,0.8625488-0.700531,1.7853699-0.8309631,2.9056702l0.3465271,0.3586731
		c1.124176-0.091095,2.0573425-0.3799133,2.9328308-0.7287598c0.8683472-0.3560791,1.6624451-0.789032,2.3898926-1.2910767
		c0.7323914-0.4970093,1.3480225-1.1148682,1.864563-1.8353271c0.5165405-0.7203369,0.9942627-1.4810486,1.5528564-2.15802
		c1.1147461-1.3563232,2.1961975-2.7470398,3.2441711-4.172699c0.4668579-0.6412659,0.9277649-1.2885132,1.3899536-1.9346924
		c0.1735229,0.0908203,0.3556824,0.1638184,0.5475769,0.2184143c-0.1922607,1.4864807-0.3771667,2.9729614-0.5545654,4.4592896
		c-0.2974854,2.5635681-0.5469666,5.1269836-0.7480164,7.6905212c-0.0991211,1.2817688-0.3144531,2.5635681-0.4738464,3.8453369
		c-0.1607056,1.2817688-0.1739197,2.5635376-0.0249939,3.8453064c0.14505,1.2817993,0.3852234,2.5635681,0.7313538,3.8453369
		c0.3599548,1.2817688,0.7927856,2.5635376,1.5130005,3.8451843h0.4986877
		c0.7201843-1.2816467,1.1531372-2.5634155,1.5130005-3.8451843c0.3461304-1.2817688,0.5862732-2.5635376,0.7314453-3.8453369
		c0.1488037-1.2817688,0.1357422-2.5635376-0.0250854-3.8453064c-0.1594238-1.2817688-0.3747253-2.5635681-0.4737244-3.8453369
		c-0.2012024-2.5635376-0.4506836-5.1269531-0.7481384-7.6905212c-0.1749573-1.4662781-0.3564758-2.9324341-0.545929-4.3987427
		c0.156311-0.0328674,0.3056335-0.0834351,0.4515991-0.1402588c0.4104309,0.6464539,0.8200989,1.2937012,1.2349243,1.9360046
		c0.9668274,1.4818115,1.9691162,2.9307556,3.0065918,4.3471069c0.5198975,0.7070007,0.9544067,1.4931946,1.4300537,2.2412415
		c0.475647,0.7480164,1.0558472,1.3993835,1.7592468,1.9363708c0.6984558,0.5417786,1.4671936,1.0183105,2.3143311,1.4223022
		c0.8545227,0.3970947,1.7703857,0.7375488,2.8876953,0.8912659l0.3659058-0.3388977
		c-0.0676575-1.1258545-0.3370667-2.0650024-0.6676636-2.9474487c-0.3379822-0.8756104-0.7542419-1.6784973-1.2409973-2.4163208
		c-0.4816284-0.7425842-1.0866699-1.3707886-1.79599-1.9023438c-0.7095947-0.5315552-1.460083-1.0250549-2.1254272-1.5974731
		c-1.3326416-1.1428223-2.7007141-2.2528992-4.104126-3.3303528c-0.5713806-0.4345093-1.1516113-0.8609924-1.7261047-1.2926331
		c0.1731262-0.2497253,0.2978516-0.5311584,0.3866272-0.8291626c1.4213867,0.1845093,2.8427734,0.3597107,4.2643127,0.5310364
		c2.5631409,0.3003235,5.1263123,0.5524902,7.6896057,0.7566833c1.2817688,0.1004028,2.5632935,0.3172913,3.8448181,0.4779968
		c1.2816467,0.162262,2.5632629,0.1767273,3.8453064,0.0292358c1.2819214-0.1436462,2.5638123-0.3822327,3.8460999-0.7269287
		c1.2821655-0.358551,2.5643311-0.7901001,3.8468933-1.508728l0.0005188-0.4986877
		C501.7444763,405.2796936,500.4632263,404.8453369,499.1818237,404.4840698z"/>
	<path class="st22" d="M402.0089722,421.0483398c-1.2813721-0.3476868-2.5627747-0.5892639-3.8445435-0.7357483
		c-1.2815247-0.1503601-2.5632935-0.1387024-3.8451843,0.0206909c-1.2819214,0.1578674-2.5639343,0.3717651-3.8458557,0.4694519
		c-2.5636597,0.1983643-5.1274719,0.4448547-7.6912842,0.7394714c-1.4010925,0.1654968-2.8021545,0.3388977-4.2033691,0.5169373
		c-0.0421753-0.1938171-0.1045532-0.3796387-0.1833496-0.5570374c0.53479-0.3572388,1.0716553-0.7125549,1.6039734-1.0722961
		c1.4613647-0.9976196,2.8892212-2.0296631,4.2835693-3.0963745c0.6961365-0.5343933,1.4730225-0.9853516,2.210968-1.4763794
		c0.7380676-0.4911804,1.3771362-1.0848389,1.899231-1.7993469c0.5271606-0.7094727,0.987793-1.4880371,1.3739014-2.3433228
		c0.3793945-0.8626709,0.700531-1.7854004,0.8309631-2.9056702l-0.3464966-0.3586731
		c-1.124176,0.0910645-2.057373,0.3798828-2.9328613,0.7287292c-0.8682251,0.3560791-1.6624451,0.789032-2.3898926,1.2912292
		c-0.7323608,0.4968567-1.3479004,1.1147156-1.864563,1.8351746c-0.5165405,0.7203369-0.9942627,1.4810486-1.5527344,2.1580505
		c-1.1148376,1.3562927-2.1963196,2.7470093-3.2441406,4.1726685c-0.3681335,0.5054321-0.7297974,1.0178223-1.0957031,1.5255737
		c-0.2493591-0.1422119-0.5165405-0.2559509-0.8051147-0.3196106c0.1795959-1.4013367,0.3505249-2.8026733,0.5177307-4.20401
		c0.2974548-2.5635376,0.546936-5.1271057,0.7481384-7.6905212c0.098999-1.2817688,0.3143005-2.5635376,0.4737244-3.8453064
		c0.1608276-1.2817993,0.1738892-2.563446,0.0250854-3.8452148c-0.1451721-1.2817688-0.3853149-2.5635376-0.7314453-3.8453064
		c-0.3598633-1.2817993-0.7928162-2.5635681-1.5130005-3.8453369h-0.4986877
		c-0.7202148,1.2817688-1.1530457,2.5635376-1.5130005,3.8453369c-0.3461304,1.2817688-0.5863037,2.5635376-0.7313538,3.8453064
		c-0.1489258,1.2817688-0.1357117,2.5634155,0.0249939,3.8452148c0.1593933,1.2817688,0.3747253,2.5635376,0.4738159,3.8453064
		c0.2010803,2.5634155,0.4505615,5.1269836,0.7480469,7.6905212c0.1694946,1.4210205,0.3486938,2.8420105,0.5308838,4.2630005
		c-0.2155457,0.0634155-0.4194946,0.1495972-0.6109924,0.2585449c-0.3537598-0.5544434-0.7041626-1.1117554-1.0605164-1.6634827
		c-0.9668274-1.4818115-1.9691162-2.9307861-3.0065918-4.3471069c-0.5197754-0.7070313-0.9544067-1.4932251-1.4300537-2.2412415
		s-1.0557251-1.3993835-1.7592468-1.9363708c-0.6984558-0.5417786-1.4670715-1.0183411-2.3143311-1.4223022
		c-0.8545227-0.3972473-1.7703552-0.7375488-2.8875427-0.8912659l-0.3659363,0.3388672
		c0.067688,1.1258545,0.3369446,2.0650024,0.6676636,2.9474792c0.3378601,0.8756104,0.7541199,1.6784973,1.2410278,2.4162903
		c0.4814758,0.7425842,1.0865173,1.3707886,1.7958679,1.9023438c0.7095947,0.5315552,1.460083,1.0250549,2.1254272,1.5975037
		c1.3326111,1.1427917,2.7006836,2.2528687,4.1040955,3.3303223c0.5592346,0.4250793,1.1239319,0.8452148,1.6865234,1.2670288
		c-0.0917358,0.1972046-0.167572,0.4026794-0.213501,0.6208496c-1.4657593-0.190979-2.9317932-0.3755188-4.3978271-0.552002
		c-2.5630493-0.3004456-5.1263428-0.5526428-7.6896362-0.7566833c-1.2817688-0.1005554-2.5632935-0.3172913-3.8447876-0.4781189
		c-1.2815247-0.1621399-2.5632935-0.1767578-3.8453369-0.0293884c-1.2817688,0.1436462-2.5638123,0.3825073-3.8460999,0.7272034
		c-1.2820435,0.358429-2.5643311,0.7900696-3.8468628,1.508728l-0.0005188,0.4986877
		c1.2808533,0.7214966,2.5622559,1.1558838,3.8435059,1.5172729c1.2813721,0.3475647,2.5628967,0.5892639,3.8445435,0.7357483
		c1.2815247,0.1503296,2.5632935,0.1385803,3.8453369-0.0207214c1.2817688-0.1579895,2.5638123-0.3718872,3.8457031-0.4694519
		c2.5638123-0.1984863,5.1275024-0.4448547,7.6914368-0.7395935c1.4868469-0.1757202,2.9738464-0.355072,4.4607239-0.545929
		c0.0627441,0.2201233,0.1496887,0.4277954,0.2596741,0.623291c-0.6461792,0.4295959-1.2957458,0.8560791-1.9378052,1.2900696
		c-1.4613647,0.9976196-2.8890991,2.0296631-4.2835693,3.0963745c-0.6961365,0.5344238-1.4729004,0.9853516-2.210968,1.4764099
		c-0.7380371,0.4911804-1.3769836,1.0848389-1.899231,1.7993469c-0.5271606,0.7094421-0.987793,1.4880066-1.3739014,2.3433228
		c-0.3793945,0.8625183-0.700531,1.7853699-0.8309631,2.9056702l0.3465271,0.3586731
		c1.1241455-0.091095,2.0573425-0.3799133,2.9328308-0.7287598c0.8683472-0.3560791,1.6624451-0.789032,2.3898926-1.2910767
		c0.7323608-0.4970093,1.3480225-1.1148682,1.864563-1.8353271c0.5165405-0.7203369,0.9942627-1.4810486,1.5528564-2.15802
		c1.1147461-1.3563232,2.1961975-2.7470398,3.2441711-4.172699c0.4668579-0.6412659,0.9277344-1.2885132,1.3899536-1.9346924
		c0.1734924,0.0908203,0.3556824,0.1638184,0.5475769,0.2184143c-0.1922607,1.4864807-0.3771667,2.9729614-0.5545654,4.4592896
		c-0.2974854,2.5635681-0.5469666,5.1269836-0.7480469,7.6905212c-0.0990906,1.2817688-0.3144226,2.5635376-0.4738159,3.8453369
		c-0.1607056,1.2817688-0.1739197,2.5635376-0.0249939,3.8453064c0.14505,1.2817688,0.3852234,2.5635681,0.7313538,3.8453369
		c0.3599548,1.2817688,0.7927856,2.5635376,1.5130005,3.8451843h0.4986877
		c0.7201843-1.2816467,1.1531372-2.5634155,1.5130005-3.8451843c0.3461304-1.2817688,0.5862732-2.5635681,0.7314453-3.8453369
		c0.1488037-1.2817688,0.1357422-2.5635376-0.0250854-3.8453064c-0.1594238-1.2817993-0.3747253-2.5635681-0.4737244-3.8453369
		c-0.2012024-2.5635376-0.4506836-5.1269531-0.7481384-7.6905212c-0.1749573-1.4662781-0.3565063-2.9324341-0.545929-4.3987427
		c0.156311-0.0328674,0.3056335-0.0834656,0.4515991-0.1402588c0.4104309,0.6464539,0.8200989,1.2936707,1.2349243,1.9360046
		c0.9668274,1.4818115,1.9691162,2.9307556,3.0065918,4.3471069c0.5198975,0.7070007,0.9544067,1.4931946,1.4300537,2.2412109
		c0.475647,0.7480469,1.0558472,1.3994141,1.7592468,1.9364014c0.6984558,0.541748,1.4671936,1.0183105,2.3143311,1.4222717
		c0.8545227,0.3971252,1.7703552,0.7375488,2.8876953,0.8912659l0.3659058-0.3388672
		c-0.0676575-1.1258545-0.3370667-2.0650024-0.6676636-2.9474792c-0.3379822-0.8755798-0.7542419-1.6784973-1.2410278-2.4162903
		c-0.4815979-0.7425842-1.0866394-1.3707886-1.7959595-1.9023438c-0.7095947-0.5315552-1.460083-1.0250549-2.1254272-1.5975037
		c-1.3326416-1.1427917-2.7007141-2.2528687-4.104126-3.3303223c-0.5714111-0.4345093-1.1516113-0.8609924-1.7261047-1.2926636
		c0.1731262-0.2497253,0.2978516-0.5311584,0.3866272-0.8291321c1.4213867,0.1845093,2.8427734,0.3597107,4.2643127,0.5310364
		c2.5631409,0.3003235,5.1263123,0.5524902,7.6896057,0.7566833c1.2817688,0.1004028,2.5632935,0.3172607,3.8447876,0.4779663
		c1.2816467,0.162262,2.5632935,0.1767578,3.8453369,0.0292664c1.2818909-0.1436462,2.5638123-0.3822327,3.8460999-0.7269592
		c1.2821655-0.358551,2.5643311-0.7900696,3.8468933-1.508728l0.0005188-0.4986877
		C404.5716248,421.8439636,403.2903748,421.4096069,402.0089722,421.0483398z"/>
	<path class="st22" d="M511.6062317,551.6978149c-1.2813721-0.3476563-2.5627747-0.5892334-3.8445435-0.7357178
		c-1.2815247-0.1503906-2.5632935-0.1387329-3.8451843,0.0206909c-1.2819214,0.1578369-2.5639343,0.3717651-3.8458557,0.4694214
		c-2.5636902,0.1983643-5.1274719,0.4448853-7.6912842,0.739502c-1.4010925,0.1654663-2.8021545,0.3388672-4.2033691,0.5169067
		c-0.0421753-0.1937866-0.1045532-0.3796387-0.1833496-0.5570068c0.53479-0.3572998,1.0716553-0.7125854,1.6039734-1.0723267
		c1.4613647-0.9976196,2.8892212-2.0296631,4.2835693-3.0963745c0.6961365-0.5343628,1.4730225-0.9853516,2.210968-1.4763794
		c0.7380371-0.4911499,1.3771362-1.0848389,1.899231-1.7993164c0.5271606-0.7094727,0.987793-1.4880371,1.3739014-2.3433228
		c0.3793945-0.8626709,0.700531-1.7854004,0.8309631-2.9057007l-0.3464966-0.3587036
		c-1.124176,0.0911255-2.057373,0.3799438-2.9328613,0.7287598c-0.8682251,0.3560791-1.6624451,0.7890625-2.3898926,1.2912598
		c-0.7323608,0.4968262-1.3479004,1.1146851-1.864563,1.835144c-0.5165405,0.7203369-0.9942627,1.4810791-1.5527344,2.1580811
		c-1.1148682,1.3562622-2.1963196,2.7470093-3.2441711,4.1726685c-0.368103,0.5054321-0.7297668,1.0178223-1.0957031,1.5255737
		c-0.2493286-0.1422119-0.5165405-0.2559814-0.8050842-0.3196411c0.1795959-1.4013062,0.3505249-2.8026733,0.5177002-4.2039795
		c0.2974854-2.5635376,0.5469666-5.1271362,0.7481689-7.6905518c0.0989685-1.2817383,0.3143005-2.5635376,0.4736938-3.8452759
		c0.1608582-1.2817993,0.1739197-2.5634766,0.025116-3.8452148c-0.1451721-1.2817993-0.3853455-2.5635376-0.7314758-3.8453369
		c-0.3598328-1.2817993-0.7927856-2.5635376-1.5130005-3.8453369h-0.4986572
		c-0.7202148,1.2817993-1.1530457,2.5635376-1.513031,3.8453369c-0.3460999,1.2817993-0.5862732,2.5635376-0.7313232,3.8453369
		c-0.1489258,1.2817383-0.1357422,2.5634155,0.0249634,3.8452148c0.1594238,1.2817383,0.3747253,2.5635376,0.4738464,3.8452759
		c0.2010803,2.5634155,0.4505615,5.1270142,0.7480469,7.6905518c0.1694946,1.4210205,0.3486938,2.84198,0.5308838,4.2630005
		c-0.2155762,0.0634155-0.4194946,0.1495972-0.6109924,0.2585449c-0.3537598-0.5544434-0.7041626-1.1117554-1.0605164-1.6635132
		c-0.9668274-1.4818115-1.9691162-2.9307861-3.0065918-4.3471069c-0.5197754-0.7070313-0.9544067-1.4932251-1.4300537-2.2412109
		c-0.475647-0.7480469-1.0557251-1.3994141-1.7592468-1.9364014c-0.6984558-0.541748-1.4670715-1.0183105-2.3143311-1.4223022
		c-0.8545227-0.3972168-1.7703552-0.7375488-2.8875427-0.8912354l-0.3659363,0.3388672
		c0.067688,1.1258545,0.3369446,2.0650024,0.6676636,2.9474487c0.3378601,0.8756104,0.7541199,1.6785278,1.2410278,2.4163208
		c0.4814758,0.7425537,1.0865173,1.3707886,1.7958679,1.9023438c0.7095947,0.5315552,1.4600525,1.0250244,2.1253967,1.5974731
		c1.3326416,1.1428223,2.7007141,2.2528687,4.104126,3.3303223c0.5592346,0.4251099,1.1239014,0.8452148,1.6865234,1.2670288
		c-0.0917358,0.1972046-0.167572,0.40271-0.213501,0.6208496c-1.4657898-0.190979-2.9318237-0.3754883-4.3978271-0.552002
		c-2.5630493-0.300415-5.1263428-0.5526123-7.6896362-0.7566528c-1.2817688-0.1005859-2.5632935-0.3173218-3.8447876-0.4781494
		c-1.2815247-0.1621094-2.5632935-0.1767578-3.8453369-0.0293579c-1.2817688,0.1436157-2.5638123,0.3825073-3.8460999,0.7271729
		c-1.2820435,0.3584595-2.5643311,0.7901001-3.8468628,1.508728l-0.0005188,0.4987183
		c1.2808533,0.7214966,2.5622559,1.1558838,3.8435059,1.5172729c1.2813721,0.3475342,2.5628967,0.5892334,3.8445435,0.7357178
		c1.2815247,0.1503296,2.5632935,0.1385498,3.8453369-0.0206909c1.2817688-0.15802,2.5637817-0.3718872,3.8457031-0.4694824
		c2.5638123-0.1984863,5.1274719-0.4448242,7.6914063-0.739563c1.4868774-0.1757202,2.973877-0.3551025,4.4607239-0.5459595
		c0.0627747,0.2200928,0.1497192,0.4277954,0.2597046,0.623291c-0.6461792,0.4296265-1.2957458,0.8560791-1.9378052,1.2901001
		c-1.4613647,0.9976196-2.8890991,2.0296631-4.2835693,3.0963745c-0.6961365,0.5344238-1.4729004,0.9853516-2.210968,1.4763794
		c-0.7380676,0.4911499-1.3770142,1.0848389-1.899231,1.7993774c-0.5271606,0.7094116-0.987793,1.4879761-1.3739014,2.3433228
		c-0.3793945,0.8624878-0.700531,1.7853394-0.8309631,2.9056396l0.3464966,0.3587036
		c1.124176-0.0911255,2.057373-0.3799438,2.9328613-0.7287598c0.8683472-0.3560791,1.6624451-0.7890625,2.3898926-1.2910767
		c0.7323608-0.4970093,1.3480225-1.1148682,1.864563-1.8353271c0.5165405-0.7203369,0.9942627-1.4810791,1.5528564-2.15802
		c1.1147156-1.3563232,2.1961975-2.7470703,3.2441711-4.1727295c0.4668579-0.6412964,0.9277344-1.2885132,1.3899536-1.9346924
		c0.1734924,0.0908203,0.3556824,0.1638184,0.5475769,0.2184448c-0.1922913,1.4864502-0.3771667,2.9729004-0.5545654,4.4592896
		c-0.2974854,2.5635376-0.5469666,5.1269531-0.7480469,7.6904907c-0.0991211,1.2817993-0.3144226,2.5635376-0.4738464,3.8453369
		c-0.1607056,1.2817993-0.1738892,2.5635376-0.0249634,3.8453369c0.14505,1.2817383,0.3852234,2.5635376,0.7313232,3.8453369
		c0.3599854,1.2817383,0.7928162,2.5635376,1.513031,3.8451538h0.4986572
		c0.7202148-1.2816162,1.1531677-2.5634155,1.5130005-3.8451538c0.3461304-1.2817993,0.5863037-2.5635986,0.7314758-3.8453369
		c0.1488037-1.2817993,0.1357422-2.5635376-0.025116-3.8453369c-0.1593933-1.2817993-0.3747253-2.5635376-0.4736938-3.8453369
		c-0.2012024-2.5635376-0.4506836-5.1269531-0.7481689-7.6904907c-0.1749268-1.4663086-0.3564758-2.9324951-0.5458984-4.3987427
		c0.156311-0.0328979,0.3056335-0.0834961,0.4515686-0.1402588c0.4104614,0.6464233,0.8200989,1.2936401,1.2349548,1.9359741
		c0.9668274,1.4818115,1.9691162,2.9307861,3.0065918,4.3471069c0.5198975,0.7070313,0.9544067,1.4932251,1.4300537,2.2412109
		c0.475647,0.7480469,1.0558472,1.3994141,1.7592468,1.9364014c0.6984558,0.541748,1.4671936,1.0183105,2.3143311,1.4223022
		c0.8545227,0.3970947,1.7703552,0.7375488,2.8876648,0.8912354l0.3659363-0.3388672
		c-0.0676575-1.1258545-0.3370667-2.0650024-0.6676636-2.9474487c-0.3379822-0.8756104-0.7542419-1.6785278-1.2410278-2.4163208
		c-0.4815979-0.7425537-1.0866394-1.3707886-1.79599-1.9023438c-0.7095947-0.5315552-1.460083-1.0250244-2.1253967-1.5974731
		c-1.3326416-1.1428223-2.7007141-2.2528687-4.104126-3.3303223c-0.5714111-0.4345093-1.1516113-0.8610229-1.7261047-1.2926636
		c0.1731262-0.2497559,0.2978516-0.531189,0.3866272-0.8291626c1.4213867,0.1845093,2.8427734,0.3597412,4.2642822,0.5310059
		c2.5631714,0.300354,5.1263428,0.5525513,7.6896362,0.7567139c1.2817688,0.1004028,2.5632935,0.3172607,3.8447876,0.4779663
		c1.2816467,0.1622925,2.5632935,0.1767578,3.8453369,0.0292969c1.2818909-0.1436768,2.5638123-0.3822632,3.8460999-0.7269897
		c1.2821655-0.3585205,2.5643311-0.7900391,3.8468628-1.508728l0.0005493-0.4986572
		C514.1688843,552.4934692,512.8876343,552.059082,511.6062317,551.6978149z"/>
	<path class="st22" d="M245.0837097,543.6279907c-1.2813721-0.3476563-2.5627594-0.5892334-3.8445435-0.7357178
		c-1.2815094-0.1503906-2.5632935-0.1387329-3.8451996,0.0206909c-1.2818909,0.1578369-2.5639343,0.3717651-3.8458405,0.4694214
		c-2.5636749,0.1983643-5.1274872,0.4448853-7.6912842,0.739502c-1.4010773,0.1655273-2.8021545,0.3388672-4.2033691,0.5169067
		c-0.0421753-0.1937866-0.104538-0.3796387-0.1833496-0.5570068c0.53479-0.3572388,1.07164-0.7125854,1.6039734-1.0722656
		c1.4613647-0.9976807,2.8892365-2.0297241,4.2835846-3.0964355c0.6961365-0.5343628,1.4730072-0.9852905,2.2109375-1.4763794
		c0.7380676-0.4911499,1.3771515-1.0848389,1.8992462-1.7993164c0.5271606-0.7094727,0.987793-1.4880371,1.3739014-2.3433228
		c0.3793945-0.8626709,0.7005463-1.7854004,0.8309784-2.9057007l-0.3465271-0.3586426
		c-1.124176,0.0910645-2.0573578,0.3798828-2.9328308,0.7286987c-0.8682404,0.3561401-1.6624603,0.7890625-2.3899078,1.2912598
		c-0.7323761,0.4968262-1.3479004,1.1146851-1.864563,1.8352051c-0.5165405,0.7202759-0.9942627,1.4810181-1.5527344,2.15802
		c-1.1148529,1.3562622-2.1963196,2.7470093-3.2441559,4.1726685c-0.3681183,0.5054321-0.7297821,1.0178223-1.0957031,1.5255737
		c-0.2493439-0.1422119-0.5165405-0.2559814-0.8050842-0.3196411c0.1795959-1.4013062,0.3505249-2.8026733,0.5177002-4.2039795
		c0.2974701-2.5635376,0.5469513-5.1270752,0.7481537-7.6905518c0.0989838-1.2817383,0.3143005-2.5635376,0.4737091-3.8452759
		c0.1608429-1.2817993,0.1739044-2.5634155,0.0251007-3.8452148c-0.1451721-1.2817993-0.3853302-2.5635376-0.7314606-3.8453369
		c-0.359848-1.2817383-0.7928009-2.5635376-1.5130005-3.8453369h-0.4986877
		c-0.7201996,1.2817993-1.1530304,2.5635986-1.5130005,3.8453369c-0.3461304,1.2817993-0.5862732,2.5635376-0.7313232,3.8453369
		c-0.148941,1.2817993-0.1357422,2.5634155,0.0249634,3.8452148c0.1594086,1.2817383,0.3747253,2.5635376,0.4738464,3.8452759
		c0.2010803,2.5634766,0.4505463,5.1270142,0.7480164,7.6905518c0.1695099,1.4210205,0.3487244,2.84198,0.5309143,4.2630005
		c-0.2155762,0.0634155-0.4194946,0.1495972-0.6110077,0.2585449c-0.3537598-0.5544434-0.7041626-1.1117554-1.0605011-1.6635132
		c-0.9668427-1.4818115-1.9691162-2.9307861-3.0066071-4.3471069c-0.5197754-0.7070313-0.9544067-1.4932251-1.4300537-2.2412109
		c-0.475647-0.7480469-1.0557251-1.3994141-1.7592316-1.9364014c-0.6984711-0.541748-1.4670715-1.0183105-2.3143463-1.4223022
		c-0.8545074-0.3972168-1.7703705-0.7375488-2.8875427-0.8912354l-0.3659363,0.3388672
		c0.0676727,1.1258545,0.3369446,2.0650024,0.6676788,2.9474487c0.3378448,0.8756104,0.7541046,1.6785278,1.2410126,2.4163208
		c0.4814758,0.7426147,1.0865173,1.3707886,1.7958527,1.9023438c0.7095947,0.5315552,1.460083,1.0250854,2.1254272,1.5974731
		c1.3326263,1.1428223,2.7006989,2.2528687,4.1041107,3.3303833c0.5592346,0.4250488,1.1239166,0.8451538,1.6865234,1.2669678
		c-0.0917511,0.1972046-0.167572,0.40271-0.213501,0.6208496c-1.4657745-0.190979-2.9318085-0.3754883-4.3978424-0.552002
		c-2.5630341-0.300415-5.1263123-0.5526123-7.6896057-0.7566528c-1.2817841-0.1005859-2.5632935-0.3173218-3.8448181-0.4781494
		c-1.2815094-0.1621094-2.5632782-0.1767578-3.8453217-0.0293579c-1.2817688,0.1436157-2.5638123,0.3825073-3.8460999,0.7271729
		c-1.2820282,0.3584595-2.5643158,0.7901001-3.8468781,1.508728l-0.0005188,0.4987183
		c1.2808685,0.7214966,2.5622559,1.1558838,3.8435211,1.5172729c1.2813873,0.3475342,2.5628967,0.5892334,3.8445435,0.7357178
		c1.2815247,0.1503906,2.5632935,0.1386108,3.8453217-0.0206909c1.2817841-0.15802,2.5638123-0.3718872,3.8457184-0.4694214
		c2.5638123-0.1984863,5.1274872-0.4448853,7.6914215-0.739624c1.4868622-0.1757202,2.9738617-0.3551025,4.4607239-0.5458984
		c0.0627594,0.2200928,0.149704,0.4277344,0.2596893,0.62323c-0.6461945,0.4296265-1.2957458,0.8560791-1.9377899,1.2901001
		c-1.46138,0.9976196-2.8891144,2.0296631-4.2835846,3.0963745c-0.6961365,0.5344238-1.4729004,0.9853516-2.2109528,1.4763794
		c-0.7380676,0.4912109-1.3770142,1.0848389-1.8992462,1.7993774c-0.5271454,0.7094727-0.987793,1.4880371-1.3739014,2.3433228
		c-0.3793793,0.8624878-0.7005463,1.7853394-0.8309631,2.9056396l0.3465118,0.3587036
		c1.124176-0.0911255,2.0573578-0.3799438,2.9328461-0.7287598c0.8683624-0.3560791,1.6624451-0.7890625,2.3898926-1.2910767
		c0.7323761-0.4970093,1.3480225-1.1148682,1.864563-1.8353271c0.5165405-0.7203369,0.9942627-1.4810791,1.5528564-2.15802
		c1.1147308-1.3563232,2.1961975-2.7470703,3.2441711-4.1727295c0.4668427-0.6412354,0.9277496-1.2885132,1.3899384-1.9346924
		c0.1735229,0.0908203,0.3557129,0.1638184,0.5475922,0.2184448c-0.192276,1.4864502-0.377182,2.9729614-0.5545807,4.4592896
		c-0.2974701,2.5635376-0.546936,5.1269531-0.7480164,7.6904907c-0.0991211,1.2817993-0.3144379,2.5635986-0.4738464,3.8453369
		c-0.1607056,1.2817993-0.1739044,2.5635376-0.0249634,3.8453369c0.14505,1.2817993,0.3851929,2.5635376,0.7313232,3.8453369
		c0.3599701,1.2817383,0.7928009,2.5635376,1.5130005,3.8451538h0.4986877
		c0.7201996-1.2816162,1.1531525-2.5634155,1.5130005-3.8451538c0.3461304-1.2817993,0.5862885-2.5635376,0.7314606-3.8453369
		c0.1488037-1.2817993,0.1357422-2.5635376-0.0251007-3.8453369c-0.1594086-1.2817383-0.3747253-2.5635376-0.4737091-3.8453369
		c-0.2012024-2.5635376-0.4506836-5.1269531-0.7481537-7.6904907c-0.174942-1.4663086-0.3564758-2.9324341-0.5459137-4.3987427
		c0.156311-0.0328979,0.3056335-0.0834351,0.4515839-0.1402588c0.4104309,0.6464233,0.8200989,1.2936401,1.2349396,1.9359741
		c0.9668274,1.4818115,1.9691162,2.9307861,3.0065918,4.3471069c0.5198975,0.7070313,0.9544067,1.4932251,1.4300537,2.241272
		c0.4756622,0.7479858,1.0558624,1.399353,1.7592468,1.9363403c0.6984558,0.5418091,1.4671936,1.0183105,2.3143311,1.4223022
		c0.8545227,0.3970947,1.7703705,0.7375488,2.8876801,0.8912964l0.365921-0.3389282
		c-0.0676727-1.1258545-0.3370667-2.0650024-0.6676636-2.9474487c-0.3379822-0.8756104-0.7542419-1.6784668-1.2410126-2.4163208
		c-0.4816132-0.7425537-1.0866547-1.3707886-1.79599-1.9023438c-0.7095947-0.5315552-1.460083-1.0250244-2.1254272-1.5974731
		c-1.3326263-1.1428223-2.7006989-2.2528687-4.1041107-3.3303223c-0.5713959-0.4345093-1.1515961-0.8610229-1.7261047-1.2926636
		c0.1731262-0.2497559,0.2978668-0.5311279,0.3866272-0.8291626c1.4213867,0.1845093,2.8427734,0.3597412,4.2642975,0.5310669
		c2.5631561,0.300293,5.1263275,0.5524902,7.689621,0.7566528c1.2817688,0.1004028,2.5632782,0.3173218,3.8448029,0.4780273
		c1.2816467,0.1622314,2.5632935,0.1766968,3.8453217,0.0292358c1.2819061-0.1436768,2.5638123-0.3822632,3.8460999-0.7269287
		c1.2821655-0.3585815,2.5643311-0.7901001,3.8468781-1.508728l0.0005188-0.4987183
		C247.6463623,544.423645,246.365097,543.9892578,245.0837097,543.6279907z"/>
	<path class="st22" d="M374.9605713,551.1035156c-1.2813721-0.3477173-2.5627747-0.5892944-3.8445435-0.7357788
		c-1.2814941-0.1503296-2.5632935-0.1386719-3.8451843,0.020752c-1.2819214,0.1578369-2.5639343,0.3717041-3.8458557,0.4694214
		c-2.5636597,0.1983643-5.1274719,0.4448242-7.6912842,0.739502c-1.401062,0.1654663-2.8021545,0.3388672-4.2033691,0.5169067
		c-0.0421753-0.1938477-0.1045532-0.3796387-0.1833496-0.5570679c0.53479-0.3572388,1.0716553-0.7125244,1.6039734-1.0722656
		c1.4613647-0.9976196,2.8892212-2.0296631,4.2835693-3.0963745c0.696167-0.5344238,1.4730225-0.9853516,2.210968-1.4763794
		c0.7380676-0.4912109,1.3771362-1.0848389,1.899231-1.7993774c0.5271606-0.7094727,0.987793-1.4880371,1.3739014-2.3433228
		c0.3793945-0.8626709,0.7005615-1.7853394,0.8309631-2.9056396l-0.3464966-0.3587036
		c-1.124176,0.0911255-2.057373,0.3798828-2.9328308,0.7287598c-0.8682556,0.3560791-1.6624756,0.7890625-2.3899231,1.2911987
		c-0.7323608,0.4968872-1.3479004,1.1147461-1.864563,1.8352051c-0.5165405,0.7203369-0.9942627,1.4810181-1.5527344,2.15802
		c-1.1148376,1.3563232-2.1963196,2.7470093-3.2441406,4.1727295c-0.3681335,0.5053711-0.7297974,1.0177612-1.0957031,1.5255127
		c-0.2493591-0.1422119-0.5165405-0.2559204-0.8050842-0.3195801c0.1795959-1.4013672,0.3505249-2.8026733,0.5177002-4.2040405
		c0.2974548-2.5635376,0.546936-5.1270752,0.7481384-7.6904907c0.098999-1.2817993,0.3143005-2.5635376,0.4737244-3.8453369
		c0.1608276-1.2817383,0.1738892-2.5634155,0.0250854-3.8452148c-0.1451721-1.2817383-0.3853149-2.5635376-0.7314453-3.8452759
		c-0.3598633-1.2817993-0.7928162-2.5635986-1.5130005-3.8453369h-0.4986877
		c-0.7202148,1.2817383-1.1530457,2.5635376-1.5130005,3.8453369c-0.3461304,1.2817383-0.5863037,2.5635376-0.7313538,3.8452759
		c-0.1489258,1.2817993-0.1357117,2.5634766,0.0249939,3.8452148c0.1593933,1.2817993,0.3747253,2.5635376,0.4738464,3.8453369
		c0.2010498,2.5634155,0.450531,5.1269531,0.7480164,7.6904907c0.1694946,1.4210205,0.3487244,2.842041,0.5308838,4.2630615
		c-0.2155457,0.0633545-0.4194946,0.1495361-0.6109924,0.2584839c-0.3537598-0.5544434-0.7041626-1.1117554-1.0605164-1.6634521
		c-0.9668274-1.4818115-1.9690857-2.9307861-3.0065918-4.3471069c-0.5197754-0.7070313-0.9544067-1.4932251-1.4300537-2.241272
		c-0.475647-0.7479858-1.0557251-1.399353-1.7592468-1.9363403c-0.6984558-0.5418091-1.467041-1.0183716-2.3143311-1.4223022
		c-0.8545227-0.3972778-1.7703552-0.7375488-2.8875427-0.8912964l-0.3659363,0.3389282
		c0.067688,1.1258545,0.3369446,2.0649414,0.6676941,2.9474487c0.3378296,0.8756104,0.7540894,1.6784668,1.2409973,2.4162598
		c0.4814758,0.7426147,1.0865173,1.3708496,1.7958679,1.9023438c0.7095947,0.5315552,1.460083,1.0250854,2.1254272,1.5975342
		c1.3326111,1.1428223,2.7006836,2.2528687,4.1040955,3.3303223c0.5592346,0.4250488,1.1239319,0.8452148,1.6865234,1.2670288
		c-0.0917358,0.1972046-0.167572,0.4026489-0.213501,0.6208496c-1.4657593-0.190979-2.9317932-0.3755493-4.3978271-0.552002
		c-2.5630493-0.3004761-5.1263428-0.5526733-7.6896057-0.7567139c-1.2817993-0.1005249-2.5632935-0.3172607-3.8448181-0.4780884
		c-1.2815247-0.1621704-2.5632935-0.1767578-3.8453369-0.0293579c-1.2817688,0.1436157-2.5638123,0.3824463-3.8460999,0.7271729
		c-1.2820129,0.3583984-2.5643311,0.7900391-3.8468628,1.508728l-0.0005188,0.4986572
		c1.2808533,0.7214966,2.5622559,1.1558838,3.8435059,1.5172729c1.2814026,0.3475952,2.5628967,0.5892944,3.8445435,0.7357788
		c1.2815247,0.1503296,2.5632935,0.1385498,3.8453369-0.020752c1.2817688-0.157959,2.5638123-0.3718262,3.8457031-0.4694214
		c2.5638123-0.1984863,5.1275024-0.4448242,7.6914368-0.739624c1.4868469-0.1757202,2.9738464-0.3550415,4.4607239-0.5458984
		c0.0627441,0.2200928,0.1496887,0.4277954,0.2596741,0.623291c-0.6461792,0.4295654-1.2957458,0.8560791-1.9378052,1.2900391
		c-1.4613647,0.9976196-2.8890991,2.0296631-4.2835693,3.0964355c-0.6961365,0.5343628-1.4729004,0.9852905-2.2109375,1.4763794
		c-0.7380676,0.4911499-1.3770142,1.0848389-1.8992615,1.7993164c-0.5271301,0.7094727-0.987793,1.4880371-1.3739014,2.3433228
		c-0.379364,0.8625488-0.700531,1.7854004-0.8309631,2.9057007l0.3465271,0.3586426
		c1.124176-0.0910645,2.0573425-0.3798828,2.9328308-0.7287598c0.8683472-0.3560791,1.6624451-0.7890015,2.3898926-1.2910767
		c0.7323914-0.4970093,1.3480225-1.1148682,1.864563-1.8353271c0.5165405-0.7203369,0.9942627-1.4810181,1.5528564-2.15802
		c1.1147461-1.3563232,2.1961975-2.7470093,3.2441711-4.1726685c0.4668579-0.6412964,0.9277649-1.2885132,1.3899536-1.9346924
		c0.1735229,0.0908203,0.3556824,0.1638184,0.5475769,0.2183838c-0.1922607,1.4865112-0.3771667,2.9729614-0.5545654,4.4592896
		c-0.2974854,2.5635986-0.5469666,5.1270142-0.7480164,7.6905518c-0.0991211,1.2817383-0.3144531,2.5635376-0.4738464,3.8453369
		c-0.1607056,1.2817383-0.1739197,2.5635376-0.0249939,3.8452759c0.14505,1.2817993,0.3852234,2.5635986,0.7313538,3.8453369
		c0.3599548,1.2817993,0.7927856,2.5635376,1.5130005,3.8452148h0.4986877
		c0.7201843-1.2816772,1.1531372-2.5634155,1.5130005-3.8452148c0.3461304-1.2817383,0.5862732-2.5635376,0.7314453-3.8453369
		c0.1488037-1.2817383,0.1357422-2.5635376-0.0250854-3.8452759c-0.1594238-1.2817993-0.3747253-2.5635986-0.4737244-3.8453369
		c-0.2012024-2.5635376-0.4506836-5.1269531-0.7481384-7.6905518c-0.1749573-1.4662476-0.3564758-2.9324341-0.545929-4.3987427
		c0.156311-0.0328369,0.3056335-0.0834351,0.4515991-0.1402588c0.4104309,0.6464844,0.8200989,1.2937012,1.2349243,1.9360352
		c0.9668274,1.4818115,1.9691162,2.9307251,3.0065918,4.3471069c0.5198975,0.7069702,0.9544067,1.4931641,1.4300537,2.2412109
		s1.0558777,1.3994141,1.7592468,1.9364014c0.6984558,0.541748,1.4671936,1.0183105,2.3143311,1.4223022
		c0.8545227,0.3970947,1.7703857,0.7374878,2.8876953,0.8912354l0.3659058-0.3388672
		c-0.0676575-1.1258545-0.3370667-2.0650024-0.6676636-2.9474487c-0.3379822-0.8756104-0.7542419-1.6785278-1.2409973-2.4163208
		c-0.4816284-0.7426147-1.0866699-1.3707886-1.79599-1.9023438c-0.7095947-0.5315552-1.460083-1.0250854-2.1254272-1.5975342
		c-1.3326416-1.1427612-2.7007141-2.2528687-4.104126-3.3303223c-0.5713806-0.4345093-1.1515808-0.8609619-1.7261047-1.2926025
		c0.1731262-0.2497559,0.2978516-0.531189,0.3866272-0.8291626c1.4213867,0.1845093,2.8427734,0.3596802,4.2643127,0.5310059
		c2.5631409,0.300354,5.1263123,0.5524902,7.6896057,0.7567139c1.2817688,0.1004028,2.5632935,0.3172607,3.8448181,0.4779663
		c1.2816467,0.1622314,2.5632935,0.1767578,3.8453064,0.0292358c1.2819214-0.1436157,2.5638123-0.3822021,3.8460999-0.7269287
		c1.2821655-0.3585205,2.5643311-0.7901001,3.8468933-1.508728l0.0005188-0.4986572
		C377.5232239,551.8991089,376.2419739,551.4647827,374.9605713,551.1035156z"/>
	<path class="st22" d="M303.1896667,391.4608765c-1.2814026-0.3476868-2.5627747-0.5892639-3.8445435-0.7357483
		c-1.2815247-0.1503601-2.5632935-0.1387024-3.8452148,0.0207214c-1.2818909,0.1578369-2.5639343,0.3717346-3.8458252,0.4694214
		c-2.5636902,0.1983643-5.1275024,0.4448547-7.6913147,0.739502c-1.401062,0.1654968-2.8021545,0.3388672-4.2033386,0.5169067
		c-0.0421753-0.1938171-0.1045532-0.3796387-0.1833496-0.5570374c0.53479-0.3572388,1.0716248-0.7125549,1.6039429-1.0722656
		c1.4613953-0.9976501,2.8892517-2.0296936,4.2835999-3.096405c0.6961365-0.5343933,1.4730225-0.985321,2.2109375-1.4763794
		c0.7380676-0.4911804,1.3771362-1.0848389,1.8992615-1.7993469c0.5271301-0.7094727,0.987793-1.4880371,1.3739014-2.3433228
		c0.379364-0.8626709,0.700531-1.7853699,0.8309631-2.9056702l-0.3465271-0.3586731
		c-1.124176,0.091095-2.0573425,0.3798828-2.9328308,0.7287292c-0.8682251,0.3561096-1.6624451,0.7890625-2.3898926,1.2912292
		c-0.7323914,0.4968567-1.3479004,1.1147156-1.864563,1.8352051c-0.5165405,0.7203064-0.9942627,1.4810181-1.5527344,2.15802
		c-1.1148682,1.3562927-2.1963501,2.7470398-3.2441711,4.172699c-0.3681335,0.5054016-0.7297668,1.0177917-1.0957031,1.5255432
		c-0.2493286-0.1422119-0.5165405-0.2559509-0.8050842-0.3196106c0.1795959-1.4013367,0.3505249-2.8026733,0.5177002-4.20401
		c0.2974854-2.5635376,0.546936-5.1270752,0.7481689-7.6905212c0.0989685-1.2817688,0.3143005-2.5635376,0.4736938-3.8453064
		c0.1608276-1.2817688,0.1739197-2.5634155,0.025116-3.8452148c-0.1452026-1.2817688-0.3853455-2.5635376-0.7314758-3.8453064
		c-0.3598328-1.2817688-0.7927856-2.5635681-1.5130005-3.8453369h-0.4986877
		c-0.7201843,1.2817688-1.1530151,2.5635681-1.5130005,3.8453369c-0.3461304,1.2817688-0.5862732,2.5635376-0.7313232,3.8453064
		c-0.1489258,1.2817993-0.1357422,2.563446,0.0249634,3.8452148c0.1594238,1.2817688,0.3747253,2.5635376,0.4738464,3.8453064
		c0.2010803,2.563446,0.4505615,5.1269836,0.7480164,7.6905212c0.1695251,1.4210205,0.3487244,2.8420105,0.5309143,4.263031
		c-0.2155762,0.063385-0.4194946,0.1495667-0.6109924,0.2585144c-0.3537598-0.5544434-0.7041626-1.1117554-1.0605164-1.6634827
		c-0.9668274-1.4818115-1.9691162-2.9307861-3.0065918-4.3471069c-0.5197754-0.7070313-0.9544067-1.4932251-1.4300537-2.2412415
		c-0.4756775-0.7480164-1.0557251-1.3993835-1.7592468-1.9363708c-0.6984863-0.5417786-1.4670715-1.0183411-2.3143311-1.4223022
		c-0.8545227-0.3972473-1.7703857-0.7375488-2.8875732-0.8912659l-0.3659058,0.3388977
		c0.0676575,1.1258545,0.3369446,2.0649719,0.6676636,2.9474487c0.3378601,0.8756104,0.7541199,1.6784973,1.2410278,2.4162903
		c0.4814758,0.7426147,1.0865173,1.3708191,1.7958374,1.9023438c0.7095947,0.5315552,1.460083,1.0250854,2.1254272,1.5975037
		c1.3326416,1.1428223,2.7007141,2.2528687,4.104126,3.3303528c0.5592346,0.4250488,1.1239014,0.8451843,1.6864929,1.2669983
		c-0.0917358,0.1972046-0.1675415,0.4026794-0.2134705,0.6208496c-1.4657898-0.190979-2.9318237-0.3755188-4.3978577-0.552002
		c-2.5630188-0.3004456-5.1263123-0.5526428-7.6896057-0.7566833c-1.2817688-0.1005554-2.5632935-0.3172913-3.8448181-0.4781189
		c-1.2814941-0.1621399-2.5632782-0.1767578-3.8453217-0.0293579c-1.2817688,0.1436157-2.563797,0.3824768-3.8460999,0.7271729
		c-1.2820282,0.358429-2.5643158,0.7901001-3.8468781,1.508728l-0.0005035,0.4986877
		c1.2808685,0.7214966,2.5622406,1.1558838,3.8435059,1.5172729c1.2813873,0.3475647,2.5628967,0.5892639,3.8445435,0.7357483
		c1.2815247,0.1503601,2.5633087,0.1385803,3.8453217-0.0207214c1.2817688-0.1579895,2.5638123-0.3718567,3.8457336-0.4694214
		c2.5637817-0.1984863,5.1274719-0.4448547,7.6914063-0.739624c1.4868774-0.1757202,2.973877-0.355072,4.4607239-0.5458984
		c0.0627441,0.2200928,0.1497192,0.4277649,0.2597046,0.6232605c-0.6462097,0.4295959-1.2957458,0.8560791-1.9378052,1.2900696
		c-1.4613647,0.9976196-2.8890991,2.0296631-4.2835999,3.096405c-0.6961365,0.5343933-1.4728699,0.985321-2.2109375,1.4763794
		c-0.7380676,0.4911804-1.3770142,1.0848389-1.899231,1.7993469c-0.5271606,0.7094727-0.987793,1.4880371-1.3739014,2.3433228
		c-0.3793945,0.8625183-0.7005615,1.7853699-0.8309937,2.9056702l0.3465271,0.3586731
		c1.124176-0.091095,2.057373-0.3799133,2.9328308-0.7287598c0.8683777-0.3560791,1.6624756-0.789032,2.3899231-1.2910767
		c0.7323608-0.4970093,1.3480225-1.1148682,1.864563-1.8353271c0.5165405-0.7203369,0.9942627-1.4810486,1.5528564-2.15802
		c1.1147156-1.3563232,2.1961975-2.7470398,3.2441406-4.172699c0.4668579-0.6412659,0.9277649-1.2885132,1.3899536-1.9346924
		c0.1735229,0.0908203,0.3557129,0.1638184,0.5476074,0.2184143c-0.1922913,1.4864807-0.3771973,2.9729614-0.5545959,4.4592896
		c-0.2974548,2.5635681-0.546936,5.1269836-0.7480164,7.6905212c-0.0991211,1.2817688-0.3144226,2.5635681-0.4738464,3.8453369
		c-0.1607056,1.2817688-0.1738892,2.5635376-0.0249634,3.8453064c0.14505,1.2817993,0.3851929,2.5635681,0.7313232,3.8453369
		c0.3599854,1.2817688,0.7928162,2.5635376,1.5130005,3.8451843h0.4986877
		c0.7202148-1.2816467,1.1531677-2.5634155,1.5130005-3.8451843c0.3461304-1.2817688,0.5862732-2.5635376,0.7314758-3.8453369
		c0.1488037-1.2817688,0.1357117-2.5635376-0.025116-3.8453064c-0.1593933-1.2817688-0.3747253-2.5635681-0.4736938-3.8453369
		c-0.2012329-2.5635376-0.4506836-5.1269531-0.7481689-7.6905212c-0.1749268-1.4662781-0.3564758-2.9324341-0.5458984-4.3987427
		c0.156311-0.0328674,0.305603-0.0834351,0.4515686-0.1402588c0.4104309,0.6464539,0.8200989,1.2936707,1.2349243,1.9360046
		c0.9668579,1.4818115,1.9691162,2.9307556,3.0066223,4.3471069c0.5198975,0.7070007,0.9544067,1.4931946,1.4300537,2.2412415
		c0.475647,0.7480164,1.0558472,1.3993835,1.7592163,1.9363708c0.6984863,0.5417786,1.4672241,1.0183105,2.3143616,1.4223022
		c0.8544922,0.3970947,1.7703552,0.7375183,2.8876648,0.8912659l0.3659363-0.3388977
		c-0.067688-1.1258545-0.3370667-2.0650024-0.6676636-2.9474487c-0.3379822-0.8756104-0.7542419-1.6784973-1.2410278-2.4163208
		c-0.4815979-0.7425842-1.0866394-1.3707886-1.79599-1.9023438c-0.7095947-0.5315552-1.460083-1.0250549-2.1254272-1.5975037
		c-1.3326111-1.1427917-2.7007141-2.2528687-4.1040955-3.3303223c-0.5714111-0.4345093-1.1516113-0.8609924-1.7261353-1.2926331
		c0.1731567-0.2497559,0.2978821-0.5311584,0.3866272-0.8291626c1.4214172,0.1845093,2.842804,0.3597107,4.2643127,0.5310364
		c2.5631714,0.3003235,5.1263123,0.5524902,7.6896057,0.7566833c1.2817993,0.1004028,2.5632935,0.3172913,3.8448181,0.4779968
		c1.2816467,0.1622314,2.5632935,0.1767273,3.8453369,0.0292358c1.2818909-0.1436462,2.5637817-0.3822327,3.8460999-0.7269287
		c1.2821655-0.358551,2.5643005-0.7901001,3.8468628-1.508728l0.0005188-0.4986877
		C305.7523193,392.2565002,304.4710388,391.8221436,303.1896667,391.4608765z"/>
	<circle class="st23" cx="403.1435547" cy="373.984314" r="11.7726984"/>
	<circle class="st23" cx="324.79422" cy="380.0736389" r="11.7726984"/>
	<circle class="st23" cx="388.12323" cy="513.2269287" r="11.7726984"/>
	<circle class="st23" cx="477.388031" cy="497.6845398" r="11.7726984"/>
	<circle class="st23" cx="385.1462097" cy="236.6361847" r="11.7726984"/>
	<circle class="st19" cx="598.407959" cy="637.1785278" r="11.7726984"/>
	<circle class="st19" cx="205.4434204" cy="683.7280884" r="11.7726984"/>
	<circle class="st19" cx="402.46698" cy="692.3884277" r="11.7726984"/>
	<circle class="st19" cx="115.5920334" cy="636.0960083" r="11.7726984"/>
	<circle class="st19" cx="212.357254" cy="341.2985535" r="11.7726984"/>
	<circle class="st19" cx="495.9845581" cy="300.1617737" r="11.7726984"/>
	<circle class="st23" cx="326.4180603" cy="235.5536346" r="11.7726984"/>
	<circle class="st23" cx="267.1485901" cy="500.2363586" r="11.7726984"/>
</g>
</svg>
