<?xml version="1.0" encoding="utf-8"?>
<!-- Generator: Adobe Illustrator 25.4.1, SVG Export Plug-In . SVG Version: 6.00 Build 0)  -->
<svg version="1.1" id="Layer_1" xmlns="http://www.w3.org/2000/svg" xmlns:xlink="http://www.w3.org/1999/xlink" x="0px" y="0px"
	 viewBox="0 0 714 714" style="enable-background:new 0 0 714 714;" xml:space="preserve">
<g>
	<path style="fill:#D4DF90;" d="M494.7315369,503.7034302c6.5278625,11.3062744-10.3308411,33.2606812-37.6548767,49.0361328
		c-27.3240967,15.7754517-54.7664185,19.3986206-61.294281,8.09198
		c-6.5277405-11.3062744,10.3308716-33.2606812,37.6549683-49.0365295
		C460.7613831,496.0195618,488.2037048,492.3967896,494.7315369,503.7034302z"/>
	<path style="fill:#D4DF90;" d="M300.1013184,247.6108551c6.5278625,11.3066559-10.3308716,33.2606659-37.6548767,49.0365143
		c-27.3240967,15.7754517-54.7664185,19.3981934-61.2942657,8.0919495
		c-6.5277557-11.3066406,10.3308563-33.2610474,37.6549683-49.036499
		C266.1311646,239.9273529,293.5734863,236.3042145,300.1013184,247.6108551z"/>
	<path style="fill:#D4DF90;" d="M564.1640015,309.6035461c-8.2738647-17.7820435-52.4153442-16.2901611-112.5677795,0.569519
		c2.3665161-7.4330444,2.3733521-14.2290955-0.33078-20.0406189
		c-13.1266479-28.2115784-85.0210571-22.5806885-160.5805664,12.5768738
		c-75.5595245,35.157196-126.1713409,86.5281982-113.0445862,114.7397766
		c3.5515137,7.6324768,11.4115295,12.7828064,22.4751282,15.5464783
		c-37.3477783,28.7450562-57.2527161,54.4050598-50.2791138,69.3927612
		c6.9730225,14.9861755,39.4173431,16.2867126,85.4545135,6.2333984
		c-4.9359436,10.1717834-6.0226593,19.4361877-2.4921417,27.0238342
		c13.1266479,28.2111816,85.0210266,22.5806885,160.5805664-12.5769043s126.1713562-86.5281677,113.0445862-114.7397461
		c-2.6896362-5.7804565-7.8502502-10.1380615-15.0006409-13.1138
		C542.9417725,360.1089478,572.4273682,327.3629761,564.1640015,309.6035461z"/>
	<path style="fill:#FFFFFF;" d="M498.6743469,416.6325684c0,3.9437866-3.1971436,7.1408081-7.1409912,7.1408081
		c-3.9439697,0-7.1411133-3.1970215-7.1411133-7.1408081c0-3.9441528,3.1971436-7.1412048,7.1411133-7.1412048
		C495.4772034,409.4913635,498.6743469,412.6884155,498.6743469,416.6325684z"/>
	<path style="fill:#0492A0;" d="M491.5335388,425.73703c-5.0203247,0-9.1048279-4.084137-9.1048279-9.1044617
		s4.0845032-9.1048279,9.1048279-9.1048279s9.1048279,4.0845032,9.1048279,9.1048279S496.5538635,425.73703,491.5335388,425.73703z
		 M491.5335388,411.4550171c-2.85495,0-5.1775513,2.3226013-5.1775513,5.1775513
		c0,2.8545532,2.3226013,5.1771851,5.1775513,5.1771851s5.1775513-2.3226318,5.1775513-5.1771851
		C496.7110901,413.7776184,494.3884888,411.4550171,491.5335388,411.4550171z"/>
	<circle style="fill:#FFFFFF;" cx="447.3267822" cy="526.1287842" r="7.1411166"/>
	<path style="fill:#0492A0;" d="M447.3271179,535.2336426c-5.0202942,0-9.1048279-4.0845337-9.1048279-9.1048584
		c0-5.0202637,4.0845337-9.1047974,9.1048279-9.1047974c5.0203247,0,9.1040955,4.0845337,9.1040955,9.1047974
		C456.4312134,531.1491089,452.3474426,535.2336426,447.3271179,535.2336426z M447.3271179,520.9512329
		c-2.8549194,0-5.1775513,2.3226318-5.1775513,5.1775513c0,2.8549805,2.3226318,5.1776123,5.1775513,5.1776123
		c2.854187,0,5.1768188-2.3226318,5.1768188-5.1776123C452.5039368,523.2738647,450.1813049,520.9512329,447.3271179,520.9512329z"
		/>
	<polygon style="fill:#FFFFFF;" points="454.6438904,455.7826233 459.0094299,463.7648926 466.9915161,468.1305237 
		459.0094299,472.4957886 454.6438904,480.4780579 450.2783508,472.4957886 442.2961731,468.1305237 450.2783508,463.7648926 	"/>
	<path style="fill:#0492A0;" d="M454.6439819,484.5702515l-5.8126831-10.6274414l-10.6274109-5.8122864l10.6274109-5.8122864
		l5.8126831-10.6278076l5.8119202,10.6278076l10.6281738,5.8122864l-10.6281738,5.8122864L454.6439819,484.5702515z
		 M446.3882751,468.1305237l5.3363342,2.9182129l2.9193726,5.3371277l2.9186096-5.3371277l5.3371277-2.9182129l-5.3371277-2.9190063
		l-2.9186096-5.3367004l-2.9193726,5.3367004L446.3882751,468.1305237z"/>
	<polygon style="fill:#FFFFFF;" points="457.4752502,328.5952148 461.8407898,336.5771179 469.8229675,340.942749 
		461.8407898,345.3083801 457.4752502,353.2902832 453.1097107,345.3083801 445.1276245,340.942749 453.1097107,336.5771179 	"/>
	<path style="fill:#0492A0;" d="M457.4751587,357.3824768l-5.8119202-10.6270447l-10.6281738-5.8126831l10.6281738-5.8126831
		l5.8119202-10.6270447l5.8126831,10.6270447l10.6274109,5.8126831l-10.6274109,5.8126831L457.4751587,357.3824768z
		 M449.2194214,340.942749l5.3371277,2.9186096l2.9186096,5.336731l2.9193726-5.336731l5.3363342-2.9186096l-5.3363342-2.9186096
		l-2.9193726-5.336731l-2.9186096,5.336731L449.2194214,340.942749z"/>
	<path style="fill:#FFFFFF;" d="M254.1628265,436.3403015c0,3.5498657-2.8776703,6.4274597-6.4273682,6.4274597
		s-6.4272614-2.877594-6.4272614-6.4274597c0-3.54953,2.8775635-6.4270935,6.4272614-6.4270935
		S254.1628265,432.7907715,254.1628265,436.3403015z"/>
	<path style="fill:#0492A0;" d="M247.7355652,444.7313843c-4.6268311,0-8.3907166-3.7642822-8.3907166-8.3910828
		c0-4.6268311,3.7638855-8.3907166,8.3907166-8.3907166c4.6268158,0,8.3907166,3.7638855,8.3907166,8.3907166
		C256.1262817,440.9671021,252.362381,444.7313843,247.7355652,444.7313843z M247.7355652,431.8768616
		c-2.4614563,0-4.4634399,2.0023499-4.4634399,4.4634399c0,2.4614258,2.0019836,4.4638062,4.4634399,4.4638062
		c2.461441,0,4.4634399-2.0023804,4.4634399-4.4638062C252.1990051,433.8792114,250.1970062,431.8768616,247.7355652,431.8768616z"
		/>
	<path style="fill:#FFFFFF;" d="M236.9553986,292.9244995c0,3.5498962-2.8776703,6.4274597-6.4273682,6.4274597
		s-6.4273682-2.8775635-6.4273682-6.4274597c0-3.5494995,2.8776703-6.427063,6.4273682-6.427063
		S236.9553986,289.375,236.9553986,292.9244995z"/>
	<path style="fill:#0492A0;" d="M230.5284119,301.3156128c-4.6268311,0-8.3914795-3.7642822-8.3914795-8.3911133
		s3.7646484-8.3907166,8.3914795-8.3907166c4.6268158,0,8.3907166,3.7638855,8.3907166,8.3907166
		S235.1552277,301.3156128,230.5284119,301.3156128z M230.5284119,288.4610596
		c-2.4614563,0-4.4642029,2.0023804-4.4642029,4.4634399c0,2.4614563,2.0027466,4.4638367,4.4642029,4.4638367
		s4.4634399-2.0023804,4.4634399-4.4638367C234.9918518,290.4634399,232.9898682,288.4610596,230.5284119,288.4610596z"/>
	<path style="fill:#FFFFFF;" d="M486.8962708,252.3581085c0,3.5498962-2.8775635,6.427475-6.4273682,6.427475
		c-3.5497131,0-6.4272766-2.8775787-6.4272766-6.427475c0-3.5494995,2.8775635-6.4270782,6.4272766-6.4270782
		C484.0187073,245.9310303,486.8962708,248.808609,486.8962708,252.3581085z"/>
	<path style="fill:#0492A0;" d="M480.4689026,260.7492065c-4.6268311,0-8.3907166-3.7642822-8.3907166-8.391098
		s3.7638855-8.3907166,8.3907166-8.3907166s8.3907166,3.7639008,8.3907166,8.3907166
		S485.0957336,260.7492065,480.4689026,260.7492065z M480.4689026,247.8946686
		c-2.4614563,0-4.4634399,2.0023804-4.4634399,4.4634399c0,2.4614563,2.0019836,4.4638214,4.4634399,4.4638214
		s4.4634399-2.0023651,4.4634399-4.4638214C484.9323425,249.897049,482.9303589,247.8946686,480.4689026,247.8946686z"/>
	<polygon style="fill:#FFFFFF;" points="250.9121857,507.8911438 254.8414764,515.0753174 262.0257263,519.0044556 
		254.8414764,522.9336548 250.9121857,530.1182251 246.9829865,522.9336548 239.798645,519.0044556 246.9829865,515.0753174 	"/>
	<path style="fill:#0492A0;" d="M250.9118958,534.2108154l-5.3754578-9.8305054l-9.8296967-5.3758545l9.8296967-5.3757935
		l5.3754578-9.8297119l5.3762207,9.8292847l9.8297119,5.3762207l-9.8297119,5.3758545L250.9118958,534.2108154z
		 M243.8911285,519.0044556l4.5386047,2.4825439l2.4821625,4.5386353l2.4829254-4.5390015l4.53862-2.4821777l-4.53862-2.4821167
		l-2.4829254-4.5390015l-2.4821625,4.5385742L243.8911285,519.0044556z"/>
	<polygon style="fill:#FFFFFF;" points="223.7719879,358.5253601 227.7012634,365.7095337 234.8855286,369.6387024 
		227.7012634,373.5679016 223.7719879,380.7524414 219.8427887,373.5679016 212.658432,369.6387024 219.8427887,365.7095337 	"/>
	<path style="fill:#0492A0;" d="M223.7722626,384.8450317l-5.3762207-9.8304749l-9.8296967-5.3758545l9.8296967-5.3762207
		l5.3762207-9.8293152l5.375473,9.8297119l9.8296967,5.375824l-9.8296967,5.3758545L223.7722626,384.8450317z
		 M216.7507324,369.6387024l4.5386047,2.4821777l2.4829254,4.5390015l2.4821625-4.5386353l4.53862-2.4825439l-4.53862-2.4825439
		l-2.4821625-4.5386047l-2.4829254,4.5390015L216.7507324,369.6387024z"/>
	<polygon style="fill:#FFFFFF;" points="338.2737732,151.1137543 342.2029724,158.2979126 349.387207,162.2271118 
		342.2029724,166.1562958 338.2737732,173.3408356 334.3444824,166.1562958 327.1602173,162.2271118 334.3444824,158.2979126 	"/>
	<path style="fill:#0492A0;" d="M338.2738647,177.4334106l-5.3762207-9.8304596l-9.8297119-5.3758392l9.8297119-5.376236
		l5.3762207-9.8293152l5.3754578,9.8293152l9.8304749,5.376236l-9.8304749,5.3762207L338.2738647,177.4334106z
		 M331.2523193,162.2271118l4.5386047,2.4821625l2.4829407,4.5389862l2.4821472-4.5389862l4.5393982-2.4821625l-4.5393982-2.4821625
		l-2.4821472-4.5390015l-2.4829407,4.5390015L331.2523193,162.2271118z"/>
	<polygon style="fill:#FFFFFF;" points="267.6098328,202.8030853 271.539032,209.9872437 278.7233582,213.9164429 
		271.539032,217.8456268 267.6098328,225.0301666 263.680542,217.8456268 256.4962769,213.9164429 263.680542,209.9872437 	"/>
	<path style="fill:#0492A0;" d="M267.6097412,229.1227417l-5.3754578-9.8300781l-9.8304749-5.3762207l9.8304749-5.376236
		l5.3754578-9.8293152l5.3762207,9.8293152l9.8296814,5.376236l-9.8296814,5.3758392L267.6097412,229.1227417z
		 M260.5881958,213.9164429l4.5393677,2.4821625l2.4821777,4.5389862l2.4829102-4.5389862l4.5386047-2.4821625l-4.5386047-2.4821625
		l-2.4829102-4.5390015l-2.4821777,4.5390015L260.5881958,213.9164429z"/>
	<path style="fill:#FFFFFF;" d="M413.2258911,554.9812622h-132.074646c-5.6267395,0-10.1880798-4.5612793-10.1880798-10.1879272
		V255.3139191h152.4508057V544.793335C423.4139709,550.4199829,418.8526611,554.9812622,413.2258911,554.9812622z"/>
	<path style="fill:#0492A0;" d="M413.2257996,556.9448853h-132.074646c-6.7001343,0-12.1515503-5.4509888-12.1515503-12.1515503
		V253.3502808h156.3777466V544.793335C425.3773499,551.4938965,419.9259338,556.9448853,413.2257996,556.9448853z
		 M272.9268799,257.2775574V544.793335c0,4.53479,3.6895142,8.2243042,8.2242737,8.2243042h132.074646
		c4.5347595,0,8.2242737-3.6895142,8.2242737-8.2243042V257.2775574H272.9268799z"/>
	<path style="fill:#EEB225;" d="M443.7474365,225.5605774c-21.479126-17.9584656-51.0913391-19.0526581-71.1786499-4.1811676
		c-4.9907837,3.69487-5.5264587,10.9334869-1.1196899,14.617981l74.8336182,62.5668182
		c4.4067688,3.6845093,11.4359741,1.8750305,14.188324-3.6914062
		C471.5491943,272.4689026,465.226532,243.5190582,443.7474365,225.5605774z"/>
	<path style="fill:#F4C750;" d="M438.323822,232.0475006c-21.4790955-17.9584808-49.2807007-21.2184296-66.9451904-9.2448273
		c-4.3887634,2.9749908-4.3363037,9.5102234,0.0704651,13.1947174l74.8336182,62.5668182
		c4.4067688,3.6845093,10.8478394,2.5784302,12.9982605-2.2677612
		C467.9362183,276.7900696,459.8030396,250.0059662,438.323822,232.0475006z"/>
	<polygon style="fill:#E5B630;" points="461.2820129,270.2348938 416.7242737,263.6286926 450.932251,246.3275909 
		449.51474,243.5240326 409.4039917,263.8097229 427.9316101,224.0119171 425.0827942,222.6856995 409.0238953,257.1816711 
		400.5741272,213.882309 397.4906006,214.484436 407.3218384,264.8624878 406.4842224,265.2862854 407.4319153,265.4266663 
		407.7920227,267.2721863 408.5724182,265.5957947 460.8217773,273.3429565 	"/>
	<path style="fill:#EFC86E;" d="M356.8123169,254.0053406l-52.6653137-103.8983307
		c-1.1681824-2.3049774-4.2983093-3.418335-7.0805054-2.5189819l-4.788269,1.5478973
		c-2.925415,0.9457703-4.3338013,3.7420349-3.1054993,6.1655273l50.0322266,98.7038879H356.8123169z"/>
	<path style="fill:#EEB225;" d="M346.4021606,253.351059l-50.0322266-98.7039032
		c-1.2283325-2.4234772,0.1802673-5.2197418,3.1055908-6.1655121l2.1143494-0.6834412
		c-1.3569946-0.5875549-2.9920654-0.705307-4.5233765-0.2101746l-4.788269,1.5478973
		c-2.9253235,0.9457703-4.3338013,3.7420349-3.1054993,6.1655273l50.032135,98.7038879h17.6074524l-0.331665-0.6542816H346.4021606z
		"/>
	<polygon style="fill:#85A03C;" points="358.7196655,255.9682159 379.0778503,195.095047 367.0892944,189.6152649 
		344.8985596,255.9682159 	"/>
	<path style="fill:#577535;" d="M407.3760071,197.7037659c0,0-5.1496582-4.0883636-12.2442627-6.4082947
		c7.0674744-7.6946259,8.8383789-18.7281952,8.8383789-18.7281952s-3.7304382-1.0270691-8.8227539-1.2153931
		c5.2786255-11.0485229,0.7897644-24.7648468,0.7897644-24.7648468s-15.4728394,3.2415314-21.9793091,14.5063782
		c-4.0155945,6.9524994-3.6764526,15.3321075-2.8289795,20.7321014c-0.4476624,0.6151733-0.868103,1.2399445-1.2621765,1.8692932
		c-0.818634-13.7301178-11.7237244-24.6087494-11.7237244-24.6087494s-11.7773132,11.7415619-11.7773132,26.2253113
		c0,4.805542,1.2991943,9.3050385,3.0318298,13.1782379c-7.6929932-6.4573822-18.0471497-8.0344391-18.0471497-8.0344391
		s-4.0832825,15.2726593,3.0379028,26.159729c7.1211548,10.8863068,22.7499084,13.2645416,22.7499084,13.2645416
		s0.5479431-2.056839,0.8922729-5.1929016c3.0548401,2.0411072,6.6470337,3.7282257,10.6432495,4.3257599
		c12.8656616,1.9248962,25.0378113-8.1625366,25.0378113-8.1625366s-2.5429382-3.8601532-6.9085999-7.7111053
		C399.2486572,210.6127625,407.3760071,197.7037659,407.3760071,197.7037659z"/>
	<path style="fill:#B4BF75;" d="M342.9379883,265.123291c-11.5626526,8.9713745-26.5028992,9.0695496-33.3699646,0.2193909
		c-6.8670654-8.8505859-3.0606079-23.2982788,8.5021362-32.2696533c11.5626526-8.9713745,26.5028687-9.0695496,33.369873-0.2189789
		C358.3070984,241.7042236,354.5006409,256.1519165,342.9379883,265.123291z"/>
	<path style="fill:#ACB742;" d="M351.440033,232.8540497c-0.6464539-0.8334045-1.3646851-1.5870209-2.1446838-2.261261
		c5.2498779,8.9130859,1.2349548,22.1756897-9.6289062,30.6047516c-10.4741211,8.1268616-23.7196655,8.9721375-31.2252197,2.4806519
		c0.3377075,0.5733643,0.7118225,1.1294556,1.1268005,1.6644897c6.8670654,8.8505554,21.8072205,8.7519836,33.3699646-0.2193909
		C354.5006409,256.1515503,358.3070984,241.7042236,351.440033,232.8540497z"/>
	<path style="fill:#919637;" d="M319.7967834,257.2867737c2.21521,2.8553162,2.5065918,6.3369446,0.6508179,7.7767029
		c-1.8557739,1.4397278-5.1558838,0.2926025-7.3710022-2.5623169c-2.2152405-2.85495-2.5066223-6.3365784-0.6508484-7.7763214
		C314.2814331,253.2846985,317.5816345,254.4318237,319.7967834,257.2867737z"/>
	<path style="fill:#A04730;" d="M295.1720886,284.7573853v220.2120667c0,12.0506897,9.1612244,21.8190002,20.4624023,21.8190002
		h74.0606079c11.3009949,0,20.4623108-9.7683105,20.4623108-21.8190002V284.7573853H295.1720886z"/>
	<path style="fill:#9B3321;" d="M393.8000488,284.7573853v220.2120667c0,12.0506897-9.1614075,21.8190002-20.4622803,21.8190002
		h16.3573303c11.3009949,0,20.4623108-9.7683105,20.4623108-21.8190002V284.7573853H393.8000488z"/>
	<path style="fill:#F1C6BA;" d="M323.9377747,496.2155457c0.9287109-1.8132935,3.5381775-2.3322144,5.8285828-1.1593933
		c2.2904053,1.1731873,3.3942871,3.5939941,2.4655762,5.4072876s-3.5381775,2.3322144-5.8285828,1.1589966
		C324.1129456,500.449646,323.0090637,498.0284424,323.9377747,496.2155457z"/>
	<path style="fill:#F1C6BA;" d="M309.6949768,497.1049194c0.73703-1.4389648,2.8615417-1.8236389,4.7453308-0.8587036
		c1.883667,0.9649353,2.813324,2.9136353,2.0762939,4.3526001c-0.73703,1.4389954-2.8615723,1.8232727-4.7453308,0.8583374
		C309.8876038,500.4925842,308.9579468,498.5439148,309.6949768,497.1049194z"/>
	<path style="fill:#F1C6BA;" d="M332.1469727,509.529541c0.6256409-1.2215271,2.1229248-1.7047729,3.3443298-1.0792236
		c1.2214355,0.6255188,1.7043762,2.1231689,1.0787659,3.344696c-0.6256409,1.2215271-2.1228943,1.7043762-3.3443298,1.0788269
		C332.004303,512.2483521,331.5213623,510.7510681,332.1469727,509.529541z"/>
	<path style="fill:#F1C6BA;" d="M306.6470032,507.3016663c0.6256409-1.2215271,2.1228943-1.7043762,3.3443298-1.0788574
		c1.221344,0.6255188,1.7043762,2.1228027,1.0787659,3.3443298c-0.6256409,1.2214966-2.1230164,1.7047424-3.3443298,1.0788269
		C306.5043335,510.0204468,306.0213928,508.5231934,306.6470032,507.3016663z"/>
	<path style="fill:#F1C6BA;" d="M306.3617554,488.3694153c0.6256409-1.2215271,2.1228943-1.7047424,3.3443298-1.0788574
		c1.2214355,0.6255493,1.7043762,2.1228027,1.0787659,3.3443298c-0.6256409,1.2215271-2.1228943,1.7043762-3.3443298,1.0788574
		S305.736145,489.5909424,306.3617554,488.3694153z"/>
	<path style="fill:#F1C6BA;" d="M317.7850952,507.6376343c0.7369385-1.4389954,2.8615723-1.8232727,4.7452393-0.8583374
		c1.8837585,0.9645691,2.813324,2.9132385,2.0762939,4.3522339c-0.73703,1.4389648-2.8615417,1.8236694-4.7453308,0.8587036
		C317.9776306,511.0252686,317.0480652,509.0769958,317.7850952,507.6376343z"/>
</g>
</svg>
