<?xml version="1.0" encoding="utf-8"?>
<!-- Generator: Adobe Illustrator 26.0.1, SVG Export Plug-In . SVG Version: 6.00 Build 0)  -->
<svg version="1.1" xmlns="http://www.w3.org/2000/svg" xmlns:xlink="http://www.w3.org/1999/xlink" x="0px" y="0px"
	 viewBox="0 0 714 714" style="enable-background:new 0 0 714 714;" xml:space="preserve">
<style type="text/css">
	.st0{fill:#9E5B42;}
	.st1{fill:#C7C25F;}
	.st2{fill:#D1CC6B;}
	.st3{fill:#FFE0C4;}
	.st4{fill:#FFECDB;}
	.st5{fill:#FFF3E8;}
	.st6{fill:#E6E18C;}
	.st7{fill:#FFF6ED;}
	.st8{fill:#C7C142;}
	.st9{fill:#FFA959;}
	.st10{fill:#FFC259;}
	.st11{fill:#FFE1AD;}
	.st12{fill:#CFC95F;}
	.st13{fill:#E3DD68;}
	.st14{fill:#FFDF75;}
	.st15{fill:#B3B553;}
	.st16{fill:#FFF6D1;}
	.st17{fill:#FFD3A6;}
	.st18{fill:#F0C8B9;}
	.st19{fill:#B55A38;}
	.st20{fill:#E38A46;}
	.st21{fill:#FFFFFF;}
	.st22{fill:#703823;}
	.st23{fill:#52291A;}
	.st24{fill:#F0A88E;}
	.st25{fill:#A39F4E;}
	.st26{fill:#E39B4F;}
	.st27{fill:#E0AC67;}
	.st28{fill:#6E3723;}
	.st29{fill:#FFCA6E;}
	.st30{fill:#FFE76E;}
	.st31{fill:#FFE2D4;}
	.st32{fill:#FF8C7A;}
	.st33{fill:#FFDD75;}
	.st34{fill:#FF6A57;}
	.st35{fill:#FFCCB3;}
	.st36{fill:#FFD059;}
	.st37{fill:#FFE7B8;}
	.st38{fill:#FF6557;}
	.st39{fill:#FFE359;}
	.st40{fill:#F5CB4C;}
	.st41{fill:#99A33F;}
	.st42{fill:#FFC7B3;}
	.st43{fill:#B5684B;}
	.st44{fill:#E67B53;}
	.st45{fill:#E68C6A;}
	.st46{fill:#D94A4A;}
	.st47{fill:#F25252;}
	.st48{fill:#FF9C9C;}
	.st49{fill:#FF6363;}
	.st50{fill:#B8A83F;}
	.st51{fill:#D6C449;}
	.st52{fill:#FFD4CC;}
	.st53{fill:#FFB2A3;}
	.st54{fill:#DB7263;}
	.st55{fill:#E3AD4F;}
	.st56{fill:#8F523B;}
	.st57{fill:#C44343;}
</style>
<g id="Layer_2">
</g>
<g id="Layer_5">
	<g>
		<path class="st25" d="M385.5227051,509.2224121c-3.3566895-24.7666016-5.336792-55.1552734-5.336792-88.020752
			c0-22.4997559,0.9313354-43.8364258,2.5883789-63.0123291c37.8286438-3.1192627,67.6536865-38.5865479,67.6536865-81.8709717
			c0-16.8765869-4.5362244-32.5682373-12.312561-45.6121826H396.144104l-1.9565125-2.3723145l-2.8764038,2.3723145h-30.2404785
			c0.7287292-3.1363525,1.0334167-6.5600586,0.8213806-10.1256104
			c-0.8381958-14.0944824-19.4789734-30.1311035-19.4789734-30.1311035s-8.0272217,8.7697754-12.6381836,18.8513184
			c-9.8677673-6.4681396-23.2071533-9.4047852-23.2071533-9.4047852s-6.0256958,23.8400879,1.3949585,35.8521729
			c1.0865173,1.7589111,2.2896729,3.3753662,3.5736389,4.8450928c-4.6605225,10.8015137-7.2767334,22.9206543-7.2767334,35.7250977
			c0,43.2810059,29.8285522,78.7462158,67.6536255,81.8704834c1.657135,19.1759033,2.5884399,40.5128174,2.5884399,63.0128174
			c0,32.8654785-1.9801636,63.2541504-5.336792,88.020752c-26.1540527,0.5449219-46.2038879,3.6617432-46.2038879,7.4259033
			c0,4.1479492,24.3479919,7.5106201,54.3827515,7.5106201c30.03479,0,54.3828125-3.3626709,54.3828125-7.5106201
			C431.726593,512.8841553,411.6767578,509.767334,385.5227051,509.2224121z"/>
		<path class="st1" d="M289.0399475,203.8190918c0.9537659,16.0368652,10.7052917,28.503418,21.7805786,27.8447266
			s19.280426-14.1931152,18.3266296-30.2301025c-0.9537354-16.0368652-22.1635132-34.2838135-22.1635132-34.2838135
			S288.0861511,187.7821045,289.0399475,203.8190918z"/>
		<path class="st2" d="M267.7854309,218.6916504c8.4432983,13.6676025,22.9397888,20.0203857,32.3788147,14.1894531
			c9.4390259-5.8310547,10.2462158-21.6379395,1.8029175-35.305542s-35.7689514-19.677124-35.7689514-19.677124
			S259.3421326,205.0240479,267.7854309,218.6916504z"/>
		<path class="st3" d="M356.0344238,529.8549805c-3.8192749-28.1798096-6.0722656-62.7564697-6.0722656-100.1512451
			c0-25.6008301,1.0596313-49.8779297,2.9450684-71.6965332c43.0420532-3.5491943,76.977478-43.9044189,76.977478-93.1541748
			c0-19.2025146-5.161438-37.0566406-14.0094604-51.8983154H277.592041
			c-8.8586121,14.8416748-14.0200195,32.6958008-14.0200195,51.8983154c0,49.2458496,33.9393921,89.5986328,76.977417,93.1535645
			c1.885498,21.8187256,2.9451294,46.0960693,2.9451294,71.6971436c0,37.3947754-2.2530518,71.9714355-6.0722656,100.1512451
			c-29.7585449,0.6199951-52.5715332,4.1665039-52.5715332,8.4493408c0,4.7197266,27.7035217,8.5457764,61.8775635,8.5457764
			s61.8776245-3.8260498,61.8776245-8.5457764C408.605957,534.0214844,385.7929688,530.4749756,356.0344238,529.8549805z"/>
		<path class="st4" d="M422.1004639,266.7912598c0,16.1268311-4.0132446,31.1895752-10.9758301,44.0192871
			c-13.2300415,24.3743896-37.119873,40.6485596-64.3909912,40.6485596c-23.795105,0-45.009491-12.3873291-58.8293762-31.7266846
			v-0.010498c-2.1382446-2.9916992-4.0974731-6.1517334-5.8671265-9.4591064v-0.010498
			c-6.7835083-12.7033691-10.6808777-27.5661621-10.6808777-43.4610596c0-2.0119629,0.0632019-3.9921875,0.1895752-5.9619141
			v-0.0106201c0.1790771-3.0335693,0.5161438-6.0250244,0.9796143-8.9533691
			c1.8539124-11.7132568,5.8565979-22.5942383,11.5341492-32.105957h125.348053
			c7.3208008,12.2819824,11.8607178,26.8392334,12.5875244,42.5340576
			C422.0688477,263.7785645,422.1004639,265.2849121,422.1004639,266.7912598z"/>
		<path class="st1" d="M422.1004639,266.7912598c0,16.1268311-4.0132446,31.1895752-10.9758301,44.0192871
			c-5.2035522,4.4135742-11.3656616,6.6046143-17.6014404,5.6669922
			c-14.1464233-2.1173096-23.2684326-19.5500488-20.361145-38.9211426
			c2.8966675-19.3815918,16.7165527-33.369873,30.8735352-31.2526855
			c8.0369873,1.2008057,14.4519043,7.352417,17.9595947,15.9897461
			C422.0688477,263.7785645,422.1004639,265.2849121,422.1004639,266.7912598z"/>
		
			<rect x="292.312439" y="222.3634033" transform="matrix(0.4037955 -0.9148493 0.9148493 0.4037955 -35.6951828 431.0292053)" class="st5" width="41.0750885" height="41.0750618"/>
		
			<ellipse transform="matrix(0.1480324 -0.9889825 0.9889825 0.1480324 61.4560585 634.1213379)" class="st6" cx="398.7789307" cy="281.3908997" rx="29.0671787" ry="21.2283382"/>
		<path class="st1" d="M308.8658752,319.7113037c-6.3200989,3.3074951-13.7883301,3.0756836-20.9616089,0.0211182v-0.010498
			c-2.1382446-2.9916992-4.0974731-6.1517334-5.8671265-9.4591064v-0.010498
			c-6.7835083-12.7033691-10.6808777-27.5661621-10.6808777-43.4610596c0-2.0119629,0.0632019-3.9921875,0.1895752-5.9619141
			v-0.0106201c0.1790771-3.0335693,0.5161438-6.0250244,0.9796143-8.9533691
			c0.2106934-0.1264648,0.4318542-0.2423096,0.6530762-0.3581543c13.7040405-7.1733398,32.801178,2.2856445,42.6499329,21.1196289
			C325.6877441,291.4605713,322.5698853,312.5379639,308.8658752,319.7113037z"/>
		<path class="st6" d="M305.8427734,313.9389648c-7.1732788,3.760376-16.1161804,2.0223389-23.8056335-3.6761475v-0.010498
			c-6.7835083-12.7033691-10.6808777-27.5661621-10.6808777-43.4610596c0-2.0119629,0.0632019-3.9921875,0.1895752-5.9619141
			v-0.0106201c1.3377686-1.4219971,2.8861694-2.6228027,4.6452332-3.5391846
			c11.3866577-5.961792,27.2605896,1.8961182,35.4450989,17.538208
			C319.8206787,290.470459,317.2294312,307.9875488,305.8427734,313.9389648z"/>
		
			<rect x="342.5791931" y="218.6293182" transform="matrix(0.7714721 -0.6362631 0.6362631 0.7714721 -69.190773 285.6940613)" class="st7" width="41.0750198" height="41.0750961"/>
		
			<rect x="308.6850586" y="291.8751221" transform="matrix(0.4037955 -0.9148493 0.9148493 0.4037955 -89.5265045 487.4508667)" class="st7" width="41.0750885" height="41.0750885"/>
		<path class="st8" d="M351.2025146,302.5194092c-8.2219849,11.5957031-9.368042,24.9093018-2.5598145,29.7366943
			c6.8082275,4.8275146,18.9926758-0.6594238,27.2146606-12.255127s5.861084-34.3925781,5.861084-34.3925781
			S359.4244995,290.9237061,351.2025146,302.5194092z"/>
	</g>
</g>
<g id="Layer_9">
</g>
<g id="Layer_10">
</g>
<g id="Layer_11">
</g>
<g id="Layer_6">
</g>
<g id="Layer_7">
</g>
<g id="Layer_8">
</g>
<g id="Layer_3">
</g>
<g id="Layer_4">
</g>
</svg>
