<svg xmlns="http://www.w3.org/2000/svg" version="1.1" xmlns:xlink="http://www.w3.org/1999/xlink" xmlns:svgjs="http://svgjs.dev/svgjs" width="1440" height="560" preserveAspectRatio="none" viewBox="0 0 1440 560">
    <g mask="url(&quot;#SvgjsMask1001&quot;)" fill="none">
        <rect width="1440" height="560" x="0" y="0" fill="rgba(255, 166, 15, 1)"></rect>
        <path d="M0,554.911C127.44,592.877,272.227,669.191,387.819,603.458C502.543,538.218,500.37,372.658,541.19,247.153C577.264,136.242,640.48,25.184,612.746,-88.1C585.667,-198.708,467.996,-254.939,396.558,-343.619C321.623,-436.641,298.977,-594.921,182.641,-622.018C64.947,-649.431,-23.98,-509.656,-137.415,-467.992C-240.256,-430.219,-358.497,-450.321,-449.778,-389.735C-557.014,-318.56,-666.222,-225.563,-692.5,-99.567C-719.068,27.819,-670.858,168.583,-586.968,268.059C-509.469,359.957,-371.186,356.734,-263.18,409.517C-171.272,454.432,-98.038,525.704,0,554.911" fill="#d88800"></path>
        <path d="M1440 1100.154C1539.488 1086.446 1580.377 964.01 1662.404 906.068 1739.275 851.768 1862.8319999999999 856.521 1904.425 772.096 1945.931 687.849 1884.127 590.678 1862.853 499.203 1843.525 416.095 1836.531 329.01 1785.4769999999999 260.643 1732.306 189.44 1654.537 143.24099999999999 1572.155 109.92200000000003 1483.024 73.87299999999999 1387.878 42.39999999999998 1293.7 61.74599999999998 1195.922 81.832 1110.07 142.04000000000002 1045.4479999999999 218.11900000000003 981.203 293.754 923.846 388.16499999999996 932.463 487.027 940.7629999999999 582.256 1046.632 634.617 1089.209 720.201 1129.6779999999999 801.55 1112.746 906.554 1174.38 973.312 1242.313 1046.893 1340.792 1113.824 1440 1100.154" fill="#ffba45"></path>
    </g>
    <defs>
        <mask id="SvgjsMask1001">
            <rect width="1440" height="560" fill="#ffffff"></rect>
        </mask>
    </defs>
</svg>