<svg xmlns="http://www.w3.org/2000/svg" version="1.1" xmlns:xlink="http://www.w3.org/1999/xlink" xmlns:svgjs="http://svgjs.dev/svgjs" width="1440" height="560" preserveAspectRatio="none" viewBox="0 0 1440 560">
    <g mask="url(&quot;#SvgjsMask1001&quot;)" fill="none">
        <rect width="1440" height="560" x="0" y="0" fill="rgba(196, 90, 101, 1)"></rect>
        <path d="M0,490.635C134.596,506.512,261.675,655.96,383.823,597.241C501.706,540.572,471.422,359.054,523.396,239.027C573.994,122.179,702.474,27.64,685.096,-98.502C667.72,-224.626,532.434,-294.101,438.161,-379.669C354.881,-455.259,271.349,-526.788,167.002,-568.756C54.179,-614.133,-65.516,-652.512,-185.083,-630.336C-310.903,-607.001,-435.543,-546.164,-511.215,-442.97C-584.931,-342.442,-575.35,-208.432,-585.567,-84.192C-595.172,32.604,-615.158,152.137,-569.014,259.86C-522.343,368.814,-439.568,468.52,-329.729,513.068C-225.532,555.327,-111.667,477.462,0,490.635" fill="#a93c48"></path>
        <path d="M1440 965.308C1534.551 957.2529999999999 1630.564 1029.739 1717.6309999999999 992.0029999999999 1806.903 953.3109999999999 1844.746 851.052 1895.351 767.952 1952.63 673.893 2040.634 584.631 2032.592 474.798 2024.476 363.962 1944.115 266.234 1853.866 201.38299999999998 1771.862 142.457 1659.45 170.69799999999998 1563.907 138.01 1461.881 103.10399999999998 1380.556-25.162000000000035 1276.722 3.927000000000021 1173.212 32.924999999999955 1170.339 184.15800000000002 1102.254 267.342 1036.935 347.147 918.214 382.254 886.694 480.447 854.025 582.22 891.637 692.944 934.159 791.01 977.27 890.434 1027.753 1006.742 1130.209 1042.045 1232.87 1077.4189999999999 1331.808 974.525 1440 965.308" fill="#d3848c"></path>
    </g>
    <defs>
        <mask id="SvgjsMask1001">
            <rect width="1440" height="560" fill="#ffffff"></rect>
        </mask>
    </defs>
</svg>