<?xml version="1.0" encoding="utf-8"?>
<!-- Generator: Adobe Illustrator 26.0.1, SVG Export Plug-In . SVG Version: 6.00 Build 0)  -->
<svg version="1.1" xmlns="http://www.w3.org/2000/svg" xmlns:xlink="http://www.w3.org/1999/xlink" x="0px" y="0px"
	 viewBox="0 0 714 714" style="enable-background:new 0 0 714 714;" xml:space="preserve">
<style type="text/css">
	.st0{fill:#9E5B42;}
	.st1{fill:#C7C25F;}
	.st2{fill:#D1CC6B;}
	.st3{fill:#FFE0C4;}
	.st4{fill:#FFECDB;}
	.st5{fill:#FFF3E8;}
	.st6{fill:#E6E18C;}
	.st7{fill:#FFF6ED;}
	.st8{fill:#C7C142;}
	.st9{fill:#FFA959;}
	.st10{fill:#FFC259;}
	.st11{fill:#FFE1AD;}
	.st12{fill:#CFC95F;}
	.st13{fill:#E3DD68;}
	.st14{fill:#FFDF75;}
	.st15{fill:#B3B553;}
	.st16{fill:#FFF6D1;}
	.st17{fill:#FFD3A6;}
	.st18{fill:#F0C8B9;}
	.st19{fill:#B55A38;}
	.st20{fill:#E38A46;}
	.st21{fill:#FFFFFF;}
	.st22{fill:#703823;}
	.st23{fill:#52291A;}
	.st24{fill:#F0A88E;}
	.st25{fill:#A39F4E;}
	.st26{fill:#E39B4F;}
	.st27{fill:#E0AC67;}
	.st28{fill:#6E3723;}
	.st29{fill:#FFCA6E;}
	.st30{fill:#FFE76E;}
	.st31{fill:#FFE2D4;}
	.st32{fill:#FF8C7A;}
	.st33{fill:#FFDD75;}
	.st34{fill:#FF6A57;}
	.st35{fill:#FFCCB3;}
	.st36{fill:#FFD059;}
	.st37{fill:#FFE7B8;}
	.st38{fill:#FF6557;}
	.st39{fill:#FFE359;}
	.st40{fill:#F5CB4C;}
	.st41{fill:#99A33F;}
	.st42{fill:#FFC7B3;}
	.st43{fill:#B5684B;}
	.st44{fill:#E67B53;}
	.st45{fill:#E68C6A;}
	.st46{fill:#D94A4A;}
	.st47{fill:#F25252;}
	.st48{fill:#FF9C9C;}
	.st49{fill:#FF6363;}
	.st50{fill:#B8A83F;}
	.st51{fill:#D6C449;}
	.st52{fill:#FFD4CC;}
	.st53{fill:#FFB2A3;}
	.st54{fill:#DB7263;}
	.st55{fill:#E3AD4F;}
	.st56{fill:#8F523B;}
	.st57{fill:#C44343;}
</style>
<g id="Layer_2">
</g>
<g id="Layer_5">
</g>
<g id="Layer_9">
</g>
<g id="Layer_10">
</g>
<g id="Layer_11">
	<g>
		<path class="st28" d="M339.6584473,543.3552246l3.8050537-199.8984375l80.2607422-112.6829834h-32.1591797
			c-0.5316162-0.661499-1.1166992-1.2748413-1.7388916-1.8508301l32.5411377-47.9038086l-2.1496582-1.4602051l-32.421875,47.7282104
			c-2.7526855-1.8668823-6.0739746-2.9586792-9.6506348-2.9586792c-5.4294434,0-10.2645264,2.5189209-13.420166,6.4453125
			H247.3303223l80.2606201,112.6829834l3.8049316,199.8929443c-32.0422363,0.1759033-57.4348755,2.5975342-57.4348755,5.5606689
			c0,3.0771484,27.3858032,5.5718994,61.1677856,5.5718994c33.7822266,0,61.1677246-2.494751,61.1677246-5.5718994
			C396.2965088,545.9719238,371.3227539,543.5664062,339.6584473,543.3552246z"/>
		<path class="st18" d="M369.6280518,560.5522461l4.3924561-230.7532959l92.6491699-130.0758057H263.0488281l92.6490479,130.0758057
			l4.392334,230.7469482c-36.9881592,0.2030029-66.3001709,2.9985352-66.3001709,6.4189453
			c0,3.5522461,31.612793,6.4320068,70.6092529,6.4320068s70.6091309-2.8797607,70.6091309-6.4320068
			C435.0084229,563.572876,406.1798096,560.7961426,369.6280518,560.5522461z"/>
		<polygon class="st19" points="445.243042,213.4942627 416.072998,254.4442139 371.6829834,316.7641602 358.0429688,316.7641602 
			316.1729736,257.9841309 284.4830322,213.4942627 		"/>
		<polygon class="st20" points="416.072998,254.4442139 371.6829834,316.7641602 358.0429688,316.7641602 316.1729736,257.9841309 
			347.6629639,280.7042236 351.4530029,263.6442871 358.612915,279.6142578 381.243042,225.4543457 383.1429443,286.3842773 
			400.743042,257.6842041 400.743042,266.6142578 		"/>
		<line class="st21" x1="463.8625488" y1="141.4459229" x2="358.6176758" y2="296.3770752"/>
		
			<rect x="317.5917664" y="217.4115448" transform="matrix(0.5618914 -0.827211 0.827211 0.5618914 -0.9181328 436.089325)" class="st22" width="187.2967072" height="2.9997733"/>
		
			<ellipse transform="matrix(0.9732491 -0.2297523 0.2297523 0.9732491 -37.6673431 100.8055267)" class="st23" cx="414.0551453" cy="212.1575012" rx="19.8745384" ry="19.8746071"/>
		<polygon class="st18" points="422.4876709,220.6954956 382.0946045,286.6686401 386.1793213,286.6686401 427.4801025,220.6955566 
					"/>
		<polygon class="st18" points="296.9213867,218.911438 397.4503174,218.911438 397.4503174,222.4794922 300.5522461,222.4794922 		
			"/>
		<polygon class="st18" points="320.5965576,253.6820679 335.8355713,274.3734741 340.4534912,274.3734741 325.9071045,255.4401245 
					"/>
		<polygon class="st24" points="360.307373,322.9777832 369.7073975,322.9777832 364.8592529,331.8742676 		"/>
		<path class="st24" d="M355.9727783,562.8405762h17.7521973c0,0-2.0352783,3.3170166-8.8657227,3.2790527
			C357.8907471,566.0808105,355.9727783,562.8405762,355.9727783,562.8405762z"/>
		<polygon class="st24" points="360.307373,334.4595947 364.8592529,340.0246582 365.4537354,550.9849854 362.8883057,526.4029541 
					"/>
	</g>
</g>
<g id="Layer_6">
</g>
<g id="Layer_7">
</g>
<g id="Layer_8">
</g>
<g id="Layer_3">
</g>
<g id="Layer_4">
</g>
</svg>
