<?xml version="1.0" encoding="utf-8"?>
<!-- Generator: Adobe Illustrator 26.2.1, SVG Export Plug-In . SVG Version: 6.00 Build 0)  -->
<svg version="1.1" xmlns="http://www.w3.org/2000/svg" xmlns:xlink="http://www.w3.org/1999/xlink" x="0px" y="0px"
	 viewBox="0 0 714 714" style="enable-background:new 0 0 714 714;" xml:space="preserve">
<style type="text/css">
	.st0{fill:#FF9B47;}
	.st1{fill:#FFF5F5;}
	.st2{fill:#32322B;}
	.st3{fill:#FDDA72;}
	.st4{fill:#FCC9C8;}
	.st5{fill:#C42B35;}
	.st6{fill:#167272;}
	.st7{fill:#FF8C96;}
	.st8{fill:#7A1A28;}
	.st9{fill:#DCB46C;}
	.st10{fill:#6D4156;}
	.st11{fill:#154743;}
	.st12{fill:#225956;}
	.st13{fill:#317A55;}
	.st14{fill:#3B9363;}
	.st15{fill:#D84A4A;}
	.st16{fill:#F7F4F0;}
	.st17{fill:#697685;}
	.st18{fill:#2A272B;}
	.st19{fill:#CDDCDC;}
	.st20{fill:#E8E2DA;}
	.st21{fill:#FF4F5C;}
	.st22{fill:#2952BE;}
	.st23{fill:#FF7E2D;}
	.st24{fill:#7DF492;}
	.st25{fill:#FF92E2;}
	.st26{fill:#BAB6FA;}
	.st27{fill:#F9BDD4;}
	.st28{fill:#FCD9E6;}
	.st29{fill:#FFF8FE;}
	.st30{fill:#8E1443;}
	.st31{fill:#FFE3EB;}
	.st32{fill:#A71B4A;}
	.st33{fill:#E05A94;}
	.st34{fill:#D34A8C;}
	.st35{fill:#E781AA;}
	.st36{fill:#E573A7;}
	.st37{fill:#FFE9EC;}
	.st38{fill:#E998B6;}
	.st39{fill:#E286AB;}
	.st40{fill:#F4B8CC;}
	.st41{fill:#ED8390;}
	.st42{fill:#BA5F69;}
	.st43{fill:#843D4B;}
	.st44{fill:#FBDFE4;}
	.st45{fill:#FCF5E6;}
</style>
<g id="Layer_4">
</g>
<g id="Layer_3">
</g>
<g id="Layer_2">
</g>
<g id="Layer_1">
	<g>
		<path class="st41" d="M593.18927,359.3603821h-21.4573975l-28.5394897,223.4544983l-5.8944092,46.1672974l-1.8427734,14.3973999
			l-3.3856201,26.5414429l-0.2775269,2.1646118H181.9686584l-3.2191315-25.2315674l-0.7215576-5.5946655l-1.5652161-12.2772217
			l-5.8944092-46.1672974l-28.5395203-223.4544983h-21.4574203c43.7140579-39.973175,91.3910141-88.7490845,139.0346375-147.3267975
			c38.5522461-47.4104919,70.644043-93.3335495,97.274292-135.6933594
			c25.5424194,42.2487717,57.1457214,88.7490768,96.1309204,136.8367615
			C501.1877747,272.6094055,549.6084595,320.8857727,593.18927,359.3603821z"/>
		<polygon class="st42" points="537.2979736,628.9821777 531.7920532,672.0856323 181.9686584,672.0856323 176.4627533,628.9821777 
					"/>
		<path class="st43" d="M301.4692993,672.0879517c0,0-20.6255493-147.8174438,49.737854-156.362854
			c80.8109436-9.81427,62.317688,156.362854,62.317688,156.362854H301.4692993z"/>
		<path class="st43" d="M518.9012451,491.0469971h-85.9399109v-68.7152405
			c0-21.3787537,17.3308716-38.7096558,38.7096252-38.7096558h8.5206299c21.3787231,0,38.7096558,17.3309021,38.7096558,38.7096558
			V491.0469971z"/>
		<path class="st43" d="M278.818573,491.0469971h-85.9399109v-68.7152405c0-21.3787537,17.3309021-38.7096558,38.7096405-38.7096558
			h8.5206146c21.3787537,0,38.7096558,17.3309021,38.7096558,38.7096558V491.0469971z"/>
		<circle class="st43" cx="356.8803406" cy="258.9480591" r="58.4676781"/>
		<g>
			<path class="st44" d="M607.1572266,339.1548767c2.3242798,13.7089844-6.9048462,26.7065125-20.6138306,29.0307922
				s-26.706543-6.9048462-29.0308228-20.6138306s20.2427368-31.2196655,20.2427368-31.2196655
				S604.8329468,325.4458923,607.1572266,339.1548767z"/>
			<path class="st45" d="M582.6925049,308.1296997c2.3242798,13.7089844-6.9048462,26.7065125-20.6138306,29.0307922
				s-26.706543-6.9048767-29.0307617-20.6138611c-2.3242798-13.7089844,20.2426758-31.2196655,20.2426758-31.2196655
				S580.3682251,294.4207153,582.6925049,308.1296997z"/>
			<path class="st44" d="M560.4053955,282.0338135c2.3242798,13.7089844-6.9048462,26.7065125-20.6138306,29.0307922
				s-26.7064819-6.9048462-29.0307922-20.6138306c-2.3242798-13.7090149,20.2427673-31.219696,20.2427673-31.219696
				S558.0811157,268.3248291,560.4053955,282.0338135z"/>
			<path class="st45" d="M532.5216675,255.9379272c2.3242798,13.7089844-6.9048462,26.7065125-20.6138306,29.0307922
				s-26.7065125-6.9048462-29.0307922-20.6138306c-2.3242798-13.7089996,20.2427368-31.2196808,20.2427368-31.2196808
				S530.1973877,242.2289429,532.5216675,255.9379272z"/>
			<path class="st44" d="M507.4362488,229.8420563c2.3242798,13.7089844-6.9048462,26.7065277-20.6138306,29.030777
				c-13.7089844,2.3242798-26.7065125-6.9048462-29.0307922-20.6138306s20.2427368-31.2196655,20.2427368-31.2196655
				S505.111969,216.1330719,507.4362488,229.8420563z"/>
			<path class="st45" d="M485.4104919,197.1872253c2.3242798,13.7089844-6.9048462,26.7065125-20.6138306,29.0307922
				s-26.7065125-6.9048615-29.0307922-20.6138458s20.2427368-31.2196655,20.2427368-31.2196655
				S483.0862122,183.478241,485.4104919,197.1872253z"/>
			<path class="st44" d="M467.7440186,172.8982086c2.3242798,13.7089844-6.9048462,26.7065125-20.6138611,29.0307922
				c-13.7089844,2.3242645-26.7065125-6.9048615-29.0307922-20.6138458
				c-2.3242493-13.7089996,20.2427368-31.2196808,20.2427368-31.2196808S465.4197388,159.189209,467.7440186,172.8982086z"/>
			<path class="st45" d="M445.7947998,146.8023224c2.3242798,13.7089844-6.9048462,26.7065125-20.6138306,29.0307922
				c-13.7090149,2.3242798-26.706543-6.9048615-29.0307922-20.6138458
				c-2.3242798-13.7089844,20.2427063-31.2196732,20.2427063-31.2196732S443.47052,133.093338,445.7947998,146.8023224z"/>
			<path class="st44" d="M424.0879822,115.9543457c2.3242493,13.7089844-6.9048767,26.7065125-20.6138611,29.0307922
				s-26.7065125-6.9048615-29.0307922-20.6138458s20.2427368-31.2196655,20.2427368-31.2196655
				S421.7637024,102.2453613,424.0879822,115.9543457z"/>
			<path class="st45" d="M409.3278198,84.8577118c2.3242798,13.7089844-6.9048767,26.7065125-20.6138611,29.0307922
				c-13.7089844,2.3242722-26.7065125-6.9048615-29.0307922-20.6138458s20.2427368-31.2196693,20.2427368-31.2196693
				S407.00354,71.1487274,409.3278198,84.8577118z"/>
		</g>
		<g>
			<path class="st44" d="M106.8427811,339.1548767c-2.3242722,13.7089844,6.9048615,26.7065125,20.6138458,29.0307922
				s26.7065201-6.9048462,29.0307999-20.6138306c2.3242645-13.7089844-20.2427368-31.2196655-20.2427368-31.2196655
				S109.1670609,325.4458923,106.8427811,339.1548767z"/>
			<path class="st45" d="M131.3074799,308.1296997c-2.3242798,13.7089844,6.9048615,26.7065125,20.6138458,29.0307922
				s26.7065125-6.9048767,29.0307922-20.6138611s-20.2427368-31.2196655-20.2427368-31.2196655
				S133.6317596,294.4207153,131.3074799,308.1296997z"/>
			<path class="st44" d="M153.594574,282.0338135c-2.3242645,13.7089844,6.9048615,26.7065125,20.6138458,29.0307922
				c13.7089996,2.3242798,26.7065277-6.9048462,29.0307922-20.6138306
				c2.3242798-13.7090149-20.2427216-31.219696-20.2427216-31.219696S155.9188538,268.3248291,153.594574,282.0338135z"/>
			<path class="st45" d="M181.4783173,255.9379272c-2.3242645,13.7089844,6.9048615,26.7065125,20.6138458,29.0307922
				c13.7089996,2.3242798,26.7065277-6.9048462,29.0307922-20.6138306
				c2.3242798-13.7089996-20.2427368-31.2196808-20.2427368-31.2196808S183.802597,242.2289429,181.4783173,255.9379272z"/>
			<path class="st44" d="M206.5637512,229.8420563c-2.3242798,13.7089844,6.9048462,26.7065277,20.6138458,29.030777
				c13.7089844,2.3242798,26.7065125-6.9048462,29.030777-20.6138306
				c2.3242798-13.7089844-20.2427216-31.2196655-20.2427216-31.2196655S208.8880157,216.1330719,206.5637512,229.8420563z"/>
			<path class="st45" d="M228.5894928,197.1872253c-2.3242645,13.7089844,6.9048615,26.7065125,20.6138458,29.0307922
				s26.7065125-6.9048615,29.0307922-20.6138458s-20.2427368-31.2196655-20.2427368-31.2196655
				S230.9137726,183.478241,228.5894928,197.1872253z"/>
			<path class="st44" d="M246.2559814,172.8982086c-2.3242798,13.7089844,6.9048615,26.7065125,20.6138611,29.0307922
				c13.7089844,2.3242645,26.7065125-6.9048615,29.0307922-20.6138458
				c2.3242493-13.7089996-20.2427368-31.2196808-20.2427368-31.2196808S248.5802612,159.189209,246.2559814,172.8982086z"/>
			<path class="st45" d="M268.2052002,146.8023224c-2.3242798,13.7089844,6.9048462,26.7065125,20.6138306,29.0307922
				c13.7090149,2.3242798,26.706543-6.9048615,29.0307922-20.6138458
				c2.3242798-13.7089844-20.2427063-31.2196732-20.2427063-31.2196732S270.52948,133.093338,268.2052002,146.8023224z"/>
			<path class="st44" d="M289.9120178,115.9543457c-2.3242493,13.7089844,6.9048767,26.7065125,20.6138611,29.0307922
				s26.7065125-6.9048615,29.0307922-20.6138458s-20.2427368-31.2196655-20.2427368-31.2196655
				S292.2362976,102.2453613,289.9120178,115.9543457z"/>
			<path class="st45" d="M304.6721802,84.8577118c-2.3242798,13.7089844,6.9048767,26.7065125,20.6138611,29.0307922
				c13.7089844,2.3242722,26.7065125-6.9048615,29.0307922-20.6138458s-20.2427368-31.2196693-20.2427368-31.2196693
				S306.99646,71.1487274,304.6721802,84.8577118z"/>
		</g>
		<path class="st44" d="M382.1765442,69.3086929c0,13.9046249-11.2719116,25.1765518-25.1765442,25.1765518
			s-25.1765442-11.2719269-25.1765442-25.1765518S357,41.9120293,357,41.9120293S382.1765442,55.4040718,382.1765442,69.3086929z"/>
		<g>
			<path class="st44" d="M298.4580383,671.9968872c0,0.0332642,0.0111084,0.055481,0,0.0887451h-5.5280457
				c-0.0111084-0.0332642-0.0222473-0.055481-0.0222473-0.0887451c-0.6770935-5.2838745-1.3431702-10.5789185-2.0091858-15.862793
				c-0.2886353-2.2755737-0.57724-4.5623169-0.8658142-6.8378906c-0.1776428-1.3764648-0.3441772-2.8751221-0.8992004-4.1294556
				c-0.2442017-0.5550537-0.5328064-1.043457-0.8769226-1.2987671c0.0333252,0.0333252-0.2220154-0.055481-0.2220154-0.0776978
				c-0.1443176-0.0111084-0.3996277,0-0.5883179,0.0888062c-1.098938,0.5106201-1.831604,2.2090454-2.3311462,3.2302246
				c-3.6742859,7.4818115-5.4614563,15.8405762-5.4614563,24.1549072c0,0.2996826-0.0444031,0.5661011-0.1221008,0.8214111
				h-5.3948669c-2.4865723-4.5623169-2.1091309-9.8017578-1.5429993-14.8192139
				c0.4551086-4.0406494,1.254364-9.2579346-1.7982788-12.5214844c-1.0212402-1.0878296-2.4532471-2.0646973-3.9962463-1.9093018
				c-1.4874268,0.1554565-2.6419373,1.3432007-3.4633789,2.5198364c-2.6086121,3.7409058-4.2736816,8.3920288-5.6945801,12.6990967
				c-1.4985657,4.5623169-2.5975037,9.2689209-3.2080231,14.0310669h-5.5725098
				c0.3330078-5.1617432,0.2109222-10.3901367-0.4995422-15.5297241c-0.3107758-2.2755737-0.732605-4.5512085-1.254364-6.7935181
				c-0.3884888-1.7094727-0.7214966-3.5632935-1.565155-5.128479c-0.4662018-0.8658447-1.021225-1.7539062-1.8316193-1.4208984
				c-1.3653412,0.5661621-2.2089996,2.5753784-2.8750153,3.7520142c-3.7298431,6.7158813-6.0831451,14.1643677-6.937851,21.7792969
				c-0.0555573,0.6327515-0.1110382,1.2543945-0.1887512,1.887146c-0.0110474,0.1776123-0.0332794,0.366333-0.0554962,0.5549927
				c0,0,0,0-0.0111084,0c-0.0221558,0.2442627-0.0554962,0.4884644-0.0887604,0.732666l-0.0333252,0.1665039h-5.3060455
				c-0.0888214-0.2664185-0.1332703-0.5661621-0.1110382-0.8991699c0.1110382-1.465271,0.2552795-2.930542,0.4551544-4.395752
				c0.4328766-8.059021-1.332077-16.1958008-4.950882-23.4111328c-5.1950531,5.6057739-8.9026794,12.4992676-10.6787415,19.9144287
				c-0.0222168,2.7307739-0.4107208,5.4503174-1.2210999,8.0701294c-0.077652,0.2664185-0.1997986,0.5105591-0.3441162,0.7214966
				h-4.7843475c-0.2330627-0.3884888-0.3551483-0.8769531-0.3218842-1.4541626
				c0.1665344-2.6530762,0.5550232-5.2616577,1.1322784-7.8370361c-0.0554962-6.0498047-2.4088745-11.9885864-6.5604858-16.4621582
				c-5.0063629,7.6705322-7.8591461,16.5621338-8.0922852,25.7533569h-5.838913
				c-0.8547668-4.6732788,0.0554962-9.3355713,0.2886353-14.0643921c0.1554108-3.2302856-0.2552948-6.7713623-2.2090149-9.4021606
				c-1.542984-2.0647583-3.9296417-2.7529907-6.2274017-1.7650146l-0.7215576-5.5946655
				c1.5762634-0.4552002,3.2413483-0.5550537,4.9064331-0.2442627c3.4744873,0.6549683,6.2718506,3.3745728,7.7926178,6.4605713
				c0.5439148,1.1100464,0.9546356,2.253418,1.2765198,3.4189453c1.6207123-3.5965576,3.6188049-7.015564,5.994339-10.1792603
				c1.1433868-1.5317993,2.8528595-1.7871704,4.3625183-0.56604c3.9074249,3.1969604,6.8379974,7.4484253,8.6140594,12.1439819
				c2.7196503-5.7944946,6.5493622-11.0783691,11.3225861-15.4520264c1.3209686-1.2098999,3.4078827-1.0212402,4.3625183,0.5661621
				c2.6752167,4.4401855,4.6289215,9.2245483,5.8610687,14.175415c1.4875031-3.9074097,3.3191223-7.9257812,5.9277344-11.0672607
				c1.4763947-1.776062,3.6299133-3.0748291,6.0053711-2.9083862c2.3755493,0.1665649,4.2515411,1.6429443,5.5059204,3.5855713
				c1.2210999,1.8981323,1.7982788,4.1515503,2.3200378,6.3272705c0.466217,1.9204102,0.8436584,3.8630371,1.1655579,5.8167114
				c0.9879608-2.619751,2.0980225-5.2061768,3.3523865-7.7149048c1.0323486-2.0758057,2.2644958-4.2071533,4.0072937-5.7611694
				c4.0295105-3.5744629,9.4465942-3.1636963,13.3428345,0.3995972c2.5531921,2.3310547,3.7298584,5.3948364,4.1627197,8.6362915
				c0.2774963-0.6993408,0.5550232-1.3875732,0.8547668-2.0758667c0.9213562-2.1201782,1.8871155-4.2737427,3.4412231-6.0165405
				c3.2302246-3.5965576,8.5140991-3.2635498,11.0006104,0.9436035c0.9768677,1.6539917,1.4430847,3.5632324,1.6984253,5.43927
				c0.3884888,2.7973633,0.7214966,5.6057739,1.0767212,8.4031372
				C297.0704651,661.0627441,297.7586975,666.524231,298.4580383,671.9968872z"/>
			<path class="st44" d="M535.4552002,643.3795776l-3.3856201,26.5414429
				c-1.2655029-4.4069214-0.1443481-8.8027954,0.7991943-13.3206787c0.6216431-2.9527588,0.7548218-5.9387817-0.8657837-8.6251221
				c-0.6327515-1.043457-1.2432861-1.6207275-2.2423706-1.8093872c-0.055481,0-0.2553101-0.0443726-0.6327515,0.0111084
				c-0.2330322,0.0332642-0.5661011,0.1331787-0.8103027,0.2441406c-0.677124,0.2997437-1.2432861,0.8214722-1.7650146,1.3432007
				c-5.6501465,5.7279053-7.7037964,14.8192749-6.8490601,22.600769c0.0777588,0.7104492-0.1109619,1.2877197-0.4550781,1.7205811
				h-4.4735718c-0.2330322-0.2664185-0.421814-0.5994263-0.5216675-0.987915
				c-0.6771851-2.5531616-0.6993408-5.1618042-0.4663086-7.7814941c0.2220459-2.4643555,0.7327271-5.0618896,0.4663086-7.5373535
				c-0.1665649-1.5096436-0.7437744-3.0415039-1.6429443-4.2736816c-0.8103333-1.098938-1.8648987-1.9203491-3.030426-1.8204956
				c-1.4875183,0.1331787-2.7418213,1.8093872-3.5743713,3.0526733c-1.2433167,1.8537598-2.3422546,3.8185425-3.2746582,5.8499756
				c-1.9425964,4.1627197-3.1192627,8.7583618-3.5299988,13.3317871c0,0.055542-0.0111084,0.1110229-0.0222168,0.1665039h-5.5391541
				c0-0.055481,0.0111084-0.1109619,0.0111084-0.1665039c0.421814-5.3283081,0.3773804-10.6676636-0.1665344-15.9848022
				c-0.2220459-2.2312622-0.3552246-4.6844482-1.1211853-6.8046875c-0.521698-1.4763794-1.2654724-1.7871704-2.6530457-0.9879761
				c-1.8204346,1.0324097-3.3190613,2.8640137-4.5734253,4.5068359c-1.3209839,1.7206421-2.453186,3.5966797-3.4078979,5.5392456
				c-1.5762634,3.2191162-2.564209,6.7158203-2.9638367,10.2790527c-0.0332642,0.6105957-0.0888062,1.2322388-0.1553955,1.8427734
				c0,0.1331787-0.0221558,0.2553101-0.0221558,0.3884888c-0.0111389,0-0.0111389,0-0.0222473,0
				c-0.0222168,0.2442627-0.0443726,0.4995117-0.0776978,0.7437744c-0.0332642,0.2330933-0.0888367,0.4550781-0.1886902,0.6437988
				h-4.8953857c-0.2553101-0.3884888-0.3884888-0.8547363-0.366272-1.3875732
				c0.055481-1.2765503,0.1664734-2.5419922,0.3441162-3.7963867c0.2220154-6.9156494-1.9648438-13.9423218-5.9943542-19.5480957
				c-7.3263245,5.8499756-11.1671448,15.4075928-10.1903076,24.7320557h-5.8388977
				c-1.2655029-4.4846191-0.5328064-8.9803467-0.1997986-13.6869507c0.2331238-3.3191528-0.1109924-6.7825317-2.4754333-9.3578491
				c-0.5106506-0.5550537-0.8769836-0.8769531-1.520752-1.2098999c-0.3330078-0.1776733-0.9213867-0.3441162-1.3432007-0.3330078
				c-1.2987366,0.0443726-2.4865112,0.9989624-3.3634338,2.1645508c-2.6086731,3.4412231-4.1183472,8.0146484-5.1174316,12.1773682
				c-0.3662415,1.5318604-0.6437683,3.0858765-0.8325195,4.651123c0.0444336,1.8648682,0.0444336,3.7297974-0.0111084,5.5946655
				h-5.8388672c-0.0222168-1.9537354,0.0777283-3.918457,0.2996826-5.861084
				c-0.0665894-2.253418-0.1886902-4.5068359-0.4107056-6.7602539c-0.2109375-2.1201782-0.4773254-4.2293091-0.8658142-6.3273315
				c-0.2553711-1.3986206-0.5439148-3.0637207-1.5207825-4.1516113c-1.6762085-1.8760376-4.7732849-0.4884644-6.1830139,1.2432251
				c-2.2312317,2.7529907-2.297821,6.8823853-2.5642395,10.2459106c-0.3330078,4.02948-0.8547668,8.1699829-3.1414795,11.611145
				h-4.8731689c-0.5328064-0.7437134-0.6327515-1.7427979,0.0444641-2.7529297
				c2.8306274-4.1960449,2.2644653-9.6353149,2.9970703-14.4307251c0.6772156-4.3847656,2.5975647-8.847229,6.6936951-11.0117798
				c3.8074951-2.0091553,8.6140442-1.7982788,11.4335632,1.7427979c1.3320923,1.6872559,2.0203247,3.7409058,2.4310303,5.8278198
				c1.2432556-2.7973633,2.8417358-5.4615479,5.0507507-7.2709351c3.7187195-3.0637207,8.5918274-2.819519,12.0774231,0.4440308
				c2.0536499,1.9204102,3.4301147,4.5512085,4.1183472,7.3153076c2.5753174-4.2959595,6.0719604-8.0479126,10.2791443-10.8120117
				c0.9546204-0.621582,2.6085815-0.4550781,3.3634338,0.4329834c3.3634949,3.9851074,5.8056335,8.5363159,7.2819519,13.3650513
				c1.7316895-3.4078369,4.0295105-6.593689,6.749176-9.2578735c3.1192627-3.0526123,8.3143005-5.3282471,11.8665161-1.520752
				c1.3653564,1.4541626,2.04245,3.4411621,2.3866577,5.3726196c0.2663879,1.4541626,0.4661865,2.9194946,0.6437683,4.3847656
				c1.3654175-2.7640381,3.0415344-5.5058594,5.2616577-7.4373779c3.2192078-2.7973022,7.5262146-3.0859375,10.9118958-0.4107666
				c1.3543091,1.0657349,2.4199219,2.4532471,3.2080688,3.9962769c1.6207275-3.1303711,3.7409058-6.1053467,6.5826416-7.9924316
				C528.2287598,639.7718506,532.7134399,640.3491211,535.4552002,643.3795776z"/>
		</g>
		<path class="st45" d="M417.5681763,258.947998c0-33.4632416-27.2245789-60.6878204-60.6878357-60.6878204
			s-60.6878052,27.2245789-60.6878052,60.6878204c0,33.2732544,26.9190979,60.3667908,60.1212769,60.6734314
			c0.8899841,0.493927,2.0837097,0.4769897,2.9915466-0.0471497
			C391.6473389,318.2952576,417.5681763,291.5979919,417.5681763,258.947998z M413.1279297,258.947998
			c0,0.7567749-0.0274963,1.507019-0.057251,2.2566223c-0.0429382-0.0025024-0.0798645-0.0138245-0.1239014-0.0147095
			c-17.1730347-0.3380737-34.3459778-0.676239-51.5190125-1.0143127
			c-0.0709229-11.0108643-0.2702637-22.0209808-0.6047668-33.0273132
			c-0.2468872-8.1252136-0.5709534-16.2478638-0.9594421-24.3674622
			C389.4974365,204.3371735,413.1279297,228.9338989,413.1279297,258.947998z M354.3130798,202.7655182
			c0.9129639,19.0872955,1.4327698,38.1924896,1.5599976,57.3007355c-10.4507446-0.20578-20.9014587-0.4114685-31.3522034-0.6172485
			c-7.9624023-0.1567688-15.9248962-0.3135376-23.8872986-0.4703369c0-0.0102844-0.000824-0.0203857-0.000824-0.0306702
			C300.6327515,228.7939911,324.4858398,204.1128998,354.3130798,202.7655182z M300.9117737,264.5344543
			c18.3279419,0.3608398,36.6557922,0.7217102,54.9837341,1.08255c0.0231018,8.7500916-0.0266418,17.5004578-0.1700745,26.2496948
			c-0.1272278,7.7631531-0.3289185,15.5247498-0.5855713,23.2846985
			C326.8005371,314.2836304,303.6690979,292.3671875,300.9117737,264.5344543z M360.6941528,315.0518188
			c0.541748-16.4360962,0.7901917-32.8809814,0.750061-49.325592c8.8776245,0.1748047,17.7551575,0.3495178,26.632782,0.5243225
			c8.166626,0.1607971,16.3331604,0.3215637,24.4997864,0.4823303
			C408.9448242,292.8385315,387.3371277,313.2574463,360.6941528,315.0518188z"/>
		<g>
			<path class="st45" d="M417.0565796,613.6078491c-2.2645569-42.3597412-11.4669189-71.8207397-27.3629456-87.5613403
				c-10.2902527-10.1791992-23.3222961-14.3973999-38.7520752-12.5214233
				c-13.1985779,1.5985107-24.2103271,8.0368042-32.7356262,19.1262817
				c-13.5537415,17.6165771-20.8468323,46.5224609-21.6904907,85.9295044
				c-0.5993958,27.4072876,2.3310852,50.5964355,2.7196655,53.5047607h116.522644
				C416.0463867,669.3327026,418.632843,643.3573608,417.0565796,613.6078491z M404.657196,669.8655396h-91.9127197
				c-3.0637817-22.345459-5.8944092-44.9906006-3.5632324-67.5358887
				c2.0758057-20.1364136,8.4696655-41.2275391,22.2011414-56.5906982
				c6.3938599-7.1488037,14.6971436-13.2096558,24.2435913-15.1411743
				c9.4465942-1.9204102,18.7600098,1.3320312,25.9087524,7.5706177
				c7.9147339,6.8934326,12.7767029,16.4399414,16.0736084,26.263916
				c3.5854797,10.7231445,5.8721924,21.9458618,7.537262,33.1130371
				c3.4078979,22.9891968,3.4078979,46.5557861-0.0443726,69.5450439
				C404.9680176,668.0117188,404.8125916,668.9442139,404.657196,669.8655396z M411.517334,669.8655396h-4.0738831
				c3.45224-21.6904907,3.9406738-43.8250732,1.365387-65.6487427c-1.3875427-11.7333374-3.5632935-23.444458-6.7824707-34.8225708
				c-2.9416199-10.4345093-7.1265564-20.8356934-14.3752747-29.0501709
				c-6.3938599-7.2486572-15.2188416-12.6546021-25.0539246-13.076416
				c-9.9683533-0.421814-19.4038391,4.1959839-26.9078369,10.4345093
				c-16.2400818,13.5204468-24.5988464,35.0112305-28.0289307,55.3363647
				c-4.0294495,23.9105835-1.5318298,48.2319336,1.6650696,72.0870972c0.210907,1.5762329,0.4329529,3.1636353,0.6438599,4.7399292
				h-6.5382385c-1.6539917-13.7203369-10.2901917-97.3630981,18.2937622-134.5167236
				c7.7704163-10.1015015,17.7830811-15.9626465,29.7495117-17.4168091
				c14.0089417-1.6983643,25.8199463,2.0869141,35.1000061,11.2781982
				C419.9870605,562.289917,412.8827515,655.1350708,411.517334,669.8655396z"/>
			<path class="st45" d="M398.0677795,604.673645c-1.1229248-1.1221924-2.5474854-1.6742554-4.103302-1.8184814
				c-1.321991-0.1225586-2.6729736,0.309082-3.8401489,0.8901978c-1.0016479,0.4987793-1.9448853,1.2601318-2.6470947,2.1318359
				c-0.8320618,1.0328979-1.5625,2.1998291-1.8039551,3.5286255c-0.1170959,0.6444702-0.2080688,1.2944336-0.1368713,1.9473267
				c0.1053467,0.9653931,0.3096313,1.6792603,0.7232666,2.562439c0.27948,0.5966797,1.0464172,1.1067505,1.6585083,1.2752686
				c0.3483276,0.0959473,0.7557678,0.1141968,1.1509094,0.0595093c0.2086792,0.1693726,0.4192505,0.3372803,0.6459656,0.477356
				c1.2569275,0.7769165,2.7190857,0.9085693,4.1400757,0.6303711c0.6652527-0.130188,1.2879028-0.414917,1.869751-0.7697144
				c1.7168579-0.7114258,3.1315308-2.1434937,3.4582214-4.0202637c0.002594-0.0148926,0.0032043-0.0299683,0.0057068-0.0449219
				c0.383667-0.9460449,0.6506348-1.9550171,0.566803-2.9817505
				C399.6357727,607.072876,399.1256104,605.730835,398.0677795,604.673645z"/>
			<path class="st45" d="M323.4558105,589.3862305c0.0128784,22.815918,0.0256653,45.6318359,0.0385437,68.4478149
				c0.0004883,0.8928223,1.3880615,0.8942871,1.3875732,0c-0.0128784-22.815979-0.0256653-45.631897-0.0385437-68.4478149
				C324.8428955,588.4934082,323.4553223,588.4918823,323.4558105,589.3862305z"/>
			<path class="st45" d="M339.3249207,569.7623291c0.0683594-6.8978882,0.2156067-13.7946167,0.43573-20.689209
				c0.0284424-0.8931885-1.3591309-0.8922729-1.3875732,0c-0.7776489,24.3615112-0.6096497,48.7510986,0.5242004,73.098877
				c0.3209534,6.8907471,0.7206116,13.7774658,1.1930542,20.6594238c0.0607605,0.8860474,1.448822,0.8928223,1.3875732,0
				C339.8086853,618.5146484,339.0834045,594.135376,339.3249207,569.7623291z"/>
			<path class="st45" d="M360.9257202,547.1820679c-0.0132141-0.8920288-1.4007874-0.8947144-1.3875732,0
				c0.4030457,27.2685547,0.8060608,54.5371094,1.2091064,81.805603c0.1144409,7.7383423,0.2287903,15.4767456,0.3431702,23.2150879
				c0.0132141,0.8920288,1.4007874,0.8946533,1.3875732,0c-0.4030457-27.2685547-0.8061218-54.5370483-1.2091675-81.805603
				C361.1544495,562.6588135,361.0400696,554.9204712,360.9257202,547.1820679z"/>
			<path class="st45" d="M372.2886963,588.4223022c1.8745728,23.12854,3.7490845,46.2571411,5.6236572,69.3856812
				c0.0716248,0.8839111,1.4598083,0.8916016,1.3875732,0c-1.8745728-23.12854-3.7490845-46.2571411-5.6236572-69.3856812
				C373.6046448,587.5384521,372.2164001,587.5307007,372.2886963,588.4223022z"/>
		</g>
		<g>
			<path class="st44" d="M267.2789612,291.3814392c3.43396-6.8934021,0.0780334-14.8261414-5.9045105-19.032135
				c-6.2960968-4.4264221-15.02771-3.456665-21.255249,0.5721741c-6.0193329,3.8940735-10.5077972,11.002594-9.5270081,18.3693237
				c0.5083466,3.8183899,2.6031799,6.796051,5.2709351,9.4629822c2.2230988,2.2224121,4.8312225,4.3555298,5.3730469,7.6325989
				c1.0587006,6.4034119-4.5562134,12.3755493-10.1151733,14.4957275c-6.1291656,2.3375854-13.5692749,0.953186-17.141449-4.953125
				c-2.848114-4.709137-1.4337158-12.1798706,4.1855469-14.1888123c2.3720703-0.848053,5.704071-0.5128174,6.6442719,2.0887451
				c0.3515778,0.9729309,0.3473663,2.050415-0.2002106,2.8333435c-0.4686432,0.6700745-1.2222443,0.6763-1.9247131,0.5170898
				c-0.9096985-0.2062988-1.138092-0.4938965-1.2742157-1.3101807c-0.2467499-1.4794617-2.076004-2.3059082-3.4137726-1.9382629
				c-1.5690155,0.4311523-2.1856995,1.9299316-1.9382629,3.4137573c0.5543518,3.3239441,3.9057312,5.388031,7.092865,5.4536743
				c3.611557,0.0744019,6.6354828-2.5093994,7.269577-6.0419617c0.65802-3.6655579-0.9701538-7.424469-4.1135254-9.4295959
				c-3.3655396-2.1469421-7.7282562-1.9013367-11.234787-0.2760315c-6.458374,2.9934692-9.5234222,11.2809448-7.5432892,17.9251709
				c2.1980286,7.3755188,9.4108124,12.2807922,16.9446259,12.5884094c7.7255402,0.3154602,15.540863-3.9364319,19.59552-10.4838867
				c1.8923187-3.0558472,3.1086884-6.8530273,2.752243-10.4758911c-0.3837585-3.900116-2.2646942-6.9753418-4.9706726-9.7363892
				c-2.2686157-2.3148193-4.9586029-4.408783-5.6880951-7.7261353c-0.6604462-3.0033569,0.4450073-6.1972046,2.0428162-8.719696
				c3.5650635-5.6283875,11.2005005-8.9865417,17.6472931-6.744751c5.4785309,1.9050598,9.6042633,9.1331787,5.8078156,14.2963867
				c-1.5162354,2.0620422-4.0673828,3.5231934-6.5224762,3.5354614c-2.054657,0.0102844-5.6319275-1.6421204-5.1365204-4.3754578
				c0.1546783-0.8534241,0.9350586-1.7325745,1.7233582-1.7609558c3.561203-0.12854,3.5782013-5.6794128,0-5.550293
				c-3.9639282,0.1429749-7.0047302,3.4073486-7.2736359,7.3112488c-0.259903,3.773407,2.5016937,7.3429565,5.8257599,8.8433838
				C256.5851135,300.824646,264.2583313,297.4450378,267.2789612,291.3814392z"/>
			<path class="st44" d="M236.8199921,332.7471313c-3.9968414,6.120697-11.0372772,10.2407227-18.3444519,10.7026672
				c-7.2073822,0.4556274-13.7712402-2.6846313-20.493042-4.9494019c-2.576828-1.3980713-4.6999817-3.5815125-5.8406067-6.3645935
				c-1.7891998-4.3655701-0.801712-9.3352661,1.9952545-13.020813c0.906723-1.1948242,0.1883392-3.1044312-0.9956207-3.7969055
				c-1.4246368-0.833313-2.8878937-0.202179-3.7969208,0.9955444c-3.9177246,5.1624146-4.6903687,12.3677979-2.1376648,18.2889709
				c0.2468872,0.5726624,0.5314484,1.1271973,0.838028,1.6691589c-3.0947266-0.2736511-6.2297058-0.1001282-9.1864166,0.8778076
				c-3.9049835,1.291626-7.1921387,3.8100586-9.5033722,7.206543c-4.5254669,6.6506653-3.3968506,16.082489,2.9624023,21.1717224
				c7.2623291,5.8118591,18.2141113,3.018158,21.7355499-5.6043701c0.5669556-1.388092-0.6153259-3.0502625-1.9382629-3.4137573
				c-1.5898132-0.4368591-2.8447266,0.5449829-3.4137115,1.9382629c-1.0036163,2.4573669-3.5746918,4.0105286-6.0723267,4.5417786
				c-2.7714081,0.5895081-5.5565186-0.4135437-7.5430908-2.4159241c-4.5695648-4.6060181-3.4776611-11.5987549,1.1322937-15.7071228
				c5.2941742-4.7181396,12.9369965-3.3630371,19.2518005-1.3677979c1.5845947,0.8505859,3.2887726,1.4743652,5.0563049,1.8157043
				c0.0851593,0.0164795,0.1702576,0.0183105,0.2555542,0.0281982c2.9304352,1.063385,5.8654022,2.1208496,8.9072266,2.8179626
				c3.9203644,0.898407,7.8338165,1.1091003,11.8074951,0.4937744c8.1863403-1.2675781,15.6045532-6.1971741,20.1161194-13.1060486
				C243.5711975,332.5490112,238.7676086,329.764679,236.8199921,332.7471313z"/>
			<path class="st44" d="M454.4095459,321.7760925c-6.1931152-5.6187744-14.7752075-7.4938965-22.9459534-6.7314758
				c-2.8789368,0.2686462-5.6829529,0.8241577-8.433136,1.572876c2.4166565-2.7971497,4.5309448-5.8798218,6.2655334-9.236969
				c5.5257568-10.6942444,6.9841309-23.2763062,2.5153198-34.6051331
				c-2.3538513-5.9671021-6.5989075-12.4739075-5.7196655-19.1624298c0.59729-4.5439606,4.2998352-8.2285461,8.5843811-9.5905762
				c4.168396-1.3251038,10.5965576-0.4754944,12.2342529,4.5315552c0.5467834,1.6717224-0.1671448,4.2276154-2.0070801,4.7659149
				c-0.6914368,0.2023163-1.3458557-0.0357056-1.9399719-0.7640381c-0.2077332-0.2546234-0.3438416-0.4937897-0.4312439-0.8158112
				c-0.1244507-0.4586182-0.1177368-0.3345032,0.0827942-0.6945343c1.7412415-3.1266479-3.0543518-5.9223785-4.7925415-2.8013
				c-1.9480896,3.4979401-0.2835388,7.8355713,3.1109314,9.741394c3.6459656,2.0469971,7.8812256,0.4797668,10.115509-2.8523865
				c4.809082-7.171936-1.8238831-15.3674164-9.0901489-16.9016724c-5.9590454-1.2581635-12.314209,0.8836365-16.585144,5.1661987
				c-4.9963379,5.010025-5.8121338,11.9812927-3.8815918,18.5826721c2.0208435,6.9101562,6.1336365,13.0175171,7.1708374,20.2402039
				c0.8474731,5.9012451-0.0443115,11.949707-2.0452271,17.5309448
				c-3.5877075,10.0069885-10.9454346,18.1886902-20.1639099,23.2255554
				c-0.1988525,0.0889587-0.3980408,0.1777954-0.5967407,0.2668152c-0.1749573,0.0783997-0.3318481,0.1798706-0.4725952,0.2984619
				c-1.5934448,0.8160706-3.2330627,1.5494995-4.9212036,2.1730042
				c-13.3619995,4.9355774-28.1765747,4.3610229-41.6434631,0.1497498c-0.684967-0.2141724-1.2860718-0.1630249-1.7900085,0.0518799
				c-0.5039368-0.2149048-1.1050415-0.2660522-1.7900391-0.0518799
				c-13.4668884,4.2112732-28.2814331,4.7858276-41.6434631-0.1497498
				c-1.6881104-0.6235046-3.3277283-1.3569336-4.9212036-2.1730042c-0.1407166-0.1185913-0.2976379-0.2200623-0.4725647-0.2984619
				c-0.1987305-0.0890198-0.3979187-0.1778564-0.5967712-0.2668152
				c-9.2184753-5.0368652-16.5761719-13.2185669-20.1638794-23.2255554
				c-2.000946-5.5812378-2.8927002-11.6296997-2.0452576-17.5309448c1.0372314-7.2226868,5.1500244-13.3300476,7.1708679-20.2402039
				c1.930542-6.6013794,1.1147156-13.5726471-3.8816223-18.5826721c-4.2709045-4.2825623-10.6260986-6.4243622-16.5851135-5.1661987
				c-7.2662659,1.534256-13.899231,9.7297363-9.0901489,16.9016724c2.2342529,3.3321533,6.4695435,4.8993835,10.115509,2.8523865
				c3.3944702-1.9058228,5.059021-6.243454,3.1109314-9.741394c-1.7381897-3.1210785-6.533783-0.3253479-4.7925415,2.8013
				c0.200531,0.3600311,0.2072449,0.2359161,0.0827942,0.6945343c-0.0874023,0.3220215-0.2235413,0.5611877-0.4312439,0.8158112
				c-0.5941467,0.7283325-1.2485657,0.9663544-1.9399719,0.7640381c-1.8399658-0.5382996-2.5538635-3.0941925-2.0071106-4.7659149
				c1.6377258-5.0070496,8.0658875-5.8566589,12.2342834-4.5315552c4.2845459,1.36203,7.9870605,5.0466156,8.5843811,9.5905762
				c0.8792114,6.6885223-3.3658142,13.1953278-5.7196655,19.1624298c-4.468811,11.3288269-3.010437,23.9108887,2.5153198,34.6051331
				c1.7345886,3.3571472,3.848877,6.4398193,6.2655334,9.236969c-2.7502136-0.7487183-5.5541992-1.3042297-8.433136-1.572876
				c-8.1707764-0.7624207-16.7528381,1.1127014-22.9459534,6.7314758
				c-5.5240021,5.0116577-8.7670441,13.052002-6.3422546,20.3807068
				c2.2307587,6.7423401,8.7754517,12.5917358,16.2357483,11.6893311
				c7.8731079-0.952301,14.6390686-9.4081116,11.8721924-17.3336487c-0.4937744-1.4144592-1.8991089-2.3545227-3.4136963-1.9382629
				c-1.3730164,0.3772583-2.4345703,1.9921875-1.9382629,3.4136963c1.5319519,4.3883972-1.9477539,9.3095398-6.5431519,10.2755737
				c-4.9978943,1.0505676-9.6103516-3.4440918-10.9785461-7.9542847c-1.6700134-5.5050354,1.092926-11.0980835,5.1862488-14.7478943
				c4.9050903-4.3735657,11.7929382-5.4988708,18.1496887-5.0275879c8.2497559,0.6116638,16.021698,4.1419983,23.4723816,7.4797363
				c2.3039246,1.2344055,4.7039795,2.3130798,7.1911011,3.2072144c14.1127319,5.0736389,29.9900513,4.4319458,44.1741028-0.00354
				c0.1149902-0.0359497,0.2105103-0.0882568,0.3145142-0.133667c0.1040039,0.0454102,0.1995239,0.0977173,0.3145142,0.133667
				c14.1840515,4.4354858,30.0613708,5.077179,44.1740723,0.00354c2.4871216-0.8941345,4.887207-1.9728088,7.1911316-3.2072144
				c7.4506531-3.337738,15.2226257-6.8680725,23.4723816-7.4797363c6.35672-0.471283,13.2445984,0.6540222,18.1496582,5.0275879
				c4.0933533,3.6498108,6.8562927,9.2428589,5.1862488,14.7478943c-1.3681946,4.5101929-5.9806519,9.0048523-10.9785461,7.9542847
				c-4.5953674-0.9660339-8.0750732-5.8871765-6.5431213-10.2755737c0.4962769-1.4215088-0.5652466-3.036438-1.9382629-3.4136963
				c-1.5146179-0.4162598-2.9199219,0.5238037-3.4136963,1.9382629
				c-2.7669067,7.9255371,3.9990845,16.3813477,11.8721924,17.3336487
				c7.4602966,0.9024048,14.0049744-4.946991,16.2357178-11.6893311
				C463.1765747,334.8280945,459.9335327,326.7877502,454.4095459,321.7760925z"/>
			<path class="st44" d="M489.5852966,329.5643311c7.533783-0.3076172,14.746582-5.2128906,16.9446106-12.5884094
				c1.9801331-6.6442261-1.0848999-14.9317017-7.5432739-17.9251709c-3.5065308-1.6253052-7.8692627-1.8709106-11.2348022,0.2760315
				c-3.1433716,2.005127-4.7715454,5.7640381-4.1135254,9.4295959c0.6340942,3.5325623,3.65802,6.1163635,7.2695923,6.0419617
				c3.1871338-0.0656433,6.5385132-2.1297302,7.092865-5.4536743c0.2474365-1.4838257-0.3692627-2.982605-1.9382629-3.4137573
				c-1.3377686-0.3676453-3.1670227,0.4588013-3.4137878,1.9382629c-0.1361084,0.8162842-0.364502,1.1038818-1.274231,1.3101807
				c-0.7024536,0.1592102-1.4560547,0.1529846-1.9247131-0.5170898c-0.5475769-0.7829285-0.5517578-1.8604126-0.2001953-2.8333435
				c0.9402161-2.6015625,4.2722168-2.9367981,6.6442871-2.0887451c5.6192627,2.0089417,7.0336609,9.4796753,4.1855469,14.1888123
				c-3.5721741,5.906311-11.0122986,7.2907104-17.141449,4.953125c-5.55896-2.1201782-11.1738892-8.0923157-10.1151733-14.4957275
				c0.5418091-3.2770691,3.1499329-5.4101868,5.3730469-7.6325989c2.6677551-2.6669312,4.7625732-5.6445923,5.2709351-9.4629822
				c0.9807739-7.3667297-3.5076904-14.4752502-9.5270386-18.3693237c-6.2275391-4.0288391-14.959137-4.9985962-21.255249-0.5721741
				c-5.9825439,4.2059937-9.3384399,12.1387329-5.90448,19.032135c3.0205994,6.0635986,10.6938477,9.4432068,17.0018921,6.5959167
				c3.3240662-1.5004272,6.0856628-5.0699768,5.8257446-8.8433838c-0.2688904-3.9039001-3.3096924-7.1682739-7.2736206-7.3112488
				c-3.5782166-0.1291199-3.5612183,5.4217529,0,5.550293c0.7882996,0.0283813,1.5686646,0.9075317,1.7233582,1.7609558
				c0.4953918,2.7333374-3.0818787,4.3857422-5.1365356,4.3754578c-2.4550781-0.0122681-5.0062256-1.4734192-6.5224609-3.5354614
				c-3.7964478-5.163208,0.3292847-12.3913269,5.8078003-14.2963867c6.4468079-2.2417908,14.0822449,1.1163635,17.6473083,6.744751
				c1.5978088,2.5224915,2.7032471,5.7163391,2.0427856,8.719696c-0.7294617,3.3173523-3.4194641,5.4113159-5.6880798,7.7261353
				c-2.7059631,2.7610474-4.5869141,5.8362732-4.9706726,9.7363892c-0.3564453,3.6228638,0.8599243,7.4200439,2.7522583,10.4758911
				C474.0444336,325.6278992,481.8597412,329.8797913,489.5852966,329.5643311z"/>
			<path class="st44" d="M544.7037964,344.3561096c-2.3112793-3.3964844-5.5983887-5.914917-9.503418-7.206543
				c-2.956665-0.9779358-6.0916748-1.1514587-9.1864014-0.8778076c0.3065796-0.5419617,0.5911255-1.0964966,0.8380127-1.6691589
				c2.5527344-5.9211731,1.7800903-13.1265564-2.1376343-18.2889709c-0.9090576-1.1977234-2.3723145-1.8288574-3.796936-0.9955444
				c-1.18396,0.6924744-1.9023438,2.6020813-0.9956055,3.7969055c2.796936,3.6855469,3.7844238,8.6552429,1.9952393,13.020813
				c-1.140625,2.7830811-3.2637939,4.9665222-5.8405762,6.3645935c-6.7218323,2.2647705-13.285675,5.4050293-20.4930725,4.9494019
				c-7.3071594-0.4619446-14.3475952-4.5819702-18.3444519-10.7026672
				c-1.9476013-2.9824524-6.7511902-0.1981201-4.7925415,2.8013611
				c4.5115662,6.9088745,11.9297791,11.8384705,20.1161194,13.1060486c3.9736938,0.6153259,7.887146,0.4046326,11.8074951-0.4937744
				c3.0418396-0.697113,5.9768066-1.7545776,8.9072571-2.8179626c0.0852661-0.0098877,0.1703491-0.0117188,0.2555542-0.0281982
				c1.7675171-0.3413391,3.4716797-0.9651184,5.0562744-1.8157043c6.3148193-1.9952393,13.9576416-3.3503418,19.2518311,1.3677979
				c4.6099243,4.1083679,5.7018433,11.1011047,1.1322632,15.7071228c-1.9865723,2.0023804-4.7716675,3.0054321-7.5430908,2.4159241
				c-2.4976196-0.53125-5.0687256-2.0844116-6.0723267-4.5417786c-0.5689697-1.39328-1.8239136-2.3751221-3.4136963-1.9382629
				c-1.322937,0.3634949-2.505249,2.0256653-1.9382935,3.4137573c3.5214844,8.6225281,14.4732666,11.4162292,21.7355957,5.6043701
				C548.100647,360.4385986,549.229248,351.0067749,544.7037964,344.3561096z"/>
		</g>
		<g>
			<path class="st44" d="M304.9407959,532.5404053c-2.2423401,4.3624878-5.4725647,8.114502-8.2255554,12.1329346
				c-2.5419922,3.6964111-4.8509521,7.5372314-6.9489746,11.5001221
				c-4.1515808,7.8259277-7.3929443,16.1069336-9.7573547,24.6433105
				c-4.3181458,15.5962524-5.7278748,32.0473633-4.085022,48.1654053h-5.5502625
				c-1.4541931-15.019104-0.4107361-30.2824097,3.085907-44.9684448
				c3.8297119-16.1291504,10.7232056-31.6477051,20.5250244-45.057251
				c4.2958984-5.8833008,11.5001526-14.3308105,6.0164795-21.6793823
				c-4.5845337-6.1497498-14.708252-8.1921997-21.5906067-5.3060913c-3.4855957,1.4541626-6.2718506,4.5290527-6.9933472,8.3032227
				c-0.6327515,3.2635498,0.9102478,6.3495483,3.8074646,7.9368896c1.2432556,0.677124,2.6752319,0.9657593,3.9518127,0.6882324
				c1.2099915-0.255249,2.1646118-0.9434814,2.7529297-1.9980469c0.6771851-1.2210693,0.8991394-2.0535889,0.8658752-3.4301147
				c-0.0222473-0.7659302-0.5328064-2.0758057-1.0768127-2.4865112c-1.1877441-0.9213867-1.831543-2.3644409-0.9878845-3.7963867
				c0.6882324-1.1766357,2.6086121-1.9093628,3.7963867-0.9990845c1.6428528,1.2655029,2.8306274,2.7640381,3.4300232,4.7733154
				c1.0878906,3.663147-0.0887451,7.9035645-2.6863098,10.6453857c-3.0859375,3.241333-7.9147339,3.607666-11.8554077,1.8648682
				c-4.1183472-1.7982788-7.0377808-5.7056885-7.5705872-10.1569824c-0.5661621-4.6289673,1.4320068-9.3355713,4.6733398-12.61026
				c7.0044556-7.0710754,19.0263977-6.8157043,27.318512-2.3088684c3.9851379,2.1756592,7.3374634,5.550293,8.891571,9.8794556
				C308.437439,523.0604858,307.1941833,528.1778564,304.9407959,532.5404053z"/>
		</g>
		<g>
			<path class="st44" d="M446.0956421,529.7097168c-2.7418213,3.4412231-7.2042847,5.3948975-11.5890198,4.651123
				c-3.9295654-0.677124-6.9378357-3.9406738-7.8813782-7.7370605c-0.9879456-3.9961548,0.1997986-7.9147339,3.4744873-10.4345703
				c1.198822-0.9213257,3.1192627-0.1664429,3.7963867,0.9990845c0.8214417,1.40979,0.1886902,2.8861084-0.9879761,3.7963867
				c-0.4884338,0.3774414-1.0323486,1.6762085-1.0656128,2.3311157c-0.155426,2.453186,1.098938,4.9397583,3.4300537,5.550293
				c2.8417358,0.732605,5.9943237-1.3098755,7.3596802-3.9185181c1.5873718-3.0192871,0.4107056-6.8934937-1.6207275-9.413269
				c-2.6419373-3.2524414-6.7713013-4.6844788-10.8562927-4.7843323c-6.804657-0.155426-16.3622437,3.2746887-17.4390259,11.0561218
				c-0.577179,4.1849365,1.676178,8.170105,3.8963013,11.5223999c2.4310303,3.6743164,5.2061768,7.1154785,7.6149902,10.8230591
				c9.058075,13.9090576,15.1855469,29.7384644,18.2493286,46.0341187
				c2.4088745,12.7877808,2.9971619,25.8643188,1.7539062,38.7965088h-5.5391846
				c0.0555115-0.5328979,0.1109924-1.0767822,0.155426-1.6096191c1.5318298-17.7942505-0.4995422-35.8215332-6.127533-52.7832031
				c-2.819519-8.4697266-6.5493469-16.6175537-11.1671753-24.2547607c-2.3644104-3.9296265-5.028595-7.6260986-7.7260132-11.3336792
				c-2.8639526-3.9407349-5.7389832-8.2698975-6.4938049-13.187439
				c-1.5429993-10.0238647,6.4605408-17.5722351,15.6073914-19.8034668
				c9.6685486-2.3421936,20.9134521,0.57724,24.9208069,10.4789429
				C449.6478271,520.9069824,449.0816956,525.9577637,446.0956421,529.7097168z"/>
		</g>
		<g>
			<path class="st44" d="M358.5758362,497.320282c-3.5828857-9.1576233-8.6055908-18.0949402-16.9924011-23.653656
				c-7.7259827-5.120697-18.229126-6.7713623-26.4081116-1.7221985c-7.5945129,4.688385-11.9865723,14.1792908-7.842926,22.6077576
				c3.8959045,7.92453,14.7365417,12.2331238,21.9364624,5.9173584c3.6708679-3.2200623,5.0664368-9.450592,0.9314575-12.9041748
				c-3.3015137-2.7575073-9.0411072-2.962677-11.2727661,1.2694702c-1.664856,3.157196,3.1239929,5.9654846,4.792511,2.8013306
				c0.0339661-0.0644531,0.5301819-0.6929321,0.1989746-0.3444519c0.4079285-0.4291992-0.2603455,0.0296326,0.2885742-0.1792297
				c-0.5252075,0.1998291,0.2938538-0.0551453,0.34198-0.0578003c-0.59198,0.0327148,0.3251038,0.0188293,0.3591309,0.0198975
				c0.8072815,0.0254517-0.4060669-0.1449585,0.3884277,0.0626221c-0.0122681-0.0032043,0.8688354,0.2925415,0.4299316,0.1057434
				c0.6767578,0.2880554,0.8257446,0.3553162,1.2733154,0.9389648c-0.2848511-0.37146,0.1809998,0.3861389,0.1828918,0.3911438
				c-0.1341553-0.3509827,0.002533,0.0808105,0.0157776,0.1838989c0.0811157,0.6309509-0.0402832,1.2857971-0.3010559,1.8643188
				c-0.5613708,1.2453918-1.7649841,2.2653809-2.9888,2.8243408c-5.3479309,2.4425049-11.272583-2.6589661-12.4787292-7.7150269
				c-1.4199219-5.9521484,3.3153992-11.7006226,8.4451599-14.0200806
				c6.3531189-2.8726196,13.7850342-0.7581177,19.2765808,2.9977112
				c6.8720093,4.6999512,11.1090393,12.5154724,14.0715637,20.0875244c0.5457458,1.3948975,1.8608093,2.3650513,3.4137573,1.9382935
				C357.9678955,500.3684387,359.124939,498.7238159,358.5758362,497.320282L358.5758362,497.320282z"/>
		</g>
		<g>
			<path class="st44" d="M370.0031738,498.7957458c2.7139282-6.9366455,6.4126282-13.7404785,12.1583557-18.6302185
				c5.15271-4.3851013,12.5874023-7.0846863,19.2890015-5.1410217c5.5560913,1.6114197,10.6075745,6.7620239,10.5682678,12.7981873
				c-0.0347595,5.3344116-5.2741089,10.8264771-10.7736816,10.1653137
				c-1.6196594-0.1947327-3.1729431-1.0234375-4.2092896-2.2862549c-0.4299316-0.5238953-0.7939758-1.1343384-0.9384155-1.8031006
				c-0.0861511-0.3987732-0.0971375-0.3486938-0.0861511-0.7600098c0.0002136-0.0079651,0.186554-0.96875,0.0324097-0.5655823
				c0.3469849-0.9077148,1.1118164-1.3083191,2.1670227-1.4979248c-0.5215759,0.0937195,0.3488464-0.0039978,0.3869934-0.0040283
				c0.34198,0.0238953,0.3685608,0.0184326,0.0797119-0.0164185c0.1755676,0.033783,0.3482056,0.0789185,0.5178528,0.1354065
				c-0.4240723-0.0257263,0.1941528,0.2182617-0.0819397-0.0784302c0.2162476,0.2346191,0.2523499,0.2458801,0.1082458,0.0337524
				c0.1088867,0.1555786,0.20401,0.3191528,0.2853699,0.4907532c1.6667175,3.1607361,6.4589844,0.3589478,4.792511-2.8013306
				c-1.9261475-3.6527405-6.6610718-4.0490723-9.9883728-2.1841431c-4.0455017,2.2674866-4.787384,7.2981873-2.5530396,11.1459045
				c2.2599792,3.8919067,6.8938599,6.1332703,11.3400269,5.7241821c4.4117737-0.4059143,8.3590698-2.7794495,11.0557251-6.2565002
				c2.7932739-3.6016541,3.9101868-7.9945068,3.1247253-12.4862366c-0.7304077-4.1769714-3.22052-8.0797119-6.4414978-10.7908936
				c-7.4824829-6.2981567-17.5856323-6.3300476-26.1043396-2.1025085
				c-10.1556396,5.039917-16.0983582,15.2549438-20.0815125,25.4356384
				c-0.5462341,1.3961487,0.6002502,3.0461121,1.9382629,3.4137573
				C368.1619568,501.1661072,369.4549255,500.1970215,370.0031738,498.7957458L370.0031738,498.7957458z"/>
		</g>
		<circle class="st44" cx="361.7842102" cy="466.5552673" r="8.4575996"/>
		<circle class="st44" cx="383.2834473" cy="462.1732483" r="3.9192359"/>
		<circle class="st44" cx="340.7840881" cy="462.1732483" r="3.9192359"/>
		<circle class="st44" cx="427.0831299" cy="399.0450439" r="3.658299"/>
		<circle class="st44" cx="445.4008179" cy="378.8655396" r="3.658299"/>
		<circle class="st44" cx="471.9859619" cy="368.5884094" r="3.658299"/>
		<circle class="st44" cx="499.8760681" cy="377.0777893" r="3.658299"/>
		<circle class="st44" cx="522.5595093" cy="395.3867493" r="3.658299"/>
		<circle class="st44" cx="187.1776123" cy="398.8504333" r="3.658299"/>
		<circle class="st44" cx="205.4953156" cy="378.6708984" r="3.658299"/>
		<circle class="st44" cx="232.0804443" cy="368.3937988" r="3.658299"/>
		<circle class="st44" cx="259.9705811" cy="376.8831482" r="3.658299"/>
		<circle class="st44" cx="282.6540222" cy="395.1921387" r="3.658299"/>
		<path class="st44" d="M364.7982178,160.1833496c0,14.6147461-3.5449524,20.9120483-7.9178772,20.9120483
			c-4.3728943,0-7.9178467-6.2973022-7.9178467-20.9120483s7.9178467-32.0126343,7.9178467-32.0126343
			S364.7982178,145.5686035,364.7982178,160.1833496z"/>
		<path class="st44" d="M379.7480469,146.5761261c4.0195007,9.3097229,3.4932861,14.2961273,0.7077026,15.4988251
			c-2.7855835,1.2026825-6.7756958-1.833786-10.7951965-11.1435242c-4.0195007-9.3097229-3.7607117-22.5699768-3.7607117-22.5699768
			S375.7285461,137.2664032,379.7480469,146.5761261z"/>
		<path class="st44" d="M334.0126648,146.5761261c-4.0195007,9.3097229-3.4932861,14.2961273-0.7077026,15.4988251
			c2.7855835,1.2026825,6.7756958-1.833786,10.7951965-11.1435242c4.0195007-9.3097229,3.7606812-22.5699768,3.7606812-22.5699768
			S338.0321655,137.2664032,334.0126648,146.5761261z"/>
		<path class="st45" d="M281.5530396,455.3907471c-0.1106873-0.4028625-0.2879333-0.7381592-0.5143127-1.0120239v-27.7866516
			c0-24.9177246-20.2720642-45.1903687-45.1903687-45.1903687c-22.6930237,0-41.5260468,16.8163757-44.7093353,38.6405334
			c-0.2007446,0.4832153-0.2687683,1.0295105-0.1997986,1.5677185c-0.1804199,1.6370544-0.2807007,3.2977905-0.2807007,4.9821167
			v35.3754883c-0.9305115,1.0866089-0.9326782,2.8691711,0,3.8779602v27.4215393h0.1447144
			c-0.4594269,2.4810181,0.5546265,5.2582703,2.8993378,6.4906921c2.5429535,1.3366699,5.5001526,0.2860413,7.1859741-1.7831116
			c1.427475,2.7401123,4.4545898,4.6454468,7.651886,4.1435852c2.2039948-0.3459473,4.006073-1.7406921,5.0991974-3.5704041
			c1.4251709,2.3199768,3.8898773,4.0141907,6.677887,4.146637c2.5188293,0.1197205,4.8520355-1.0645142,6.4720612-2.8912048
			c1.1537628,2.5887146,3.6217041,4.664917,6.5091248,4.9755554c4.0702209,0.4378967,7.4742432-2.3858948,9.0039673-5.9714966
			c1.3961639,2.0331726,3.6828918,3.4587708,6.223938,3.4599915c2.4981689,0.0011292,4.7531891-1.3738403,6.1568756-3.3509827
			c1.3632355,2.7820435,4.1579742,4.8638,7.4218292,4.7121887c2.74823-0.127655,5.0867004-1.7871704,6.4414062-4.0428772
			c1.344696,1.7610474,3.4647522,2.9099121,5.7818909,2.6062622c4.1115417-0.5388489,6.5509033-5.1795044,5.2793884-8.9248352
			h1.4307251v-35.3857117C281.5568542,457.1646423,281.7684937,456.1747131,281.5530396,455.3907471z M276.5985107,426.5920715
			v27.0661011c-11.2599182,1.5377197-22.5504761,2.8519287-33.8623657,3.9493713
			c-0.5083466-10.9937744-1.1399994-21.9814758-1.891449-32.9613953c5.9402008-0.1934814,11.8776245-0.4762268,17.8088074-0.867981
			c5.9140015-0.3905945,11.8203125-0.8868103,17.7183838-1.4708252
			C276.5197754,423.7159729,276.5985107,425.1448975,276.5985107,426.5920715z M243.855011,488.8268127
			c-0.2177582-8.5661316-0.509964-17.130188-0.8740692-25.6912842c5.8081512-0.5649719,11.611084-1.1850586,17.4072418-1.8650208
			c5.4100952-0.6347046,10.812561-1.3322144,16.2103271-2.0632019v29.6195068H243.855011z M275.4120178,416.846344
			c-11.6223145,1.129364-23.279068,1.8788452-34.9487,2.2542725c-0.2440338-3.3800354-0.4993286-6.7592773-0.7665405-10.1376038
			c-0.6082153-7.6896973-1.2778168-15.3744812-2.0041962-23.0538635c-0.0006714-0.0069885-0.0028381-0.0135498-0.0035248-0.0205383
			C255.9844055,386.7062378,271.1730347,399.6425171,275.4120178,416.846344z M232.1521912,386.017334
			c1.0461731,11.0690613,1.9633942,22.1500549,2.7636261,33.2393799
			c-7.6462097,0.1670227-15.2960052,0.1798096-22.9434357,0.0184937
			c-5.3682404-0.1131287-10.7335663-0.3235168-16.0959625-0.5965576
			C199.338089,401.1636963,214.0558319,387.6531677,232.1521912,386.017334z M195.0987549,426.5920715
			c0-0.8044128,0.0298767-1.6017456,0.0760803-2.3947754c13.3651276,0.6955566,26.7534332,0.9007568,40.1319122,0.6032715
			c0.7597046,11.1026611,1.399231,22.2135925,1.9100037,33.3306274c-8.464035,0.7675171-16.9389343,1.4152222-25.420929,1.940094
			c-5.5626984,0.3442688-11.1289673,0.6249695-16.6970673,0.8651428V426.5920715z M195.0987549,466.487793
			c14.1385956-0.6111755,28.2615356-1.5560608,42.3545227-2.8380127c0.058548,1.3869629,0.1237183,2.7736511,0.1783905,4.1608276
			c0.2759552,7.0036316,0.4946747,14.0094604,0.6723175,21.0162048h-43.2052307V466.487793z M208.2422638,499.9259033
			c-3.2193298,0.5500183-6.0999603-2.4830627-5.9892578-5.5850525c0.0079956-1.4326172-2.1692963-1.4252319-2.220108,0
			c-0.0142365,2.5359192-3.1496124,4.8082581-5.4822693,3.3462219c-1.447525-0.9072571-1.9584503-2.8370667-1.47612-4.4200134
			h19.3354187c-0.0912628,0.7649841-0.059967,1.5280762,0.0719452,2.2723999
			C212.0765839,497.6530762,210.418335,499.5541382,208.2422638,499.9259033z M220.3175201,500.4743652
			c-2.8518372-0.1817932-5.0229645-2.4968872-5.5846405-5.1559753c0.0741272-0.6793518,0.0526428-1.3685303-0.0648346-2.0513306
			h12.3417969c-0.0149689,0.0226135-0.0353699,0.035614-0.0492554,0.0600891
			c-0.6495361,1.1439819-0.907074,2.3782349-0.8582153,3.598877
			C225.0154877,499.0578003,222.8003845,500.6326294,220.3175201,500.4743652z M233.9821167,502.6051025
			c-2.7687683-0.0388184-5.2619324-2.5492554-5.6324005-5.2443237c0.4676971-1.0906067,0.7180481-2.2720032,0.6794281-3.4733887
			c-0.0077972-0.2427673-0.0962067-0.4490662-0.223999-0.6203308h10.9596558
			c0.3737183,0.1962585,0.7929077,0.2911072,1.2151337,0.3211365c-0.0244598,0.085083-0.0600891,0.1603088-0.068222,0.2591553
			c-0.0322571,0.3924866-0.0202637,0.7825317,0.0121918,1.1699524
			C240.7181396,498.7319641,237.9944916,502.6612854,233.9821167,502.6051025z M248.5266113,500.0471802
			c-2.8065033,0.0101013-5.018692-2.4010925-5.3648376-5.0462036c0.0119171-0.386261,0.0063019-0.771637-0.029953-1.1536255
			c-0.0225525-0.2378845-0.1089478-0.4214783-0.2171478-0.5802917h11.1750946
			c-0.0470123,0.0891418-0.0966797,0.1753235-0.1220093,0.2911987c-0.1416779,0.6481628-0.1887665,1.3050232-0.1613312,1.9571533
			C253.2616425,497.9547729,251.1526337,500.0376282,248.5266113,500.0471802z M262.1053162,501.4083862
			c-3.1225281,0.1865845-5.7849121-2.6087341-6.0792542-5.6010132c0.1243286-0.6393127,0.1758423-1.29422,0.1221619-1.954071
			c-0.0187073-0.2302246-0.1159058-0.4210205-0.2420654-0.5862427h11.534729
			c-0.0067749,0.0161743-0.0188293,0.0279541-0.0249329,0.0447083c-0.4458923,1.2220459-0.4407959,2.5151062-0.1151733,3.7294312
			C266.5844727,499.3319702,264.5722961,501.2610168,262.1053162,501.4083862z M277.3669739,493.6063538
			c1.2458191,2.4763489-0.540802,6.0314026-3.3367615,6.3933411c-2.0718689,0.268219-3.7679138-1.2249756-4.4212646-3.0661621
			c0.2557678-1.1817932,0.2584229-2.4188843-0.0522156-3.6217651c-0.0044861-0.017334-0.0147705-0.0279846-0.0198059-0.0447083
			h7.7368774C277.2926941,493.3787842,277.3086243,493.4904175,277.3669739,493.6063538z"/>
		<path class="st45" d="M521.1210938,492.2010193v-65.6089478c0-24.9177246-20.272644-45.1903687-45.1903687-45.1903687
			c-24.9177551,0-45.1893005,20.272644-45.1893005,45.1903687v66.6749878h0.5029907
			c-2.2379456,2.7531128-0.6641235,7.4821777,2.9214172,8.5687256c3.9846802,1.20755,7.1947937-1.1217346,8.9839172-4.3452454
			c1.1358032,2.5036621,3.4153442,4.4610901,6.2967224,4.8314209c2.9139709,0.3745422,5.6586914-1.0179749,7.3746643-3.2282104
			c1.0744629,2.501709,3.375885,4.4788513,6.2072144,4.7427673c2.7256165,0.2540588,5.131073-1.140564,6.6089783-3.224762
			c1.125824,1.8420715,3.0513,3.1928406,5.2945862,3.2365417c2.8303528,0.0550842,5.1932983-1.99646,6.1241455-4.5394287
			c1.8569031,1.9815063,4.6228943,3.0935059,7.3948364,2.6411438c2.3313599-0.3804932,4.3096924-1.8788452,5.5249634-3.8490906
			c1.2976685,2.6009521,3.7259827,4.6131287,6.7609558,5.0310364c3.7002869,0.509491,7.1696167-1.5482178,8.9806519-4.6149597
			c1.7257385,2.8110962,5.446106,4.4663086,8.5877686,2.8890076
			C521.59021,499.7567749,522.664978,495.3609314,521.1210938,492.2010193z M516.6808472,426.5920715v26.6098633
			c-10.8174744,0.744812-21.6349182,1.4896851-32.4524231,2.2344971c-0.2351685-9.4208069-0.618988-18.8375244-1.157135-28.2460938
			c5.1486511-0.175354,10.2983704-0.3200684,15.4491272-0.4229736c6.0525513-0.1208801,12.105896-0.1891785,18.1595154-0.2119446
			C516.6799316,426.567688,516.6808472,426.5798035,516.6808472,426.5920715z M484.4320374,488.8268127
			c0.1187744-9.2831116,0.1037903-18.5675049-0.069519-27.8493347c4.8397522-0.3331909,9.6795959-0.6665344,14.5193481-0.9997559
			c5.9330444-0.4084778,11.8659973-0.8170166,17.7989807-1.2254944v30.074585H484.4320374z M516.2890015,421.010498
			c-11.1854248,0.0461426-22.3693237,0.2658386-33.5478821,0.6483154
			c-0.2574463-4.0515442-0.5343628-8.1018982-0.8483276-12.1496582c-0.6078796-7.8366394-1.3238831-15.6644287-2.13974-23.4823303
			C498.5863342,387.787384,513.7294922,402.4160767,516.2890015,421.010498z M474.2015381,385.8858337
			c0.0018311,0.0326538-0.0065613,0.0635376-0.0031128,0.096405c1.2472534,11.9440308,2.236969,23.9137268,2.9970398,35.8979187
			c-8.3716431,0.3283997-16.7407837,0.7223816-25.1030579,1.2418518c-5.6173706,0.3489685-11.2314148,0.7474976-16.842804,1.1813965
			C436.4093323,403.4669189,453.2923584,386.7645264,474.2015381,385.8858337z M435.1816406,429.8639221
			c14.1035767-1.0905457,28.227478-1.900116,42.3619385-2.4523926c0.5403137,9.4613953,0.9168701,18.9317627,1.1504822,28.4060059
			c-8.6723022,0.5971069-17.344635,1.1941833-26.0170288,1.7913818c-5.8317871,0.4015503-11.6635742,0.8030701-17.4953918,1.2046204
			V429.8639221z M435.1816406,464.3638306c14.5434875-1.0013733,29.0870361-2.0028381,43.6305237-3.0042114
			c0.0452576,2.4730225,0.0925598,4.9460754,0.1167908,7.4194336c0.0655212,6.6825562,0.0366821,13.3654785-0.0495911,20.04776
			h-43.6977234V464.3638306z M435.9299011,499.8933105c-1.5259705-0.0722351-2.9802246-0.8638306-3.3994141-2.4107056
			c-0.3716736-1.371582,0.066803-2.8727722,1.3651428-3.5437927c0.3187256-0.1647034,0.486145-0.4088745,0.5389709-0.6717529
			h7.9130859C441.7161865,496.5222778,439.7030334,500.0719604,435.9299011,499.8933105z M449.8182983,500.1473694
			c-3.174408-0.3408508-5.6813354-3.6988831-5.2352295-6.8272705c0.0026855-0.019104-0.0046997-0.0342102-0.0028687-0.0530396
			h12.644928c-0.3519592,0.085907-0.6670227,0.3212585-0.7868652,0.7388916
			c-0.1542969,0.5376892-0.2394409,1.0841675-0.2653809,1.630188
			C455.3920898,498.3263855,452.6959534,500.4563904,449.8182983,500.1473694z M474.9319153,501.6281738
			c-2.1206055-0.055481-3.6601257-1.8389282-4.0124512-3.8018494c0.243103-0.9540405,0.3240051-1.9503174,0.1864014-2.9404602
			c-0.167572-1.2055969-1.8031616-0.8887024-2.1408386,0c-0.375824,0.9891052-0.4616089,2.034729-0.3137817,3.0492554
			c-0.8699341,2.2481689-3.2189026,4.0066223-5.6539307,3.6704407c-2.7416687-0.3786011-4.6757507-3.0862122-4.6052246-5.7485352
			c0.1233826-0.5070496,0.204834-1.0266724,0.2266541-1.5559998c0.0240479-0.5822754-0.3650513-0.9295044-0.8218384-1.0339661
			h21.1695862c0.1368103,0.4689636,0.3929138,0.8437195,0.718811,1.1300354
			c-0.4603882,0.1806335-0.8081055,0.6269226-0.6474609,1.2678528
			C479.9276428,498.3004456,477.8905945,501.7056274,474.9319153,501.6281738z M488.2304382,499.7416687
			c-3.1459656,0.6379089-6.2950745-1.648468-7.0517578-4.6669312c-0.0039978-0.0117188-0.0123291-0.0177307-0.01651-0.0291748
			c1.2546997,0.1639404,2.6382751-0.4283447,3.0775146-1.7785034h8.725647
			c-0.021698,0.366333-0.0272522,0.7321777-0.0054932,1.0958862
			C492.6313171,496.8969421,490.8467102,499.2111816,488.2304382,499.7416687z M517.460083,499.3421326
			c-3.078064,1.7611694-6.7926636-1.5152893-6.4668884-4.7095947c0.1260681-1.4289856-2.0768433-1.4047241-2.2201233,0
			c-0.3261108,3.6971741-4.0709839,6.8962402-7.8215637,6.3046875c-2.9837341-0.4705811-5.3870544-3.1775208-5.7749329-6.1384888
			c0.0720215-0.5061951,0.095459-1.0182495,0.0670471-1.5316772h23.9002991
			C520.1140137,495.3288269,519.515686,498.1660156,517.460083,499.3421326z"/>
		<g>
			<path class="st44" d="M319.7839661,183.5929413c0.1222229,0.0839539-0.1948853-0.3064575-0.1277771-0.0971527
				c-0.0577393-0.1801147-0.1187439-0.3600769-0.1555786-0.5461426c0.1000977,0.5055542,0.0033569-0.3785858,0.0050049-0.4174805
				c0.0219116-0.5178833,0.3226318-1.1978455,0.6643982-1.5507355c0.3459778-0.3572235,0.236908-0.2249603,0.1173401-0.1365967
				c0.0296021-0.0218658,0.7795715-0.3422394,0.4109192-0.2313232c0.3583069-0.1078033,0.7341919-0.1430664,1.1067505-0.0823669
				c0.8486328,0.1382599,1.7322693,0.7913513,2.2769775,1.4787598c1.4576416,1.8395996,0.931366,4.3457336-0.1617126,6.2239685
				c-1.4702454,2.5263062-4.0056763,4.1038971-6.5617676,5.3725433c-5.3843384,2.6723785-11.1436157,4.4934692-16.3913879,7.4649963
				c-5.1060791,2.8913116-9.8006897,6.8131866-12.4435425,12.1523743
				c-2.8248291,5.7068329-3.4949341,12.5738373-0.065155,18.1855316c1.8598633,3.0430756,6.6621094,0.2576599,4.792511-2.8013306
				c-3.0281982-4.9546814-1.3520813-11.1329041,1.8547974-15.5749359
				c3.8263855-5.3001404,10.2733459-8.258728,16.1025085-10.7656555c6.300293-2.709549,13.8302917-4.9187164,17.5045471-11.2321777
				c1.6803589-2.8873596,2.4328613-6.5988922,1.2046814-9.7967529c-1.1471863-2.986969-3.7947083-5.5304413-7.0088806-6.1130981
				c-3.6831665-0.6676788-6.9883423,1.1882782-8.3739014,4.6411743c-1.2709351,3.1671753-0.3889771,6.6703796,2.447937,8.6189117
				c1.2360229,0.8489532,3.0793762,0.2312317,3.796936-0.9955902
				C321.5838928,186.0147095,321.0228577,184.4438629,319.7839661,183.5929413L319.7839661,183.5929413z"/>
		</g>
		<g>
			<path class="st44" d="M397.0762634,188.3854523c5.1401367-3.5304718,3.1962585-12.2090454-2.9770813-13.2820282
				c-3.4902649-0.6066284-6.8069458,1.172699-8.8210144,3.9725952c-2.0191345,2.8069153-2.1693115,6.5725098-0.9684143,9.7416534
				c2.7258301,7.1932373,10.1183167,9.9197845,16.6548462,12.6524811
				c5.9131165,2.4720917,12.1636963,5.1457062,16.6202087,9.9154816c4.1554871,4.4475861,6.6183167,11.6673126,3.223175,17.2223511
				c-1.8677673,3.055954,2.930603,5.847702,4.792511,2.8013306c2.9545288-4.834137,2.949585-10.8544617,0.8843994-16.0284576
				c-2.2519226-5.6418304-6.3609314-9.9057312-11.4423218-13.1395569
				c-5.0649719-3.2233582-10.7348633-5.2384033-16.2028503-7.6424561c-2.7485657-1.2084351-5.5461426-2.5703583-7.5947266-4.8254089
				c-1.5066223-1.6584625-2.7123108-4.2696838-1.9439087-6.5183105c0.3468933-1.015152,1.105072-1.8963165,2.0620117-2.3838348
				c0.8339844-0.424881,1.7470398-0.4786835,2.282959-0.1048889c0.3865356,0.2696075,0.7875977,0.8994141,0.8920898,1.5448151
				c-0.0531616-0.3283539,0.0168152,0.5776367,0.0180054,0.514679c-0.0124207,0.6669159,0.1416626-0.2209625-0.0663147,0.4004211
				c-0.1948547,0.5820618-0.0856934,0.209549-0.0385437,0.1191711c-0.1762085,0.2776337-0.196228,0.3189392-0.0600281,0.1239624
				c-0.2368774,0.2253571-0.2756653,0.2665253-0.116333,0.1234894c-1.2338867,0.8475037-1.7913818,2.4363708-0.995575,3.7969208
				C393.9944458,188.6124268,395.8349304,189.2380829,397.0762634,188.3854523L397.0762634,188.3854523z"/>
		</g>
		<g>
			<path class="st44" d="M390.2669678,360.037384c-5.6274414-6.6138916-14.8796692-10.0809631-23.3449402-7.4858398
				c-3.840271,1.1772461-7.2140808,3.3104553-9.9552002,6.1511536c-1.8482971-1.9462585-4.0361023-3.5870667-6.4387207-4.7145996
				c-4.3242493-2.0292664-8.8119812-2.7565308-13.535614-1.9274902c-4.2515259,0.7461548-8.171814,3.0299377-11.357605,5.875946
				c-6.3985596,5.716156-9.8399658,14.7607727-9.2516174,23.2679749
				c0.6638489,9.5998535,5.2021179,18.3184509,11.5886536,25.3757629
				c7.184967,7.9395142,16.6417847,13.4656067,25.8097839,18.785675c0.9191895,0.5334167,1.9944153,0.7586975,3.0571289,0.7084961
				c1.081543,0.1031799,2.2020874-0.1078796,3.2371521-0.7084961c8.2033386-4.7602844,16.4818115-9.6541138,23.3594971-16.2680054
				c6.5105286-6.2609253,11.9221497-14.525238,13.4920959-23.5435791
				C398.536499,376.3120728,396.3888245,367.2322083,390.2669678,360.037384z M386.3892822,380.9819031
				c-0.0259399,0.4260254-0.0706482,0.8492737-0.1088562,1.2740784c-0.0422974,0.2624817-0.0869446,0.5244751-0.1363831,0.785614
				c-0.3320618,1.7550354-0.8246155,3.4783936-1.4487,5.1515503c-0.0442505,0.1185608-0.2656555,0.6529236-0.3240662,0.8053589
				c-0.1147766,0.2550964-0.2272339,0.5111389-0.3479004,0.7635803c-0.454895,0.9515991-0.9507141,1.8835754-1.4822083,2.7945862
				c-0.4573364,0.783905-0.9414368,1.5521545-1.4493713,2.3042603c-0.2543335,0.3765869-0.5147095,0.7490234-0.7808533,1.1173096
				c-0.0535278,0.0741272-0.2928162,0.3865356-0.4399109,0.5809021c-1.1738281,1.4635925-2.4250793,2.8609314-3.7604675,4.1793823
				c-1.6200256,1.5995178-3.3448792,3.0737915-5.1151123,4.5029907c-0.077301,0.0623779-0.1412659,0.1144104-0.194397,0.1578369
				c-0.0604858,0.0435791-0.131958,0.0954895-0.2254639,0.1639709c-0.5245361,0.3843079-1.0444031,0.7744751-1.5732727,1.1530762
				c-0.9267883,0.6634521-1.866394,1.3089294-2.8153381,1.9403076c-3.0149231,2.006073-6.1235352,3.8638611-9.2500305,5.6899719
				c-2.7080688-1.581665-5.4067993-3.1796265-8.0392456-4.8847351c-1.6400757-1.062439-3.2562561-2.1624756-4.8325195-3.3177795
				c-0.2790833-0.2045288-0.5552368-0.4128723-0.8317261-0.6208801c-0.0834656-0.0679626-0.6805115-0.5279846-0.7519226-0.5853882
				c-0.8855286-0.7111816-1.754303-1.4434509-2.6017761-2.199646c-1.4189148-1.2660828-2.7823181-2.5969543-4.0585022-4.0072937
				c-0.6092224-0.6731262-1.1854553-1.3712463-1.7652893-2.0693665c-0.0476379-0.057373-0.0844116-0.1010132-0.1201782-0.1433716
				c-0.0341492-0.0493164-0.0724487-0.104248-0.1210327-0.1729736c-0.3497925-0.4949951-0.7095032-0.981781-1.0488586-1.484314
				c-1.0140686-1.5014648-1.9333191-3.0679016-2.7345581-4.6931458c-0.1994629-0.404541-0.3835449-0.8153992-0.5756836-1.2232666
				c-0.0260925-0.0554199-0.0454102-0.0951843-0.0662231-0.1384277c-0.0188904-0.0553589-0.0401001-0.1166077-0.0675354-0.1938171
				c-0.3502197-0.9857483-0.7103882-1.9603577-0.994751-2.9684448c-0.2419434-0.8580322-0.4477539-1.7262878-0.6134949-2.6022339
				c-0.017395-0.0918884-0.0684814-0.3713074-0.1109009-0.5960999c-0.0415955-0.3388367-0.0773926-0.6803589-0.1035156-1.0182495
				c-0.0690002-0.8926392-0.0948792-1.7888184-0.0742188-2.6838074c0.0095825-0.4134216,0.0284119-0.8264465,0.0596313-1.2388
				c0.0138245-0.1827393,0.0329285-0.3648987,0.051239-0.5472412c0.3050842-1.5611572,0.719574-3.0393066,1.2302246-4.546051
				c0.0140381-0.0414734,0.0227661-0.0690918,0.0339661-0.1031799c0.0075684-0.0153809,0.0125122-0.0246582,0.0207214-0.0414124
				c0.1754761-0.3575745,0.3392944-0.7197266,0.5224304-1.0737305c0.4255676-0.8225098,0.8980713-1.6207886,1.4159851-2.3884888
				c0.1799927-0.2668762,0.3729553-0.5930176,0.5938416-0.8465576c0.0869141-0.0855713,0.1689148-0.1686401,0.2142334-0.2209473
				c0.5123291-0.5914001,1.0556335-1.156189,1.6289673-1.6886597c0.2856445-0.2652588,0.5855103-0.5119324,0.8771362-0.7700806
				c0.0102234-0.0090027,0.015564-0.0141602,0.025116-0.0227051c0.02771-0.017334,0.049469-0.0304871,0.0825195-0.0516663
				c0.762085-0.4887085,1.5033569-0.9841309,2.3132324-1.3947144c0.1153564-0.0568848,0.2307434-0.1138916,0.3461304-0.1707764
				c0.5532837-0.2523193,0.4647827-0.2215576-0.2653198,0.0921936c0.2474365-0.1983032,0.7926331-0.2993164,1.0926514-0.3968811
				c0.7229309-0.2351074,1.4550476-0.3913574,2.1958008-0.551239c0.0291748,0.0003357,0.0506592,0.0012207,0.0852966,0.0011597
				c0.3716125-0.0010986,0.742157-0.0346985,1.1146545-0.030426c0.3544006,0.0039978,0.7053833,0.0359802,1.0587158,0.0523682
				c0.1393433,0.0253296,0.2792053,0.0483704,0.4178772,0.0774536c0.8513184,0.1781616,1.662323,0.4491882,2.4830627,0.7294006
				c0.0248108,0.0138245,0.0425415,0.0243225,0.0718079,0.0402527c0.4393921,0.2391052,0.8894653,0.4523926,1.3209839,0.7073364
				c0.3222961,0.1903992,0.6386414,0.3909302,0.9483948,0.6011658c0.1193848,0.0809631,0.2355042,0.1665344,0.3529358,0.2504272
				c0.0047913,0.0039062,0.0054932,0.0045166,0.0103455,0.0085144c0.6390686,0.5877686,1.275116,1.1582336,1.8479614,1.8140869
				c0.0796204,0.0931702,0.1592102,0.1863708,0.2388306,0.279541c0.1225586,0.1513062,0.1807556,0.222168,0.2095642,0.2564392
				c0.1764221,0.2961426,0.3483887,0.6243591,0.3945923,0.7029419c0.1835327,0.3120728,0.3373413,0.6383667,0.5144348,0.9532776
				c0.0081177,0.0174866,0.0097656,0.0205383,0.0172729,0.0366516c0.0357666,0.0983887,0.0749512,0.1955872,0.1083984,0.2948608
				c0.1142273,0.3390198,0.2148438,0.6827393,0.300354,1.0301819c0.0212097,0.085968,0.0368042,0.1731567,0.0560913,0.259552
				c-0.0627136,1.0140381-0.0535889,2.0400391,0.0297546,3.0763855c-0.000946,0.4039307,0.0339355,0.7993164,0.1166077,1.1922302
				c0.006897,0.0526428,0.0081177,0.1046753,0.0153809,0.1573792c0.1878662,1.3654175,1.149292,2.4887695,2.3808899,3.2103882
				c0.4736633,0.3119202,0.9838257,0.5496216,1.495636,0.6661377c0.0930176,0.0212097,0.1904602,0.0342102,0.2862549,0.050354
				c0.9144592,0.212738,1.8510742,0.2129517,2.6647034-0.050354c0.4301453-0.1392212,0.8155212-0.3146362,1.1718445-0.5124817
				c1.3787537-0.6511536,2.4872742-1.7840576,2.7046814-3.3640442c0.2067871-1.5024719,0.260498-2.9867249,0.1731873-4.4469299
				c0.0423279-0.1952515,0.0816345-0.3910522,0.1351624-0.5847168c0.0919189-0.3328552,0.210968-0.6541443,0.3161316-0.9823303
				c0.0071716-0.0126038,0.0117188-0.0196533,0.0193787-0.0332642c0.161499-0.2872009,0.9830017-2.1776428,1.3113403-2.1693115
				c-0.1416016,0.1802979-0.2832031,0.3606567-0.4248047,0.5409546c0.15271-0.1914673,0.3096313-0.379425,0.4707947-0.5638428
				c0.2428284-0.2779846,0.4950867-0.547699,0.7556458-0.809021c0.2618713-0.2627563,0.5324097-0.5168457,0.8106689-0.762085
				c0.0939026-0.0809631,0.1878052-0.1620178,0.2817078-0.242981c0.4627686-0.3769531,0.3806458-0.3190308-0.2463379,0.1736755
				c0.2344971-0.4671631,1.4332886-0.9681396,1.8825684-1.2209778c0.3270569-0.184082,0.6672363-0.3410034,0.9963684-0.5201416
				c0.0545349-0.0249329,0.0735779-0.0342102,0.1153259-0.0535278c0.0952454-0.0358276,0.1894226-0.0745239,0.2853699-0.1086121
				c0.7034607-0.2502136,1.4234009-0.4545288,2.1542664-0.6075134c0.1079102-0.022583,0.1725464-0.0356445,0.2478943-0.0510254
				c-0.1313171,0.020874-0.2510986,0.0342712-0.2542114,0.0131226c-0.0007324-0.0050049,0.1539307-0.0180664,0.3477173-0.0323792
				c0.394989-0.0798035,0.2505493-0.0424194,0.0354309-0.0025635c0.3041382-0.0221558,0.6845703-0.0463562,0.7283325-0.0479736
				c0.3713379-0.0136719,0.7433167-0.0134888,1.1146545,0.0015564c0.1238098,0.0065613,0.2475891,0.0132141,0.3714294,0.0198669
				c0.6170349,0.0577087,0.4957581,0.0313721-0.3637695-0.079071c0.3234558-0.2546997,2.2573853,0.5031128,2.6448669,0.6291504
				c0.2999878,0.0975647,0.8452148,0.1985779,1.0926514,0.3968811c-0.2050171-0.0852356-0.4101257-0.1704712-0.6151428-0.2556152
				c0.234375,0.1063538,0.4663391,0.217804,0.6958923,0.334198c0.6888428,0.3492126,1.3549194,0.742981,1.9949646,1.1750488
				c0.0838928,0.0566406,0.223938,0.1322632,0.3583374,0.2003479c0.233551,0.1794128,0.4621582,0.4271851,0.6568604,0.6012878
				c0.6799622,0.6082764,1.3194885,1.2615662,1.9168701,1.9511414c0.0453186,0.0523071,0.1272278,0.135376,0.2141724,0.2208862
				c0.2209167,0.2535095,0.4138184,0.5796814,0.5939026,0.8466187c0.4437866,0.6578064,0.8541565,1.3381348,1.2303162,2.0367737
				c0.1885681,0.3503723,0.3684998,0.7053833,0.5397339,1.0646057c0.0290527,0.0609741,0.0703735,0.1305542,0.1148376,0.2011719
				c0.4528503,0.6575928,0.6434326,1.8294983,0.8456116,2.5770874c0.2082825,0.7702026,0.3547668,1.5474548,0.5060425,2.3298645
				c0.0002136,0.0010376,0.0002747,0.0014343,0.0004883,0.0024414c0.0014038,0.0319824,0.0020752,0.0560303,0.0041199,0.0939636
				c0.0210571,0.3948059,0.0626831,0.7877808,0.07901,1.1831665
				C386.4556274,379.1892395,386.4437561,380.0873108,386.3892822,380.9819031z"/>
		</g>
	</g>
</g>
</svg>
