<?xml version="1.0" encoding="utf-8"?>
<!-- Generator: Adobe Illustrator 25.4.1, SVG Export Plug-In . SVG Version: 6.00 Build 0)  -->
<svg version="1.1" id="Шар_1" xmlns="http://www.w3.org/2000/svg" xmlns:xlink="http://www.w3.org/1999/xlink" x="0px" y="0px"
	 viewBox="0 0 714 714" style="enable-background:new 0 0 714 714;" xml:space="preserve">
<style type="text/css">
	.st0{fill:#F2F2F2;}
	.st1{fill:#F4BEB0;}
	.st2{fill:#B79AB9;}
	.st3{fill:#C7B1C9;}
	.st4{fill:#B79C84;}
	.st5{fill:#FFFFFF;}
</style>
<g>
	<path class="st0" d="M472.5,235c0,0,0.1,0,0.1,0c-0.2-0.1-0.5-0.2-0.7-0.3C472.1,234.8,472.3,234.9,472.5,235z"/>
	<path class="st0" d="M476.4,236c3.9,0.5,7.9-0.4,11.2-2.7c0.7-0.5,1.3-1.1,1.9-1.6C486.1,235,481.1,236.5,476.4,236z"/>
	<path class="st0" d="M588.1,255.2l-50.3-30.5l-4.5-2.9c0-0.3-0.1-0.7-0.1-1c-0.3-2.1-0.6-4.3-0.9-6.4c-0.2-1.4-0.5-2.6-0.9-3.7
		c-2.2-12.3-5-22.5-8.4-30.4c-2.2-6.2-4.6-11.9-7.3-17.2c-1.2-2.3-2.4-4.5-3.6-6.6c-0.1-0.1-0.2-0.3-0.2-0.4
		c-3.7-5.7-9.8-13.8-18-20.1c-0.3-0.2-0.6-0.4-0.9-0.6l-0.1-0.1c-0.2-0.1-0.3-0.2-0.5-0.3c-0.7-0.5-1.5-1-2.4-1.6
		c-1.7-1.1-3.6-2.1-5.5-3c-0.9-0.4-1.8-0.9-2.7-1.3l-0.9-0.4l-1.4-0.6c-1.4-0.6-3-1.2-4.8-1.8c-1.2-0.4-2.4-0.8-3.5-1.2
		c-1.4-0.5-2.8-0.9-4.3-1.5c-0.2-0.1-0.4-0.1-0.6-0.2c-0.4-0.1-0.9-0.3-1.4-0.4c-6.7-1.5-13.6-2.3-20.5-2.3c-2.5,0-5,0.1-7.5,0.3
		c-0.2,0-0.4,0-0.6,0.1c-3.8,0.5-7.7,1.1-11.9,2.1c-4.1,0.6-20.5,3.8-38.9,15.5c0,0-0.1,0-0.1,0c-5.9,3.6-11.8,7.7-17.4,12.2
		c-7.9,6.3-15.6,13.6-22.9,21.6c-0.1,0.1-0.2,0.3-0.4,0.4l-0.4,0.4c-12.5-4.6-26.2-7.9-40.9-10.1c-3.2-0.5-6.8-0.9-10.3-1.2
		c-2.9-0.3-5.9-0.5-8.8-0.7c-1.8-0.1-3.4-0.1-5.1-0.2c-0.9,0-1.9,0-2.8-0.1c-0.2,0-0.4,0-0.5,0c-7,0-13.1,4.9-14.6,11.7
		c-5.2,23.6-6.4,45.9-3.6,66.3c1,7.2,2.5,14.3,4.6,21c-2.8,0.9-5.7,1.6-8.5,2.1c-5.2,1-10.4,1.5-15.4,1.5c-2,0-3.9-0.1-5.8-0.2
		l-29.3-82.8c-1.9-5.5-6.8-9.3-12.6-9.9c-0.5-0.1-1-0.1-1.5-0.1c-5.2,0-10.1,2.7-12.8,7.2l-55.7,92.1c-2.5,4.1-2.9,9.2-1,13.6
		c1.9,4.4,5.8,7.7,10.5,8.8l64.4,14.5c0.8,4.3,1.7,8.7,2.7,13.4c1.8,7.8,3.8,15.6,6.2,23.3c3,9.7,6.3,19,10,27.7
		c4.3,10.2,9.2,19.9,14.5,28.9c6.1,10.3,12.9,19.7,20.1,27.7c8.3,9.4,17.4,17.3,27,23.6c9.5,6.3,19.8,11.1,30.6,14.4
		c0.1,0,0.2,0.1,0.3,0.1c0.5,0.1,0.9,0.3,1.3,0.4c0.7,0.2,1.3,0.4,2.5,0.7c0.2,0,0.3,0.1,0.5,0.1c2.2,0.6,4.4,1.1,6.7,1.5l11.6,74.7
		c0.3,1.8,0.9,3.6,1.8,5.3l11.5,28.3c2.8,6.9,9.3,11.4,16.6,11.4c1.6,0,3.2-0.2,4.7-0.6c3.9-1.1,7.3-3.5,9.7-6.7l12.5,8.8
		c2.9,2.1,6.4,3.1,9.9,3.1c6.3,0,12.3-3.4,15.4-8.8c1.7-2.9,2.5-6,2.4-9.1l5.1,1.2c1.4,0.3,2.8,0.5,4.3,0.5
		c8.9,0,16.5-6.8,17.6-15.8c1.1-9-4.5-17.1-13.3-19.2l-65-15.8l-8.6-55.1c14.9-1.1,30.6-4.5,46.7-10.1l17.3,46.5
		c0.2,0.6,0.5,1.1,0.7,1.6l0.2,0.4c0.1,0.3,0.3,0.5,0.4,0.8l0.1,0.2c0.1,0.2,0.3,0.5,0.4,0.7l13.6,20.4c3.2,4.8,8.5,7.6,14.2,7.6
		c5.5,0,10.6-2.6,13.8-6.8l7.3,3.2c2.3,1,4.7,1.5,7.1,1.5c6.1,0,11.8-3.3,14.8-8.6c1.3-2.3,2.1-4.9,2.2-7.5l0.1,0c0.2,0,0.5,0,0.7,0
		c0,0,0,0,0,0c9.3,0,16.8-7.3,16.9-16.7c0.2-9.5-7.1-17.1-16.5-17.5l-48.1-1.8L432.2,449l-0.8-2.5c3.8-2.1,7.4-4.4,11-6.8
		c12.2-8.1,23.5-17.9,33.7-28.9c9.5-10.4,18.2-22.1,25.6-34.8c2.2-3.7,4.4-7.7,6.5-11.9c0-0.1,0.1-0.3,0.1-0.3
		c0.9-1.7,1.4-2.8,2.2-4.4c3.4-7,6.4-14.3,9-21.5c3.7-10.1,6.7-20.6,9.1-31.3l57.6-24.8c5.2-2.2,8.6-7.1,9-12.7
		S592.9,258.1,588.1,255.2z M439,136.1c7.9-0.6,15.8-0.1,23.5,1.7c0.1,0,0.2,0.1,0.3,0.1c2.6,1,5.3,1.8,7.9,2.7
		c1.4,0.5,2.8,1,4.2,1.5c0.2,0.1,0.4,0.2,0.6,0.2l0.3,0.1c0.1,0,0.3,0.1,0.4,0.2c0.2,0.1,0.3,0.1,0.5,0.2c0.7,0.3,1.4,0.7,2.2,1
		c1.4,0.7,2.8,1.5,4.2,2.3c0.6,0.4,1.2,0.8,1.8,1.2c0.3,0.2,0.5,0.4,0.8,0.6c5.6,4.3,10.5,10.2,14.5,16.4c1.1,1.8,2.1,3.7,3.1,5.6
		c5.2,10.3,8.8,21.5,11.6,32.8c-2.1-2.6-4.4-5-6.7-7.2c-8.1-8-18.1-14.3-29.5-15.7c-6.5-0.8-13.2,0.3-19.2,2.8
		c-7.2,3-13.3,8-20.8,10.2c-2.6,0.8-5,1.2-7.7,1.1c-1.2,0-1.7-0.1-2.9-0.4c-0.5-0.1-1-0.3-1.5-0.5l-0.1,0l-0.2-0.1
		c-0.2-0.1-0.4-0.2-0.6-0.3c-0.4-0.2-0.8-0.5-1.2-0.8l-0.2-0.1l0,0c-0.2-0.1-0.3-0.3-0.5-0.4c-0.3-0.3-0.7-0.6-1-1l-0.3-0.3
		l-0.2-0.3c-0.2-0.4-0.5-0.8-0.7-1.2c-0.1-0.2-0.2-0.4-0.3-0.5l-0.1-0.1l0-0.1c-0.3-0.8-0.6-1.7-0.7-2.6c0-0.1-0.1-0.4-0.1-0.5
		c0-0.1,0-0.4,0-0.4c0-0.4-0.1-0.9-0.1-1.3c0-0.5,0-0.9,0-1.4c0-0.2,0-0.4,0.1-0.6l0.1-0.4c0.2-0.9,0.4-1.8,0.7-2.7
		c0.1-0.3,0.2-0.5,0.3-0.8l0.1-0.3l0,0c0.2-0.4,0.4-0.8,0.6-1.2c0.4-0.7,1.1-1.8,1.4-2.3c0.4-0.5,1.3-1.5,1.9-2.1
		c0.7-0.7,1.1-0.9,2.1-1.5c0.4-0.3,0.9-0.5,1.3-0.7c0.5-0.2,0.5-0.2,1.1-0.5c1.7-0.6,2.2-3.7,0-4.1c-1-0.2-2-0.4-2.9-0.7
		c-0.8-0.2-1.6-0.5-2.4-0.8c-0.3-0.1-0.5-0.2-0.8-0.3l-0.1,0l-0.1-0.1c-0.5-0.2-0.9-0.4-1.3-0.6c-0.5-0.2-0.9-0.5-1.4-0.8
		c-0.2-0.1-0.4-0.3-0.6-0.4l-0.2-0.2l0,0c-0.4-0.3-0.8-0.7-1.1-1c-0.1-0.1-0.3-0.3-0.4-0.4l-0.3-0.4c-0.1-0.2-0.3-0.5-0.4-0.7
		l-0.1-0.1l0-0.1c-0.1-0.2-0.1-0.5-0.2-0.7l-0.1-0.5c-0.1-1.2,0-1.7,0.4-2.9c1.1-3.2,4-6,6.5-8.3c1.6-1.4-0.1-4-2-3.5
		c-0.3,0.1-0.6,0.1-0.9,0.2c-0.1,0-0.7,0.1-0.9,0.1c-0.4,0-0.8,0-1.2,0c-1-0.1-1.9-0.5-2.5-1.2C424.1,138.9,431.4,137,439,136.1z
		 M277,176.2c2.5,0.1,5,0.1,7.5,0.2c2.7,0.2,5.5,0.4,8.2,0.6c3.3,0.3,6.6,0.7,9.5,1.1c17.1,2.5,34.1,6.9,49.8,14.2
		c18.2,8.5,34.5,21.2,45.1,38.4c0.3,0.4,0.5,0.9,0.8,1.4c-3.5,0.6-6.8,2-9.2,4.6c-4.8,5.2-4.6,12.9-3.1,19.4
		c0.9,4.2,2.7,8.5,2.9,12.6c0,0.2,0,0.3,0,0.5c-4.6-2.3-8.2-6-13.1-7.7c-6.6-2.2-14,2.1-15.3,8.9c-0.9,4.4,0,8.9,1.5,13.1
		c0.4,1.2,0.9,2.4,1.5,3.6c-1.3-0.3-2.5-0.6-3.8-1c-4.3-1.4-8.6-3-12.9-4.3c-9.6-3-21.2-6-30.9-2c-5.1,2.1-8.9,6.2-11.1,11.2
		c-1,2.4-1.7,4.9-2.1,7.4c-4.5-4.6-8.5-9.6-12-15c-9-14-14.3-30-16.6-46.5C270.7,216.9,272.5,196.1,277,176.2z M367.2,290
		c1.3-2.2-0.8-5.1-1.5-7.1c-1.5-4.1-2.9-9.4-0.9-13.5c1.4-2.8,4.8-4.5,8-4.1c0,0,0.7,0.2,0.9,0.2c0.3,0.1,0.7,0.2,1,0.3
		c0.7,0.2,0.9,0.4,1.7,0.8c1.4,0.7,2.8,1.6,4.1,2.5c2.2,1.5,4.4,3.4,7,4.3c2.8,1,5-0.7,5.2-3.5c0.2-1.8-0.2-3.6-0.6-5.3
		c-0.6-2.9-1.5-5.6-2.2-8.4c-1-4.1-1.5-8.5-0.3-12.5c0.7-2.4,2.3-4.3,4.1-5.5c0.5-0.3,1-0.6,1.5-0.8c0.1,0,0.2-0.1,0.2-0.1
		c0,0,0.1,0,0.2-0.1c0.2-0.1,0.5-0.2,0.7-0.3c0.9-0.3,1.8-0.5,2.8-0.6l0.3,0c0.2,0,0.3,0,0.5,0c0.1,0,0.3,0,0.4,0
		c2.6,4.8,5,10,6.9,15.3c1.5,4.4,2.6,9,3.4,13.6c0.6,3.5,1,7.1,1.2,10.8c0,5.8-0.9,11.6-2.9,17.1c-1.7,4.5-4.2,8.8-7.3,12.5
		c-8.4,8.9-20.2,14-32,16.3c-4.5,0.9-9.2,1.4-13.8,1.3c-2.7-0.1-5.4-0.3-8.1-0.7c-6.6-1.1-13-3.5-19-6.3c-5.9-2.8-11.6-6.1-16.9-9.8
		c-1.7-1.2-3.3-2.3-5-3.6l-0.3-0.3l-0.2-0.1l-0.3-0.2c0.2-1.7,0.5-3.4,0.9-5.1c0.4-1.7,1-3.4,1.6-4.8c0.6-1.3,1.6-2.9,2.3-3.8
		c0.8-1,2.1-2.2,2.8-2.7c0.6-0.4,1.2-0.8,1.8-1.1c0.3-0.1,0.5-0.3,0.8-0.4c0.1-0.1,0.3-0.1,0.4-0.2l0.1,0l0,0
		c5.3-2.1,11.2-1.8,16.6-0.9c6,1,11.7,2.9,17.4,4.8c4,1.4,8.2,3.3,12.4,3.7C364.7,291.7,366.4,291.5,367.2,290z M363.4,288.3
		L363.4,288.3l0,0.1l0,0l0,0.1C363.4,288.4,363.4,288.3,363.4,288.3z M363.4,288.5L363.4,288.5l0,0.1L363.4,288.5z M373.7,544.2
		c13.7,3.3,27.3,6.7,41,10c3.2,0.8,6.3,1.5,9.5,2.3c3.5,0.8,2,6.2-1.5,5.3c-8.6-2.1-17.3-4.2-25.9-6.3c-12.1-3-24.3-5.9-36.4-8.9
		c1.6,1.1,3.1,2.2,4.7,3.3c8.8,6.2,17.7,12.4,26.5,18.7c2,1.4,4.1,2.9,6.1,4.3c1.2,0.9,1.8,2.4,1,3.8c-0.7,1.2-2.6,1.9-3.8,1
		c-5.5-3.9-11.1-7.8-16.6-11.7c-8.4-5.9-16.7-11.8-25.1-17.7c2.4,6,4.9,11.9,7.3,17.9c0.5,1.3,1,2.5,1.5,3.8c0.6,1.4-0.6,3-1.9,3.4
		c-1.6,0.4-2.8-0.5-3.4-1.9c-3.6-8.8-7.1-17.5-10.7-26.3c-0.4-1-0.8-2-1.2-3c-0.2-0.3-0.4-0.6-0.4-0.9c-1.4-9.2-2.9-18.5-4.3-27.7
		c-2.3-14.6-4.5-29.2-6.8-43.8c-0.4-2.8-0.9-5.6-1.3-8.4c1.8,0,3.6,0,5.6,0c1.3,8.2,2.6,16.4,3.8,24.6c2.3,14.6,4.5,29.2,6.8,43.8
		c0.4,2.8,0.9,5.7,1.3,8.5C357.5,540.3,365.6,542.2,373.7,544.2z M433.5,493.7c0.7,1.9,1.4,3.8,2.1,5.7c6.2,0.2,12.5,0.5,18.7,0.7
		c10.7,0.4,21.3,0.8,32,1.2c2.5,0.1,4.9,0.2,7.4,0.3c2.7,0.1,2.7,4.3,0,4.2c-6.7-0.3-13.4-0.5-20.2-0.8c-9.5-0.4-19-0.7-28.5-1.1
		c9,3.9,17.9,7.8,26.9,11.7c1.7,0.8,3.5,1.5,5.2,2.3c1,0.5,1.3,2,0.8,2.9c-0.6,1.1-1.8,1.2-2.9,0.8c-11.7-5.1-23.3-10.2-35-15.3
		c2.7,4,5.3,8,8,12c0.6,0.9,1.2,1.7,1.7,2.6c1.5,2.3-2.1,4.4-3.6,2.1c-4-5.9-7.9-11.9-11.9-17.8c-0.6-0.8-1.1-1.7-1.7-2.5l-0.1-0.3
		l-0.1-0.2l-0.1-0.2c-2.5-6.6-4.9-13.2-7.4-19.9c-3.9-10.5-7.8-21-11.7-31.5c-0.3-0.9-0.7-1.8-1-2.7c1.4-0.6,2.6-1.2,3.8-1.7
		c2,5.3,4,10.6,5.9,15.9C425.7,472.7,429.6,483.2,433.5,493.7z M520.7,252.2c-0.7,13-2,25.9-3.5,38.8l0,0.2
		c-0.2,1.4-0.5,2.8-0.7,4.2c-2.4,12.7-5.8,25.3-10.2,37.5c-2.5,6.9-5.4,13.7-8.5,20.3c-0.8,1.7-1.1,2.3-1.9,3.8l-0.2,0.4
		c-1.9,3.8-3.9,7.5-6.1,11.1c-6.8,11.5-14.7,22.4-23.7,32.2c-9.2,10.1-19.6,19-31,26.6c-12.1,8.1-25.1,14.6-38.8,19.4
		c-14.3,5-29.2,8.5-44.4,9.5c-12.3,0.8-24.7-0.2-36.6-3.3c-1.9-0.6-2.7-0.8-4-1.1c-9.5-2.9-18.5-7.1-26.8-12.6
		c-8.9-5.9-16.9-13.1-24-21c-7-7.8-13-16.4-18.4-25.4c-5.1-8.7-9.7-17.8-13.5-27c-3.6-8.6-6.7-17.4-9.5-26.3
		c-2.2-7.3-4.2-14.7-5.9-22.2c-1.2-5.1-2.2-10.2-3.1-15.4c-0.2-1.4-0.5-2.9-0.7-4.3c0-0.2-0.1-0.4-0.1-0.6c0-0.1,0-0.2,0-0.4
		c-0.1-0.9-0.6-1.8-1.5-2c-3.1-0.7-6.2-1.4-9.4-2.1c-13.6-3.1-27.2-6.1-40.8-9.2c-7.6-1.7-15.2-3.4-22.9-5.1
		c1.9-3.2,3.9-6.4,5.8-9.6c6.2-10.2,12.3-20.4,18.5-30.5c0.9,0.9,1.8,1.9,2.7,2.8c9,9.4,17.9,18.8,26.9,28.2c1.9,2,4.8-1,3-3
		c-1.3-1.3-2.6-2.7-3.9-4c-8.8-9.2-17.6-18.5-26.4-27.7c3.8-6.2,7.5-12.4,11.3-18.6c1-1.7,2.1-3.4,3.1-5.1c0.5,1.1,1.1,2.2,1.6,3.3
		c4.3,9,8.6,17.9,12.9,26.9c2.7,5.6,5.4,11.3,8.1,16.9c1.2,2.4,4.8,0.3,3.6-2.1c-1-2.1-2-4.1-3-6.2c-4.3-9-8.6-17.9-12.9-26.9
		c-2.6-5.4-5.2-10.8-7.7-16.2c4.1-6.7,8.2-13.5,12.2-20.2c2.5,7.1,5.1,14.3,7.6,21.4c4.5,12.7,9,25.4,13.5,38.1
		c3.3,9.2,6.5,18.4,9.8,27.7c0.5,1.5,0.9,3.9,2.6,4.4c1.8,0.6,3.9,0.7,5.7,0.9c9.4,1.1,19,0.6,28.2-1.2c7.2-1.4,14.2-3.6,20.9-6.7
		c3.1,7.1,6.9,13.9,11.5,20.1c8.5,11.6,19.4,21.4,32.3,27.9c8.3,4.2,17.3,7,26.5,8.2l0.1,0c0.2,0,0.4,0,0.6,0.1
		c0.5,0.1,0.9,0.1,1.4,0.1c0.6,0.1,1.2,0.1,1.8,0.2c2.5,0.2,5.1,0.2,7.6,0.1c13-0.5,25.8-4.5,36.6-11.9c0.1-0.1,0.3-0.2,0.4-0.3
		c2.8-1.9,5.3-4.3,7.5-6.9c2.8-3,5.1-6.3,6.9-10c3.3-6.7,4.3-13.8,4.3-21c0.1-6-0.7-12-2.1-17.9c-0.3-1.3-0.7-2.6-1.1-4
		c-1.1-4.1-2.5-8.1-4.1-12c-1.5-3.6-3.2-7.2-5.3-10.4l-0.1-0.1c-1.8-3.3-3.8-6.5-6-9.6c-11.3-15.7-27.2-27.3-44.7-35.3
		c7.8-9.2,16.5-17.7,25.9-25.2c10.4-8.3,22-15.5,34.4-20.4c1.1,1.9,3,3.1,5.1,3.7c-1.9,2.2-3.6,4.7-4.3,7.5
		c-1.7,7.1,4.1,11.5,10.3,13.7c-6,4.5-9,12.7-7.1,20c1,3.8,3.5,7.2,7,9c4.6,2.4,10.1,2.1,15.1,0.8c3.6-1,7-2.5,10.3-4.2
		c3.7-1.9,7.1-4.3,10.9-6c5.9-2.6,12.5-3.8,18.9-2.9c11,1.5,20.5,8.4,28,16.2c3,3.1,5.4,6.1,7.7,9.4c0.9,1.3,1.9,2.7,2.7,4.1
		c0,0,0,0,0,0c0.4,1,0.8,1.9,0.9,2.9c0.3,2,0.6,4,0.8,6C520.3,232.4,520.8,242.3,520.7,252.2z M541.4,281.4
		c-6.6,2.2-13.1,4.4-19.7,6.5c0.1-0.9,0.2-1.9,0.3-2.8c0.3-3.1,0.6-6.2,0.9-9.3c2-0.2,4.1-0.3,6.1-0.5c11.7-0.9,23.4-1.9,35.1-2.8
		c1.7-0.1,3.3-0.3,5-0.4C559.9,275.2,550.6,278.3,541.4,281.4z M578.2,267.2c-11.7,0.9-23.4,1.9-35.1,2.8c-6.6,0.5-13.2,1-19.7,1.6
		c0.4-4.9,0.9-9.7,1.2-14.6c0.5-7.5,1.2-15.3,0.7-22.8c1.4,0.9,2.9,1.8,4.3,2.6c11.4,6.9,22.8,13.8,34.1,20.7
		c5.3,3.2,10.6,6.4,15.9,9.6C579.1,267.2,578.7,267.2,578.2,267.2z"/>
	<path class="st1" d="M420.6,142.2c0.2,0,0.8-0.1,0.9-0.1c0.3,0,0.6-0.1,0.9-0.2c2-0.5,3.6,2.1,2,3.5c-2.5,2.3-5.4,5.1-6.5,8.3
		c-0.4,1.2-0.5,1.7-0.4,2.9l0.1,0.5c0.1,0.2,0.1,0.5,0.2,0.7l0,0.1l0.1,0.1c0.1,0.2,0.3,0.5,0.4,0.7l0.3,0.4
		c0.1,0.2,0.3,0.3,0.4,0.4c0.4,0.4,0.7,0.7,1.1,1l0,0l0.2,0.2c0.2,0.1,0.4,0.3,0.6,0.4c0.4,0.3,0.9,0.5,1.4,0.8
		c0.4,0.2,0.9,0.4,1.3,0.6l0.1,0.1l0.1,0c0.3,0.1,0.5,0.2,0.8,0.3c0.8,0.3,1.6,0.6,2.4,0.8c1,0.3,1.9,0.5,2.9,0.7
		c2.2,0.4,1.7,3.4,0,4.1c-0.6,0.2-0.6,0.2-1.1,0.5c-0.5,0.2-0.9,0.5-1.3,0.7c-1,0.6-1.4,0.9-2.1,1.5c-0.7,0.6-1.5,1.5-1.9,2.1
		c-0.4,0.5-1,1.5-1.4,2.3c-0.2,0.4-0.4,0.8-0.6,1.2l0,0l-0.1,0.3c-0.1,0.3-0.2,0.5-0.3,0.8c-0.3,0.9-0.5,1.8-0.7,2.7l-0.1,0.4
		c0,0.2,0,0.4-0.1,0.6c0,0.4-0.1,0.9,0,1.4c0,0.4,0,0.9,0.1,1.3c0,0.1,0,0.3,0,0.4c0,0.1,0.1,0.4,0.1,0.5c0.2,0.9,0.4,1.7,0.7,2.6
		l0,0.1l0.1,0.1c0.1,0.2,0.2,0.4,0.3,0.5c0.2,0.4,0.4,0.8,0.7,1.2l0.2,0.3l0.3,0.3c0.3,0.3,0.6,0.7,1,1c0.2,0.1,0.3,0.3,0.5,0.4l0,0
		l0.2,0.1c0.4,0.3,0.8,0.5,1.2,0.8c0.2,0.1,0.4,0.2,0.6,0.3l0.2,0.1l0.1,0c0.5,0.2,1,0.4,1.5,0.5c1.2,0.3,1.7,0.4,2.9,0.4
		c2.7,0.1,5.1-0.3,7.7-1.1c7.5-2.2,13.6-7.2,20.8-10.2c6.1-2.5,12.7-3.6,19.2-2.8c11.4,1.4,21.5,7.8,29.5,15.7
		c2.3,2.3,4.6,4.7,6.7,7.2c-2.8-11.3-6.3-22.4-11.6-32.8c-1-1.9-2-3.8-3.1-5.6c-4-6.2-8.9-12.1-14.5-16.4c-0.3-0.2-0.5-0.4-0.8-0.6
		c-0.6-0.4-1.2-0.8-1.8-1.2c-1.4-0.8-2.8-1.6-4.2-2.3c-0.7-0.4-1.4-0.7-2.2-1c-0.2-0.1-0.3-0.1-0.5-0.2c-0.1,0-0.3-0.1-0.4-0.2
		l-0.3-0.1c-0.2-0.1-0.4-0.2-0.6-0.2c-1.4-0.6-2.8-1.1-4.2-1.5c-2.6-0.9-5.3-1.8-7.9-2.7c-0.1,0-0.2-0.1-0.3-0.1
		c-7.7-1.7-15.6-2.3-23.5-1.7c-7.5,0.9-14.8,2.8-22.1,4.9c0.7,0.7,1.6,1.1,2.5,1.2C419.8,142.2,420.2,142.2,420.6,142.2z
		 M437.6,181.2c0,2.7-2.2,4.9-4.9,4.9c-2.7,0-4.9-2.2-4.9-4.9c0-2.7,2.2-4.9,4.9-4.9C435.3,176.2,437.6,178.4,437.6,181.2z
		 M430.5,148.2c2.7,0,4.9,2.2,4.9,4.9c0,2.7-2.2,4.9-4.9,4.9c-2.7,0-4.9-2.2-4.9-4.9C425.5,150.4,427.7,148.2,430.5,148.2z"/>
	<path class="st2" d="M337.6,387c-8.2-2.2-16.4-4.2-24.4-6.3c0.4,0.3,1.1,0.9,1.9,1.4c5.1,3.3,10.4,6.4,15.4,10
		c2.4,1.7,4.6,3.5,6.7,5.5c1.6-2.2,3.3-4.3,5-6.3c-0.9-1-1.7-2-2.6-2.9C339.1,387.8,338.4,387.2,337.6,387z"/>
	<path class="st3" d="M518.2,216.7c-0.2-1-0.5-2-0.9-2.9c0,0,0,0,0,0c-0.8-1.4-1.8-2.8-2.7-4.1c-2.3-3.3-4.8-6.3-7.7-9.4
		c-7.5-7.9-17-14.7-28-16.2c-6.4-0.9-13,0.2-18.9,2.9c-3.8,1.7-7.2,4.1-10.9,6c-3.3,1.7-6.7,3.2-10.3,4.2
		c-4.9,1.3-10.4,1.6-15.1-0.8c-3.5-1.8-6-5.2-7-9c-1.9-7.3,1.1-15.5,7.1-20c-6.1-2.2-12-6.7-10.3-13.7c0.7-2.8,2.3-5.3,4.3-7.5
		c-2.1-0.5-3.9-1.8-5.1-3.7c-12.5,4.9-24,12.1-34.4,20.4c-9.4,7.5-18,16.1-25.9,25.2c17.5,8,33.4,19.5,44.7,35.3
		c2.2,3.1,4.2,6.3,6,9.6l0.1,0.1c2.2,3.2,3.8,6.8,5.3,10.4c1.7,3.9,3,7.9,4.1,12c0.4,1.3,0.8,2.6,1.1,4c1.4,5.8,2.2,11.9,2.1,17.9
		c0.1,7.2-1,14.4-4.3,21c-1.8,3.7-4.2,7-6.9,10c-2.2,2.6-4.6,5.1-7.5,6.9c-0.1,0.1-0.3,0.2-0.4,0.3c-10.8,7.3-23.6,11.4-36.6,11.9
		c-2.5,0.1-5.1,0-7.6-0.1c-0.6,0-1.2-0.1-1.8-0.2c-0.5,0-0.9-0.1-1.4-0.1c-0.2,0-0.4,0-0.6-0.1l-0.1,0c-9.2-1.1-18.2-4-26.5-8.2
		c-12.8-6.5-23.8-16.3-32.3-27.9c-4.6-6.3-8.4-13-11.5-20.1c-6.7,3-13.7,5.3-20.9,6.7c-9.3,1.8-18.8,2.3-28.2,1.2
		c-1.9-0.2-3.9-0.3-5.7-0.9c-1.7-0.5-2.1-2.9-2.6-4.4c-3.3-9.2-6.5-18.4-9.8-27.7c-4.5-12.7-9-25.4-13.5-38.1
		c-2.5-7.1-5.1-14.3-7.6-21.4c-4.1,6.7-8.2,13.5-12.2,20.2c2.6,5.4,5.2,10.8,7.7,16.2c4.3,9,8.6,17.9,12.9,26.9c1,2.1,2,4.1,3,6.2
		c1.2,2.4-2.5,4.6-3.6,2.1c-2.7-5.6-5.4-11.3-8.1-16.9c-4.3-9-8.6-17.9-12.9-26.9c-0.5-1.1-1.1-2.2-1.6-3.3c-1,1.7-2.1,3.4-3.1,5.1
		c-3.8,6.2-7.5,12.4-11.3,18.6c8.8,9.2,17.6,18.5,26.4,27.7c1.3,1.3,2.6,2.7,3.9,4c1.9,2-1.1,4.9-3,3c-9-9.4-17.9-18.8-26.9-28.2
		c-0.9-0.9-1.8-1.9-2.7-2.8c-6.2,10.2-12.3,20.4-18.5,30.5c-1.9,3.2-3.9,6.4-5.8,9.6c7.6,1.7,15.2,3.4,22.9,5.1
		c13.6,3.1,27.2,6.1,40.8,9.2c3.1,0.7,6.2,1.4,9.4,2.1c1,0.2,1.4,1.1,1.5,2c0,0.1,0,0.2,0,0.4c0,0.2,0.1,0.4,0.1,0.6
		c0.2,1.4,0.4,2.9,0.7,4.3c0.9,5.2,1.9,10.3,3.1,15.4c1.7,7.5,3.7,14.9,5.9,22.2c2.7,8.9,5.9,17.7,9.5,26.3
		c3.9,9.2,8.4,18.4,13.5,27c5.3,9,11.4,17.6,18.4,25.4c7.1,8,15.1,15.2,24,21c8.3,5.4,17.3,9.7,26.8,12.6
		c3.8-12.5,8.7-24.7,14.9-36.1c1.6-3,3.3-5.9,5.1-8.7c-5.7-4.2-10.9-9.1-15.2-15c-2.8-3.7-4.6-8.1-6.8-12.2
		c-0.4-0.6-0.7-1.5-1.2-1.8c-5.3-2.7-10.6-5.3-16-8.1c2.1,4.1,3.8,8.3,6.3,12c4.3,6.2,8.9,12.2,11.1,19.7c2.3,7.7,1.8,15-1.9,22.1
		c-0.2,0.3-0.4,0.7-0.6,1c-0.1,0.1-0.2,0.1-0.5,0.3c0.2-7.8-3.7-13.5-8.4-19c-5.8-6.9-8.5-15.2-9-24.1c-0.2-4,0.1-8.1,0.2-12.1
		c0-0.7-0.1-1.7-0.5-2c-4.6-3.2-9.3-6.3-14-9.4c3.6,6.3,6.4,12.8,8,19.8c1.4,5.9,2.9,11.8,4.7,17.5c1.6,4.9,3.7,9.7,5.7,14.5
		c2,4.8,3.2,9.7,3.4,15.5c-0.8-1.4-1.3-2.4-2-3.2c-3.3-4-6.4-8.3-10.1-12c-10.8-10.6-15.8-23.3-14.4-38.6c0.5-5.7,0.1-11.4-1.8-16.8
		c-0.6-1.7-1.6-3.4-3-4.5c-14.5-12.4-27.1-26.6-38.1-42.3c-1.1-1.6-2.2-3.3-2.9-5.3c0.6,0.7,1.2,1.4,1.8,2.2
		c10.4,13.2,21.7,25.5,34.2,36.7c2.9,2.6,5.8,5.2,8.8,7.7c0.7,0.6,2.1,0.9,3,0.7c4.6-0.9,8.2-3.8,11.7-6.8c4.7-4,9.4-8.1,15.2-10.5
		c3.5-1.4,7.2-2.3,10.7-3.7c4.2-1.6,8.4-3.3,10.8-8.2c2.2,4.3,1.9,8.5,0.3,12.5c-3.9,10.3-11.9,15.7-21.9,18.5
		c-8.2,2.4-16.5,2.6-25.1,1.7c5.7,4,11.4,8.2,17.3,11.9c1.2,0.8,3.5,0.5,4.9-0.1c3.2-1.2,6.3-2.7,9.2-4.6
		c9.6-6.3,19.8-10.2,31.5-8.9c4.7,0.5,9.5,0,14.3-0.1c0.7,0,1.5,0,2.2,0.1c-8.4,3-15.5,8.5-23,13.1c-9.3,5.8-19.1,8.5-29.9,5.3
		c-0.2-0.1-0.4,0-0.8,0.4c4.2,2,8.6,3.8,12.6,6.1c6.3,3.7,12,1.5,17.2-2c6.3-4.2,12.3-9,18.2-13.8c9.9-8.2,21-12.8,33.8-12.8
		c5.5,0,11-0.2,17.2-0.3c-0.7,0.6-0.9,0.8-1.1,0.9c-11.4,4-20.9,11-30.2,18.7c-7.5,6.2-15.5,11.7-25.1,13.9
		c-3.7,0.8-7.4,1.2-11.7,1.8c4.3,0.8,8.1,1.7,12,2.3c1.4,0.2,2.9,0.4,4.3,0.5c6.6-7.1,14-13.5,22.1-18.8c7.7-5.1,16-9.3,24.7-12.6
		c3.6-1.4,7.2-2.5,10.9-3.6c3.3-1.1,6.6-1.9,10.1-2.4c1.2-0.3,2.5-0.5,3.7-0.7c7.9-1.4,15.9-2.1,23.9-2.3c5.3-0.1,10.6,0,15.9,0.3
		c1.8,0.1,3.5,0.3,5.3,0.4c6,0.6,11.9,1.4,17.8,2.5c4.1,0.8,8.2,1.7,12.3,2.7c0.7,0.2,1.4,0.4,2.1,0.6c0.7,0.2,1.4,0.4,2.1,0.6
		c0,0,0,0,0,0c3.2-6.6,6-13.4,8.5-20.3c4.4-12.2,7.8-24.8,10.2-37.5c0.3-1.4,0.5-2.8,0.7-4.2l0-0.2c1.5-12.9,2.8-25.8,3.5-38.8
		c0.1-9.9-0.4-19.7-1.6-29.5C518.8,220.6,518.5,218.7,518.2,216.7z M494.5,220.8c0,0.3,0,0.6-0.1,0.9c0,0.2,0,0.3-0.1,0.5
		c0,0.3-0.1,0.6-0.2,0.9c0,0.2-0.1,0.3-0.1,0.5c-0.1,0.3-0.2,0.6-0.2,0.9c0,0.1-0.1,0.3-0.1,0.4c-0.1,0.4-0.3,0.8-0.4,1.1
		c0,0,0,0.1-0.1,0.1c-0.2,0.4-0.4,0.8-0.6,1.2c-0.1,0.1-0.1,0.2-0.2,0.4c-0.2,0.3-0.3,0.6-0.5,0.8c-0.1,0.1-0.2,0.3-0.3,0.4
		c-0.2,0.2-0.3,0.5-0.5,0.7c-0.1,0.1-0.2,0.3-0.3,0.4c-0.1,0.1-0.1,0.2-0.2,0.3c-0.1,0.1-0.3,0.3-0.4,0.4c-0.1,0.1-0.3,0.3-0.4,0.4
		c-0.1,0.1-0.2,0.2-0.3,0.3c-0.6,0.6-1.2,1.1-1.9,1.6c-3.3,2.3-7.3,3.2-11.2,2.7c-0.4,0-0.7-0.1-1.1-0.2c-0.4-0.1-0.9-0.2-1.3-0.3
		c-0.1,0-0.2,0-0.2-0.1c-0.3-0.1-0.6-0.2-0.8-0.3c-0.1,0-0.1,0-0.2-0.1c0,0,0,0-0.1,0c0,0-0.1,0-0.1,0c-0.2-0.1-0.4-0.2-0.6-0.3
		c-0.2-0.1-0.4-0.2-0.6-0.3c-0.2-0.1-0.4-0.2-0.7-0.4c-0.2-0.1-0.4-0.2-0.6-0.3c-0.2-0.1-0.4-0.3-0.6-0.4c-0.2-0.1-0.4-0.2-0.6-0.4
		c-0.2-0.1-0.4-0.3-0.6-0.5c-0.2-0.1-0.4-0.3-0.5-0.4c-0.2-0.2-0.4-0.3-0.5-0.5c-0.2-0.2-0.3-0.3-0.5-0.5c-0.2-0.2-0.3-0.4-0.5-0.5
		c-0.1-0.2-0.3-0.3-0.4-0.5c-0.2-0.2-0.3-0.4-0.4-0.6c-0.1-0.2-0.3-0.3-0.4-0.5c-0.1-0.2-0.3-0.4-0.4-0.6c-0.1-0.2-0.2-0.4-0.3-0.5
		c-0.1-0.2-0.2-0.4-0.3-0.6c-0.1-0.2-0.2-0.4-0.3-0.6c-0.1-0.2-0.2-0.5-0.3-0.7c-0.1-0.2-0.2-0.4-0.2-0.6c-0.1-0.2-0.2-0.5-0.2-0.7
		c-0.1-0.2-0.1-0.4-0.2-0.6c-0.1-0.2-0.1-0.5-0.2-0.8c0-0.2-0.1-0.4-0.1-0.6c0-0.3-0.1-0.5-0.1-0.8c0-0.2-0.1-0.4-0.1-0.6
		c0-0.3,0-0.6,0-0.8c0-0.2,0-0.4,0-0.6c0-0.3,0-0.6,0-1c0-0.2,0-0.3,0-0.5c0-0.5,0.1-1,0.2-1.4c1.2-6.5,6.4-11.9,12.9-13.1
		c6.8-1.2,13.7,1.9,17.1,7.9c0.2,0.4,0.4,0.8,0.6,1.3c0.1,0.1,0.1,0.3,0.2,0.4c0.1,0.3,0.2,0.6,0.3,0.9c0.1,0.2,0.1,0.3,0.2,0.5
		c0.1,0.3,0.2,0.6,0.2,0.9c0,0.2,0.1,0.3,0.1,0.5c0.1,0.3,0.1,0.6,0.2,0.9c0,0.1,0.1,0.3,0.1,0.4c0.1,0.4,0.1,0.8,0.1,1.3
		c0,0,0,0.1,0,0.1c0,0.5,0,0.9,0,1.4C494.5,220.5,494.5,220.6,494.5,220.8z"/>
	<path class="st4" d="M415.9,446.3c-1.2,0.5-2.5,1.2-3.8,1.7c0.3,0.9,0.7,1.8,1,2.7c3.9,10.5,7.8,21,11.7,31.5
		c2.5,6.6,4.9,13.2,7.4,19.9l0.1,0.2l0.1,0.2l0.1,0.3c0.6,0.8,1.1,1.7,1.7,2.5c4,5.9,7.9,11.9,11.9,17.8c1.5,2.2,5.1,0.1,3.6-2.1
		c-0.6-0.9-1.2-1.7-1.7-2.6c-2.7-4-5.3-8-8-12c11.7,5.1,23.3,10.2,35,15.3c1,0.5,2.3,0.3,2.9-0.8c0.5-0.9,0.3-2.4-0.8-2.9
		c-1.7-0.8-3.5-1.5-5.2-2.3c-9-3.9-17.9-7.8-26.9-11.7c9.5,0.4,19,0.7,28.5,1.1c6.7,0.3,13.4,0.5,20.2,0.8c2.7,0.1,2.7-4.1,0-4.2
		c-2.5-0.1-4.9-0.2-7.4-0.3c-10.7-0.4-21.3-0.8-32-1.2c-6.2-0.2-12.5-0.5-18.7-0.7c-0.7-1.9-1.4-3.8-2.1-5.7
		c-3.9-10.5-7.8-21-11.7-31.5C419.8,456.9,417.9,451.6,415.9,446.3z"/>
	<path class="st4" d="M348.1,529.8c-2.3-14.6-4.5-29.2-6.8-43.8c-1.3-8.2-2.6-16.4-3.8-24.6c-1.9,0-3.8,0-5.6,0
		c0.4,2.8,0.9,5.6,1.3,8.4c2.3,14.6,4.5,29.2,6.8,43.8c1.4,9.2,2.9,18.5,4.3,27.7c0.1,0.3,0.2,0.6,0.4,0.9c0.4,1,0.8,2,1.2,3
		c3.6,8.8,7.1,17.5,10.7,26.3c0.6,1.4,1.8,2.4,3.4,1.9c1.3-0.4,2.5-2,1.9-3.4c-0.5-1.3-1-2.5-1.5-3.8c-2.4-6-4.9-11.9-7.3-17.9
		c8.4,5.9,16.7,11.8,25.1,17.7c5.5,3.9,11.1,7.8,16.6,11.7c1.2,0.9,3.1,0.2,3.8-1c0.8-1.4,0.2-2.9-1-3.8c-2-1.4-4.1-2.9-6.1-4.3
		c-8.8-6.2-17.7-12.4-26.5-18.7c-1.6-1.1-3.1-2.2-4.7-3.3c12.1,3,24.3,5.9,36.4,8.9c8.6,2.1,17.3,4.2,25.9,6.3
		c3.5,0.8,4.9-4.5,1.5-5.3c-3.2-0.8-6.3-1.5-9.5-2.3c-13.7-3.3-27.3-6.7-41-10c-8.1-2-16.1-3.9-24.2-5.9
		C349,535.4,348.6,532.6,348.1,529.8z"/>
	<path class="st5" d="M363.4,288.4l0-0.1l0,0C363.4,288.3,363.4,288.4,363.4,288.4L363.4,288.4L363.4,288.4z"/>
	<polygon class="st5" points="363.4,288.5 363.4,288.7 363.4,288.5 	"/>
	<path class="st1" d="M350.8,287.9c-5.7-2-11.5-3.8-17.4-4.8c-5.4-0.9-11.4-1.2-16.6,0.9l0,0l-0.1,0c-0.1,0.1-0.3,0.1-0.4,0.2
		c-0.3,0.1-0.5,0.3-0.8,0.4c-0.6,0.3-1.2,0.7-1.8,1.1c-0.7,0.5-2,1.7-2.8,2.7c-0.7,0.9-1.7,2.4-2.3,3.8c-0.7,1.4-1.2,3.1-1.6,4.8
		c-0.4,1.7-0.7,3.4-0.9,5.1l0.3,0.2l0.2,0.1l0.3,0.3c1.6,1.2,3.3,2.4,5,3.6c5.4,3.7,11,7,16.9,9.8c6,2.8,12.4,5.2,19,6.3
		c2.7,0.4,5.4,0.6,8.1,0.7c4.6,0.1,9.3-0.5,13.8-1.3c11.8-2.3,23.7-7.4,32-16.3c3.1-3.6,5.6-8,7.3-12.5c2.1-5.6,2.9-11.3,2.9-17.1
		c-0.1-3.6-0.6-7.3-1.2-10.8c-0.8-4.6-1.9-9.2-3.4-13.6c-1.9-5.3-4.3-10.5-6.9-15.3c-0.1,0-0.3,0-0.4,0c-0.2,0-0.3,0-0.5,0l-0.3,0
		c-0.9,0.2-1.8,0.3-2.8,0.6c-0.2,0.1-0.5,0.2-0.7,0.3c-0.1,0-0.2,0.1-0.2,0.1c0,0-0.1,0-0.2,0.1c-0.5,0.2-1,0.5-1.5,0.8
		c-1.9,1.2-3.4,3.1-4.1,5.5c-1.3,4-0.7,8.5,0.3,12.5c0.7,2.8,1.6,5.6,2.2,8.4c0.4,1.7,0.7,3.6,0.6,5.3c-0.2,2.9-2.4,4.6-5.2,3.5
		c-2.6-1-4.8-2.8-7-4.3c-1.3-0.9-2.7-1.8-4.1-2.5c-0.7-0.4-1-0.5-1.7-0.8c-0.3-0.1-0.7-0.2-1-0.3c-0.1,0-0.8-0.2-0.9-0.2
		c-3.2-0.4-6.6,1.3-8,4.1c-2,4.1-0.5,9.4,0.9,13.5c0.7,2,2.8,4.9,1.5,7.1c-0.8,1.4-2.5,1.7-4,1.5C359,291.1,354.8,289.2,350.8,287.9
		z"/>
	<path class="st3" d="M290.2,283.6c3.5,5.4,7.5,10.4,12,15c0.4-2.5,1.1-5,2.1-7.4c2.2-5.1,5.9-9.1,11.1-11.2c9.7-4,21.3-1,30.9,2
		c4.3,1.4,8.6,3,12.9,4.3c1.2,0.4,2.5,0.7,3.8,1c-0.5-1.2-1-2.4-1.5-3.6c-1.5-4.1-2.3-8.7-1.5-13.1c1.3-6.8,8.7-11.1,15.3-8.9
		c4.9,1.6,8.6,5.4,13.1,7.7c0-0.2,0-0.3,0-0.5c-0.2-4.1-2-8.5-2.9-12.6c-1.4-6.5-1.7-14.2,3.1-19.4c2.4-2.6,5.8-4.1,9.2-4.6
		c-0.3-0.5-0.5-0.9-0.8-1.4c-10.6-17.3-27-29.9-45.1-38.4c-15.7-7.3-32.7-11.8-49.8-14.2c-3-0.4-6.3-0.8-9.5-1.1
		c-2.7-0.3-5.5-0.5-8.2-0.6c-2.5-0.1-5-0.1-7.5-0.2c-4.4,19.9-6.2,40.7-3.4,60.9C275.9,253.6,281.2,269.6,290.2,283.6z M287.2,249.7
		c0.3-1.3,0.8-2.6,1.3-3.7c0.5-1,1.2-2.2,1.8-2.9c0.6-0.8,1.7-1.7,2.2-2.1c0.5-0.3,0.9-0.6,1.4-0.9c0.2-0.1,0.4-0.2,0.6-0.3
		c0.1-0.1,0.2-0.1,0.3-0.2l0.1,0l0,0c4.1-1.7,8.8-1.4,12.9-0.7c4.6,0.8,9.1,2.2,13.6,3.8c3.1,1.1,6.4,2.5,9.7,2.9
		c1.2,0.1,2.5-0.1,3.1-1.2c1-1.7-0.6-4-1.2-5.5c-1.2-3.2-2.3-7.3-0.7-10.5c1.1-2.2,3.7-3.5,6.2-3.2c0,0,0.6,0.1,0.7,0.2
		c0.3,0.1,0.5,0.2,0.8,0.2c0.5,0.2,0.7,0.3,1.3,0.6c1.1,0.6,2.2,1.3,3.2,2c1.7,1.2,3.5,2.6,5.4,3.4c2.2,0.8,3.9-0.5,4.1-2.7
		c0.1-1.4-0.2-2.8-0.5-4.2c-0.5-2.2-1.2-4.4-1.7-6.6c-0.8-3.2-1.2-6.6-0.2-9.8c0.6-1.8,1.8-3.4,3.2-4.3c0.4-0.2,0.8-0.4,1.2-0.6
		c0.1,0,0.1-0.1,0.1-0.1c0,0,0.1,0,0.1-0.1c0.2-0.1,0.4-0.1,0.6-0.2c0.7-0.2,1.4-0.4,2.1-0.5l0.2,0c0.1,0,0.3,0,0.4,0
		c0.1,0,0.2,0,0.3,0c2.1,3.8,3.9,7.8,5.4,11.9c1.2,3.5,2.1,7,2.7,10.6c0.5,2.7,0.8,5.6,0.9,8.4c0,4.5-0.7,9-2.3,13.4
		c-1.3,3.5-3.3,6.9-5.7,9.7c-6.5,7-15.7,10.9-25,12.7c-3.5,0.7-7.2,1.1-10.8,1c-2.1-0.1-4.2-0.3-6.3-0.6c-5.1-0.9-10.1-2.7-14.8-4.9
		c-4.6-2.2-9-4.7-13.2-7.6c-1.3-0.9-2.6-1.8-3.9-2.8l-0.3-0.2l-0.1-0.1l-0.2-0.2C286.6,252.3,286.9,251,287.2,249.7z"/>
	<path class="st4" d="M529.5,236.8c-1.4-0.9-2.9-1.8-4.3-2.6c0.5,7.6-0.2,15.3-0.7,22.8c-0.3,4.9-0.7,9.7-1.2,14.6
		c6.6-0.5,13.2-1,19.7-1.6c11.7-0.9,23.4-1.9,35.1-2.8c0.5,0,0.9-0.1,1.4-0.1c-5.3-3.2-10.6-6.4-15.9-9.6
		C552.3,250.6,540.9,243.7,529.5,236.8z"/>
	<path class="st4" d="M529.1,275.3c-2,0.2-4.1,0.3-6.1,0.5c-0.3,3.1-0.6,6.2-0.9,9.3c-0.1,0.9-0.2,1.9-0.3,2.8
		c6.6-2.2,13.1-4.4,19.7-6.5c9.3-3.1,18.5-6.2,27.8-9.2c-1.7,0.1-3.3,0.3-5,0.4C552.5,273.5,540.8,274.4,529.1,275.3z"/>
	<path class="st5" d="M477.9,207.9c-5.9,0.2-10.5,4.6-11.5,10.3c-0.7,4.9,1.8,9.9,6.1,12.3c4.4,2.4,10.1,1.8,13.8-1.6
		c3.7-3.4,5-8.9,3.1-13.6C487.5,210.7,482.9,207.8,477.9,207.9z M485.3,221.1c-0.6,3.8-4.3,6.5-8.1,5.8c-3.8-0.6-6.5-4.3-5.8-8.1
		c0.6-3.8,4.3-6.5,8.1-5.8C483.3,213.6,485.9,217.2,485.3,221.1z"/>
	<path class="st4" d="M494.5,218.9c0-0.4-0.1-0.9-0.1-1.3c0-0.1,0-0.3-0.1-0.4c-0.1-0.3-0.1-0.6-0.2-0.9c0-0.2-0.1-0.3-0.1-0.5
		c-0.1-0.3-0.2-0.6-0.2-0.9c-0.1-0.2-0.1-0.3-0.2-0.5c-0.1-0.3-0.2-0.6-0.3-0.9c-0.1-0.1-0.1-0.3-0.2-0.4c-0.2-0.4-0.4-0.8-0.6-1.3
		c-3.4-6-10.4-9.1-17.1-7.9c-6.5,1.2-11.8,6.6-12.9,13.1c-0.1,0.5-0.1,1-0.2,1.4c0,0.2,0,0.3,0,0.5c0,0.3,0,0.6,0,1
		c0,0.2,0,0.4,0,0.6c0,0.3,0,0.6,0,0.8c0,0.2,0.1,0.4,0.1,0.6c0,0.3,0.1,0.5,0.1,0.8c0,0.2,0.1,0.4,0.1,0.6c0.1,0.3,0.1,0.5,0.2,0.8
		c0.1,0.2,0.1,0.4,0.2,0.6c0.1,0.2,0.1,0.5,0.2,0.7c0.1,0.2,0.2,0.4,0.2,0.6c0.1,0.2,0.2,0.5,0.3,0.7c0.1,0.2,0.2,0.4,0.3,0.6
		c0.1,0.2,0.2,0.4,0.3,0.6c0.1,0.2,0.2,0.4,0.3,0.5c0.1,0.2,0.2,0.4,0.4,0.6c0.1,0.2,0.3,0.3,0.4,0.5c0.1,0.2,0.3,0.4,0.4,0.6
		c0.1,0.2,0.3,0.3,0.4,0.5c0.2,0.2,0.3,0.4,0.5,0.5c0.2,0.2,0.3,0.3,0.5,0.5c0.2,0.2,0.3,0.3,0.5,0.5c0.2,0.1,0.3,0.3,0.5,0.4
		c0.2,0.2,0.4,0.3,0.6,0.5c0.2,0.1,0.4,0.3,0.6,0.4c0.2,0.1,0.4,0.3,0.6,0.4c0.2,0.1,0.4,0.2,0.6,0.3c0.2,0.1,0.4,0.2,0.7,0.4
		c0.2,0.1,0.4,0.2,0.6,0.3c0.2,0.1,0.5,0.2,0.7,0.3c0,0,0,0,0.1,0c0.1,0,0.1,0,0.2,0.1c0.3,0.1,0.6,0.2,0.8,0.3c0.1,0,0.2,0,0.2,0.1
		c0.4,0.1,0.9,0.2,1.3,0.3c0.4,0.1,0.7,0.1,1.1,0.2c4.7,0.6,9.7-1,13.1-4.4c0.1-0.1,0.2-0.2,0.3-0.3c0.1-0.1,0.3-0.3,0.4-0.4
		c0.1-0.1,0.3-0.3,0.4-0.4c0.1-0.1,0.1-0.2,0.2-0.3c0.1-0.1,0.2-0.3,0.3-0.4c0.2-0.2,0.4-0.5,0.5-0.7c0.1-0.1,0.2-0.3,0.3-0.4
		c0.2-0.3,0.3-0.6,0.5-0.8c0.1-0.1,0.1-0.2,0.2-0.4c0.2-0.4,0.4-0.8,0.6-1.2c0,0,0-0.1,0.1-0.1c0.2-0.4,0.3-0.8,0.4-1.1
		c0-0.1,0.1-0.3,0.1-0.4c0.1-0.3,0.2-0.6,0.2-0.9c0-0.2,0.1-0.3,0.1-0.5c0.1-0.3,0.1-0.6,0.2-0.9c0-0.2,0-0.3,0.1-0.5
		c0-0.3,0.1-0.6,0.1-0.9c0-0.1,0-0.3,0-0.4C494.5,219.9,494.5,219.4,494.5,218.9C494.5,219,494.5,218.9,494.5,218.9z M486.3,228.9
		c-3.7,3.4-9.4,4-13.8,1.6c-4.3-2.4-6.9-7.4-6.1-12.3c1-5.6,5.6-10.1,11.5-10.3c5-0.1,9.6,2.8,11.5,7.4
		C491.4,220,490.1,225.5,486.3,228.9z"/>
	<ellipse transform="matrix(0.3183 -0.948 0.948 0.3183 117.6127 603.3615)" class="st4" cx="478.3" cy="219.9" rx="7.1" ry="7.1"/>
	<path class="st1" d="M353.6,387c4.4,0.4,7.7-2.1,10.6-4.7c6.8-6,13.3-12.4,19.9-18.8c0.1-0.1,0.2-0.2,0.3-0.3
		c6-5.8,12.7-9.6,20-11.9c-3.7,1-7.3,2.2-10.9,3.6c-8.7,3.3-17,7.5-24.7,12.6c-8.1,5.4-15.5,11.7-22.1,18.8c1.8,0.2,3.5,0.3,5.3,0.5
		C352.5,386.9,353,387,353.6,387z"/>
	<path class="st1" d="M495.5,352.5c-0.7-0.2-1.4-0.4-2.1-0.6c-4.1-1.1-8.1-2-12.3-2.7c-5.9-1.1-11.9-1.9-17.8-2.5
		c-1.8-0.2-3.5-0.3-5.3-0.4c-5.3-0.3-10.6-0.5-15.9-0.3c-8,0.2-16,1-23.9,2.3c-1.2,0.2-2.5,0.5-3.7,0.7c1.7-0.3,3.5-0.5,5.2-0.7
		c0.1,0,0.2,0.1,0.5,0.3c-2.7,1.5-5.2,3.2-7.5,5.1c-6.6,5.3-12.1,12-17.8,18.2c-6.5,7.1-14.3,11.8-23.7,13.7c-0.3,0.1-0.7,0.3-1,0.4
		c0,0.2,0.1,0.4,0.1,0.6c4.4-0.9,8.9-1.6,13.1-2.9c5.3-1.6,10.8-3.1,15.6-5.8c4.2-2.3,7.5-6.2,11.3-9.3c6.8-5.6,14-10,22.9-11
		c12.9-1.4,23.1,3.6,30.7,14.3c1.7,2.4,3.3,4.9,4.9,7.4c-0.1,0.2-0.3,0.3-0.4,0.5c-1.2-0.6-2.4-1.1-3.6-1.7
		c-11.2-5.2-22.6-5.2-34.2-2.2c-4.8,1.2-9.6,2.9-14.4,4.2c-6.4,1.7-12.9,2.8-19.5,0.6c-0.7-0.2-1.7,0.2-2.6,0.5
		c-2.6,0.9-5.2,1.9-7.7,3.1c2.7-0.2,5.4-0.5,8.1-0.4c5.4,0.1,10.9,0.1,16.3,0.7c9.4,1,16.2,6.5,21.8,13.8c2.2,2.9,4.1,6.1,6.2,9.2
		c-3.2-2-6.1-4.3-9.4-5.6c-3.4-1.3-7.2-1.9-10.9-2.1c-10.7-0.3-20.6-3.2-29.8-8.9c-0.9-0.6-1.9-1-2.7-1.6c-4.1-2.8-8.3-3.9-13.1-2.3
		c-1.5,0.5-3.3,0.5-5,0.9c17.8,3.5,30.3,14.6,40,29.6c-1.2-1-2.3-2.2-3.6-2.8c-3-1.5-6-3.2-9.2-3.8c-8.2-1.8-14.8-5.9-20.5-12.2
		c-3-3.3-6.3-6.3-9.6-9.2c-0.9-0.8-2.5-1-3.8-1.1c-3.6-0.1-7.1-0.1-10.8,0c-1.6,0-3.2,0.1-4.8,0.1c1.2,0.3,2.4,0.7,3.6,1.1
		c14.8,5,26.2,14.4,33,29.7c-0.5-0.5-0.9-0.8-1.2-1.1c-4-4-8.4-7.1-14-8.3c-8.6-1.9-14.8-7.6-20.6-13.9c-0.5-0.5-1-1.1-1.4-1.6
		c-0.9-1.1-1.9-2.1-2.8-3.2c-1.7,2.1-3.4,4.2-5,6.3c1,1,2,2,3,3c5.2,5.6,9.5,12,12.9,19.1c0.9,1.9,1.9,3.8,2.6,5.8
		c-4.6-5.4-10-9.6-16-13c-1.8-1.1-3.6-2.2-5.3-3.3c-1.2-0.8-2.3-1.6-3.4-2.4c-1.8,2.9-3.5,5.8-5.1,8.7
		c-6.2,11.5-11.1,23.7-14.9,36.1c1.4,0.4,2.1,0.6,4,1.1c11.9,3.1,24.3,4.1,36.6,3.3c15.1-1,30.1-4.5,44.4-9.5
		c13.7-4.8,26.8-11.3,38.8-19.4c11.4-7.6,21.8-16.6,31-26.6c9-9.8,17-20.7,23.7-32.2c2.1-3.6,4.1-7.3,6.1-11.1l0.2-0.4
		c0.8-1.5,1.1-2.1,1.9-3.8c0,0,0,0,0,0C496.9,352.9,496.2,352.7,495.5,352.5z"/>
	<path class="st5" d="M339.8,412.5c6,3.4,11.4,7.6,16,13c-0.7-2.1-1.7-3.9-2.6-5.8c-3.4-7.1-7.7-13.5-12.9-19.1c-1-1-2-2-3-3
		c-2.1-2-4.3-3.8-6.7-5.5c-5-3.6-10.3-6.6-15.4-10c-0.8-0.5-1.5-1.2-1.9-1.4c8,2,16.2,4.1,24.4,6.3c0.7,0.2,1.5,0.7,2,1.3
		c0.9,1,1.7,2,2.6,2.9c0.9,1.1,1.9,2.1,2.8,3.2c0.5,0.5,1,1.1,1.4,1.6c5.8,6.3,12,12,20.6,13.9c5.5,1.2,10,4.3,14,8.3
		c0.3,0.3,0.7,0.6,1.2,1.1c-6.9-15.3-18.2-24.7-33-29.7c-1.2-0.4-2.4-0.8-3.6-1.1c1.6-0.1,3.2-0.1,4.8-0.1c3.6-0.1,7.2-0.1,10.8,0
		c1.3,0,2.9,0.3,3.8,1.1c3.3,2.9,6.7,5.9,9.6,9.2c5.6,6.3,12.3,10.4,20.5,12.2c3.2,0.7,6.2,2.4,9.2,3.8c1.3,0.7,2.4,1.9,3.6,2.8
		c-9.7-15-22.2-26.1-40-29.6c1.7-0.4,3.4-0.4,5-0.9c4.8-1.7,9.1-0.5,13.1,2.3c0.9,0.6,1.8,1.1,2.7,1.6c9.2,5.7,19.1,8.6,29.8,8.9
		c3.7,0.1,7.4,0.8,10.9,2.1c3.3,1.2,6.2,3.6,9.4,5.6c-2-3.1-3.9-6.3-6.2-9.2c-5.6-7.3-12.5-12.8-21.8-13.8
		c-5.4-0.6-10.9-0.6-16.3-0.7c-2.7-0.1-5.4,0.3-8.1,0.4c2.5-1.2,5.1-2.2,7.7-3.1c0.8-0.3,1.8-0.8,2.6-0.5c6.6,2.1,13.1,1.1,19.5-0.6
		c4.8-1.3,9.6-2.9,14.4-4.2c11.6-3,23.1-3,34.2,2.2c1.2,0.6,2.4,1.1,3.6,1.7c0.1-0.2,0.3-0.3,0.4-0.5c-1.6-2.5-3.2-5-4.9-7.4
		c-7.6-10.7-17.7-15.7-30.7-14.3c-8.9,1-16.1,5.4-22.9,11c-3.8,3.1-7.1,7-11.3,9.3c-4.8,2.7-10.3,4.2-15.6,5.8
		c-4.3,1.3-8.8,1.9-13.1,2.9c0-0.2-0.1-0.4-0.1-0.6c0.3-0.1,0.7-0.3,1-0.4c9.4-1.9,17.2-6.6,23.7-13.7c5.8-6.3,11.2-12.9,17.8-18.2
		c2.3-1.9,4.8-3.6,7.5-5.1c-0.3-0.2-0.4-0.3-0.5-0.3c-1.8,0.2-3.5,0.4-5.2,0.7c-3.5,0.6-6.8,1.4-10.1,2.4c-7.3,2.4-14.1,6.2-20,11.9
		c-0.1,0.1-0.2,0.2-0.3,0.3c-6.5,6.3-13,12.7-19.9,18.8c-2.9,2.6-6.2,5.1-10.6,4.7c-0.6-0.1-1.1-0.1-1.7-0.2
		c-1.8-0.2-3.6-0.3-5.3-0.5c-1.4-0.1-2.9-0.3-4.3-0.5c-3.9-0.6-7.7-1.5-12-2.3c4.3-0.7,8-1,11.7-1.8c9.6-2.2,17.6-7.7,25.1-13.9
		c9.2-7.7,18.8-14.7,30.2-18.7c0.2-0.1,0.4-0.3,1.1-0.9c-6.2,0.1-11.7,0.3-17.2,0.3c-12.8,0-23.9,4.7-33.8,12.8
		c-5.9,4.8-11.9,9.6-18.2,13.8c-5.2,3.5-10.8,5.7-17.2,2c-4-2.4-8.4-4.1-12.6-6.1c0.4-0.4,0.6-0.5,0.8-0.4
		c10.8,3.2,20.6,0.5,29.9-5.3c7.5-4.6,14.5-10.1,23-13.1c-0.7-0.1-1.5-0.2-2.2-0.1c-4.8,0-9.6,0.6-14.3,0.1
		c-11.7-1.3-21.9,2.6-31.5,8.9c-2.8,1.9-6,3.3-9.2,4.6c-1.5,0.6-3.7,0.9-4.9,0.1c-5.9-3.8-11.5-7.9-17.3-11.9
		c8.6,0.9,16.9,0.7,25.1-1.7c9.9-2.9,18-8.3,21.9-18.5c1.5-4,1.9-8.1-0.3-12.5c-2.4,4.8-6.6,6.5-10.8,8.2c-3.5,1.4-7.2,2.2-10.7,3.7
		c-5.8,2.4-10.4,6.5-15.2,10.5c-3.5,3-7.1,5.9-11.7,6.8c-0.9,0.2-2.3-0.1-3-0.7c-3-2.5-5.9-5.1-8.8-7.7
		c-12.4-11.2-23.8-23.5-34.2-36.7c-0.6-0.7-1.2-1.4-1.8-2.2c0.7,2,1.8,3.7,2.9,5.3c11,15.7,23.6,29.9,38.1,42.3
		c1.3,1.1,2.4,2.8,3,4.5c1.9,5.4,2.3,11.1,1.8,16.8c-1.4,15.3,3.6,28,14.4,38.6c3.7,3.6,6.8,7.9,10.1,12c0.7,0.8,1.1,1.8,2,3.2
		c-0.2-5.8-1.4-10.7-3.4-15.5c-2-4.8-4.1-9.5-5.7-14.5c-1.8-5.7-3.3-11.6-4.7-17.5c-1.7-7-4.4-13.5-8-19.8c4.7,3.1,9.4,6.2,14,9.4
		c0.4,0.3,0.5,1.3,0.5,2c0,4-0.4,8.1-0.2,12.1c0.5,9,3.2,17.3,9,24.1c4.7,5.5,8.6,11.2,8.4,19c0.3-0.2,0.4-0.2,0.5-0.3
		c0.2-0.3,0.4-0.6,0.6-1c3.7-7.1,4.2-14.4,1.9-22.1c-2.2-7.5-6.8-13.4-11.1-19.7c-2.5-3.7-4.2-7.9-6.3-12c5.4,2.7,10.8,5.3,16,8.1
		c0.6,0.3,0.9,1.1,1.2,1.8c2.3,4.1,4.1,8.5,6.8,12.2c4.3,5.8,9.5,10.8,15.2,15c1.1,0.8,2.3,1.6,3.4,2.4
		C336.2,410.4,337.9,411.5,339.8,412.5z"/>
	<path class="st1" d="M286.8,253.9l0.3,0.2c1.3,1,2.6,1.9,3.9,2.8c4.2,2.9,8.6,5.5,13.2,7.6c4.7,2.2,9.7,4,14.8,4.9
		c2.1,0.3,4.2,0.5,6.3,0.6c3.6,0,7.3-0.4,10.8-1c9.2-1.8,18.4-5.8,25-12.7c2.4-2.8,4.4-6.2,5.7-9.7c1.6-4.3,2.3-8.8,2.3-13.4
		c-0.1-2.8-0.4-5.7-0.9-8.4c-0.6-3.6-1.5-7.2-2.7-10.6c-1.5-4.1-3.3-8.2-5.4-11.9c-0.1,0-0.2,0-0.3,0c-0.1,0-0.3,0-0.4,0l-0.2,0
		c-0.7,0.1-1.4,0.3-2.1,0.5c-0.2,0.1-0.4,0.1-0.6,0.2c-0.1,0-0.1,0-0.1,0.1c0,0-0.1,0-0.1,0.1c-0.4,0.2-0.8,0.4-1.2,0.6
		c-1.5,0.9-2.7,2.4-3.2,4.3c-1,3.1-0.5,6.6,0.2,9.8c0.5,2.2,1.2,4.4,1.7,6.6c0.3,1.3,0.6,2.8,0.5,4.2c-0.2,2.2-1.9,3.6-4.1,2.7
		c-2-0.7-3.7-2.2-5.4-3.4c-1-0.7-2.1-1.4-3.2-2c-0.6-0.3-0.8-0.4-1.3-0.6c-0.3-0.1-0.5-0.2-0.8-0.2c-0.1,0-0.7-0.1-0.7-0.2
		c-2.5-0.3-5.1,1-6.2,3.2c-1.5,3.2-0.4,7.4,0.7,10.5c0.6,1.6,2.2,3.8,1.2,5.5c-0.6,1.1-1.9,1.3-3.1,1.2c-3.3-0.3-6.6-1.8-9.7-2.9
		c-4.4-1.5-9-3-13.6-3.8c-4.2-0.7-8.8-1-12.9,0.7l0,0l-0.1,0c-0.1,0.1-0.2,0.1-0.3,0.2c-0.2,0.1-0.4,0.2-0.6,0.3
		c-0.5,0.3-1,0.6-1.4,0.9c-0.5,0.4-1.6,1.3-2.2,2.1c-0.6,0.7-1.3,1.9-1.8,2.9c-0.5,1.1-1,2.4-1.3,3.7c-0.3,1.3-0.5,2.6-0.7,4
		l0.2,0.2L286.8,253.9z M353.6,215c0-2.7,2.2-4.9,4.9-4.9c2.7,0,4.9,2.2,4.9,4.9c0,2.7-2.2,4.9-4.9,4.9
		C355.8,219.9,353.6,217.7,353.6,215z M340,229.5c2.7,0,4.9,2.2,4.9,4.9c0,2.7-2.2,4.9-4.9,4.9c-2.7,0-4.9-2.2-4.9-4.9
		C335.1,231.7,337.3,229.5,340,229.5z M303.3,245.3c2.7,0,4.9,2.2,4.9,4.9c0,2.7-2.2,4.9-4.9,4.9c-2.7,0-4.9-2.2-4.9-4.9
		C298.4,247.5,300.6,245.3,303.3,245.3z"/>
	
		<ellipse transform="matrix(0.9732 -0.2298 0.2298 0.9732 -23.6724 102.9989)" class="st5" cx="430.5" cy="153.2" rx="4.9" ry="4.9"/>
	<path class="st5" d="M427.7,181.2c0,2.7,2.2,4.9,4.9,4.9c2.7,0,4.9-2.2,4.9-4.9c0-2.7-2.2-4.9-4.9-4.9
		C429.9,176.2,427.7,178.4,427.7,181.2z"/>
	<path class="st5" d="M340,239.4c2.7,0,4.9-2.2,4.9-4.9c0-2.7-2.2-4.9-4.9-4.9c-2.7,0-4.9,2.2-4.9,4.9
		C335.1,237.2,337.3,239.4,340,239.4z"/>
	<path class="st5" d="M303.3,255.1c2.7,0,4.9-2.2,4.9-4.9c0-2.7-2.2-4.9-4.9-4.9c-2.7,0-4.9,2.2-4.9,4.9
		C298.4,252.9,300.6,255.1,303.3,255.1z"/>
	<path class="st5" d="M358.5,219.9c2.7,0,4.9-2.2,4.9-4.9c0-2.7-2.2-4.9-4.9-4.9c-2.7,0-4.9,2.2-4.9,4.9
		C353.6,217.7,355.8,219.9,358.5,219.9z"/>
</g>
<g>
</g>
<g>
</g>
<g>
</g>
<g>
</g>
<g>
</g>
<g>
</g>
</svg>
