<svg id="Layer_1" data-name="Layer 1" xmlns="http://www.w3.org/2000/svg" viewBox="0 0 714 714"><defs><style>.cls-1{fill:#edb256;}.cls-2{fill:#f4d3cd;}.cls-3{fill:#939598;}.cls-4{fill:#ffe9d7;}.cls-5{fill:#231f20;}</style></defs><path class="cls-1" d="M112.75537,81.47392l59.80957-1.37207v31.55078l-16.59863.41163-1.50879,59.80908-26.61231,1.23437.27442-60.35791-15.36426.27442Z"/><path class="cls-1" d="M217.55908,173.10771l.68653-28.66992-9.19141.686-.54883,26.74951L181.894,173.10771l.41114-91.63379,28.53222-1.50927L209.603,118.0999l9.05371-.54883,1.23437-34.84277,26.61231-1.23438-.41113,90.53662Z"/><path class="cls-1" d="M286.42236,80.10185l-2.33105,91.77149L257.479,173.10771l.41114-91.63379Z"/><path class="cls-1" d="M325.38037,174.6165c-11.38476,0-20.85058-3.5664-29.62988-7.40722l5.89844-28.25831c7.81933,3.15479,16.1875,5.624,21.39941,5.624,3.01855,0,5.625-.82324,5.89941-2.88086,0-3.15479-4.52734-4.11524-6.72168-4.25244-11.249-.96-27.84765-3.56641-27.84765-26.4751,0-25.24024,16.73633-32.09912,32.374-32.09912,11.38574,0,20.85059,3.5664,29.62988,7.40771l-5.89843,28.2583c-7.81934-3.15527-16.18653-5.62451-21.39942-5.62451-3.01758,0-5.07519.82324-5.34961,2.88086-.13769,3.84082,3.84082,4.11524,6.17285,4.25244,11.248.96045,27.84668,3.56641,27.84668,26.4751C357.48,167.75761,341.019,174.6165,325.38037,174.6165Z"/><path class="cls-1" d="M445.41162,81.19951l-.68555,32.51074c-3.5664-.54883-24.14257-2.46924-24.417,16.46143-.27441,20.85058,25.78906,12.62011,25.78906,12.62011l3.15528,31.002s-56.792,10.97412-55.96875-46.91455C393.97119,78.18144,432.7915,78.04424,445.41162,81.19951Z"/><path class="cls-1" d="M459.12939,81.47392l28.25879-1.37207c-.96093,8.64209-6.585,65.5708,3.97754,65.4336,10.28809-.13721,5.89844-53.08741,4.80176-64.06153l28.53223-1.50927c1.37207,14.67822,9.05371,95.06347-34.43164,94.65185C445.13721,174.20488,457.75732,92.58525,459.12939,81.47392Z"/><path class="cls-1" d="M558.03467,79.14189c10.28808-.686,43.21-2.88086,43.21,32.64795,0,35.666-37.03711,33.334-37.03711,33.334l-.41211,26.74951-26.6123,1.23437s.82324-88.61621.96093-89.30176A66.49293,66.49293,0,0,1,558.03467,79.14189Zm6.99609,42.66162s10.28809.54883,10.42481-7.40722c.13769-8.91651-10.42481-6.85889-10.28809-6.85889S565.03076,121.80351,565.03076,121.80351Z"/><path class="cls-2" d="M113.76514,199.65361a75.13014,75.13014,0,0,1,30.93457-6.63867c17.65625,0,30.36914,11.44141,30.36914,27.68506,0,9.88769-3.53223,16.24365-8.89942,20.33984,7.62793,3.67285,12.99512,10.59375,12.99512,22.459,0,16.52636-13.55957,28.10888-32.62891,28.10888-18.78613,0-31.35742-8.19238-31.35742-8.19238ZM140.1792,263.075s10.45312,2.54248,10.16992-5.36719c-.28223-8.05127-10.02832-6.63916-10.02832-6.63916Zm.1416-26.69629s10.45215-.56494,10.02832-7.0625c-.56445-8.75733-10.02832-5.085-10.02832-5.085C140.4624,224.23125,140.3208,236.37871,140.3208,236.37871Z"/><path class="cls-2" d="M238.34814,194.28594l-1.69531,28.81542s-14.125.84717-20.90527,1.271v6.35645c5.36719-.14112,16.10254-.70655,16.10254-.70655L231.144,253.47s-8.61621.14111-15.39648.28271v8.3335l19.35156-2.6836s-.84766,20.05762-1.12988,27.96778l-47.03711,2.8247.42383-94.49658Z"/><path class="cls-2" d="M277.05029,194.28594,275.355,262.08623l19.35156-2.6836s-.84765,20.05762-1.12988,27.96778l-47.03711,2.8247.42383-94.49658Z"/><path class="cls-2" d="M339.19971,193.01494c25.5664,0,37.00781,22.03516,37.00781,49.29639s-12.85352,49.29638-37.00781,49.29638c-24.15332,0-36.86621-22.03515-36.86621-49.29638S313.6333,193.01494,339.19971,193.01494Zm-.28223,65.68164c7.34473,0,11.29981-6.63916,11.29981-15.11426,0-8.19238-3.53125-14.97217-11.29981-14.97217s-11.2998,6.77979-11.2998,14.97217C327.61768,252.05742,331.57275,258.69658,338.91748,258.69658Z"/><path class="cls-2" d="M385.38818,289.91289s.42383-84.8916.28223-94.21436l29.66309-1.55371c2.82519,10.59375,10.16992,39.97412,10.16992,39.12647,0,.42382.56543-37.57276.56543-37.57276l27.68457-1.41259s-2.25977,91.813-1.69531,91.813c.56543,0-27.9668,2.6836-27.9668,2.6836l-10.59375-41.38623-.84766,41.52783Z"/><path class="cls-2" d="M498.95264,260.81523h1.55371c0-3.67285-.56446-20.19873-.56446-20.34033l26.27247.1416-.98926,48.30762a46.81155,46.81155,0,0,1-15.67871,2.68359c-22.459,0-47.31836-7.76855-47.31836-46.33008,0-45.20019,35.03027-50.99169,53.6748-50.99169a54.745,54.745,0,0,1,10.0293.70654s-.56543,34.32373-.84766,34.0415c-4.66113-1.13037-7.91015-1.97754-12.43066-1.97754-13.55957,0-22.88184,7.76856-22.88184,19.21C489.772,260.3914,495.98682,260.81523,498.95264,260.81523Z"/><path class="cls-2" d="M566.04736,291.60771c-11.72363,0-21.46972-3.67236-30.50976-7.62744l6.07324-29.09766c8.05176,3.24854,16.668,5.791,22.03516,5.791,3.10742,0,5.791-.84717,6.07421-2.96582,0-3.249-4.6621-4.23779-6.92187-4.37891-11.582-.98877-28.67383-3.67236-28.67383-27.26123,0-25.99023,17.23242-33.05273,33.335-33.05273,11.72461,0,21.47071,3.67236,30.51074,7.62744L591.896,229.74c-8.05079-3.249-16.667-5.79151-22.03516-5.79151-3.10742,0-5.22559.84766-5.50879,2.96631-.14062,3.95508,3.95508,4.23779,6.35645,4.37891,11.583.98877,28.67382,3.67236,28.67382,27.26123C599.1001,284.54521,582.1499,291.60771,566.04736,291.60771Z"/><path class="cls-1" d="M116.63037,309.30888l43.54883-.99853v22.97314l-12.08594.29981-1.09863,43.54931-19.377.89893.19921-43.94873-11.18652.19971Z"/><path class="cls-1" d="M191.23975,307.41142c18.0791,0,26.16992,15.58155,26.16992,34.85938,0,19.27734-9.08985,34.85937-26.16992,34.85937s-26.06934-15.582-26.06934-34.85937C165.17041,322.993,173.16064,307.41142,191.23975,307.41142Zm-.19922,46.4458c5.19336,0,7.99023-4.69433,7.99023-10.6875,0-5.79345-2.49707-10.58789-7.99023-10.58789-5.49414,0-7.99121,4.79444-7.99121,10.58789C183.04932,349.16289,185.84619,353.85722,191.04053,353.85722Z"/><path class="cls-1" d="M252.96338,376.03154s-10.8877-54.33691-13.28516-66.72266l20.07715-.99853,4.19531,36.75732H265.648l5.99316-35.65869h11.88672l6.09278,35.65869h1.69824l4.19433-35.75879,20.07715-.89892c-2.29687,11.28711-12.28613,66.62256-12.28613,66.62256l-20.875.79931s-2.49707-15.18261-3.89551-23.87255H276.436c-1.69825,8.39062-4.59473,22.87353-4.59473,22.87353Z"/><path class="cls-1" d="M344.25146,307.41142c18.07911,0,26.16993,15.58155,26.16993,34.85938,0,19.27734-9.08985,34.85937-26.16993,34.85937s-26.06933-15.582-26.06933-34.85937C318.18213,322.993,326.17236,307.41142,344.25146,307.41142Zm-.19921,46.4458c5.19336,0,7.99023-4.69433,7.99023-10.6875,0-5.79345-2.49707-10.58789-7.99023-10.58789-5.49414,0-7.99121,4.79444-7.99121,10.58789C336.061,349.16289,338.85791,353.85722,344.05225,353.85722Z"/><path class="cls-1" d="M392.29248,307.61113c1.39844-.1001,3.39648-.19971,5.69336-.19971,9.88867.09961,25.6709,2.89649,25.6709,23.97217,0,10.188-4.19531,16.08106-9.18945,19.57715,4.99414,7.791,11.58593,17.87891,11.58593,17.87891l-18.37793,9.28955-9.68945-22.47412h-.998l-.5,19.47753-19.377.89893s.39941-64.5249.499-65.02441A50.70139,50.70139,0,0,1,392.29248,307.61113Zm5.39453,20.67578-.2998,10.38819c.19922,0,7.3916.39941,7.49121-5.394C404.978,327.28789,398.58545,328.0872,397.687,328.28691Z"/><path class="cls-1" d="M451.62061,308.31035l-1.19922,47.94434,13.68457-1.89795s-.59961,14.18359-.79883,19.77685l-33.26172,1.998.2998-66.82276Z"/><path class="cls-1" d="M489.37354,307.41142c13.38476.09961,29.36621,5.39356,29.36621,31.96289,0,45.647-46.64649,36.85694-46.64649,36.85694s-.39941-66.62256-.69922-66.32276A73.08582,73.08582,0,0,1,489.37354,307.41142Zm3.29589,47.54444c.29981-.499,8.79-2.49707,8.58985-13.48438-.19922-13.88379-8.49024-10.5874-8.29-10.78711C493.16943,330.48418,492.86963,354.35674,492.66943,354.95586Z"/><path class="cls-1" d="M532.81982,303.91533c5.39356-.79932,8.29,3.5957,8.68946,8.78955.79883,11.58691-6.292,15.582-15.28223,15.88184l-.39941-3.29639c3.19629,0,8.39062-.79883,9.88867-4.79443-4.99414,1.59814-8.49024-1.99756-8.98926-6.9917C526.02783,308.80937,527.82568,304.71416,532.81982,303.91533Z"/><path class="cls-1" d="M572.47119,377.13017c-8.291,0-15.18262-2.59668-21.57519-5.39355l4.29492-20.57617c5.69336,2.29736,11.78613,4.09521,15.582,4.09521,2.19726,0,4.0957-.59912,4.29492-2.09765,0-2.29737-3.2959-2.99659-4.89453-3.0962-8.19043-.69921-20.27637-2.59716-20.27637-19.27783,0-18.37842,12.18653-23.37256,23.57324-23.37256,8.29,0,15.18165,2.59668,21.57422,5.39356l-4.29492,20.57617c-5.69336-2.29736-11.78613-4.09521-15.582-4.09521-2.19727,0-3.69531.59912-3.89551,2.09765-.09961,2.79639,2.79688,2.9961,4.49512,3.09619,8.19043.69922,20.27637,2.59717,20.27637,19.27783C595.84424,372.136,583.85791,377.13017,572.47119,377.13017Z"/><path class="cls-2" d="M115.27783,399.87187a70.2661,70.2661,0,0,1,28.93262-6.209c16.51367,0,28.40332,10.70068,28.40332,25.89355,0,9.24756-3.30273,15.19239-8.32324,19.02393,7.13379,3.43457,12.15429,9.9082,12.15429,21.00537,0,15.457-12.68261,26.29-30.51757,26.29-17.57032,0-29.32813-7.66211-29.32813-7.66211Zm24.70508,59.31787s9.77539,2.37793,9.51172-5.0205c-.26465-7.53028-9.37988-6.209-9.37988-6.209Zm.13184-24.96923s9.77636-.52832,9.37988-6.60547c-.52832-8.19092-9.37988-4.75586-9.37988-4.75586C140.24658,422.85918,140.11475,434.22051,140.11475,434.22051Z"/><path class="cls-2" d="M231.80127,394.85185l-1.585,26.9502s-13.21094.793-19.55274,1.189v5.94532c5.02051-.13233,15.06055-.66065,15.06055-.66065l-.66016,21.93018s-8.05859.13232-14.40039.26416v7.79492l18.09961-2.51025s-.793,18.75976-1.05664,26.15771L183.71338,484.555l.39648-88.38233Z"/><path class="cls-2" d="M269.05908,485.87578c-10.96582,0-20.08105-3.43457-28.53613-7.13379l5.68066-27.21484c7.53028,3.03857,15.58887,5.4165,20.60938,5.4165,2.90625,0,5.417-.79248,5.68066-2.77441,0-3.03858-4.35937-3.96338-6.47363-4.09522-10.833-.9248-26.81836-3.43506-26.81836-25.49756,0-24.3081,16.11816-30.91357,31.17871-30.91357,10.96484,0,20.08008,3.43457,28.53516,7.13379l-5.68067,27.21484c-7.53027-3.03857-15.58886-5.4165-20.60937-5.4165-2.90625,0-4.8877.79248-5.15235,2.77441-.13183,3.69873,3.69922,3.96289,5.94532,4.09522,10.833.9248,26.81836,3.435,26.81836,25.49755C299.97314,479.27031,284.11963,485.87578,269.05908,485.87578Z"/><path class="cls-2" d="M309.75146,396.17265l57.59961-1.3208v30.38526l-15.98535.39648-1.45312,57.6001-25.62891,1.189.26367-58.1289-14.7959.26465Z"/><path class="cls-2" d="M434.46631,457.076h1.4541c0-3.435-.5293-18.89209-.5293-19.02392l24.57325.13183-.92481,45.18213a43.79419,43.79419,0,0,1-14.66406,2.50977c-21.00586,0-44.25781-7.26611-44.25781-43.332,0-42.27539,32.76367-47.6919,50.20214-47.6919a51.24539,51.24539,0,0,1,9.37989.66016s-.52832,32.103-.793,31.83887c-4.35938-1.05713-7.39746-1.84961-11.625-1.84961-12.68262,0-21.40235,7.26611-21.40235,17.96728C425.87939,456.67949,431.69287,457.076,434.46631,457.076Z"/><path class="cls-2" d="M489.95557,393.92705c9.9082-.66065,41.61523-2.77442,41.61523,31.44238,0,34.34863-35.66992,32.10254-35.66992,32.10254l-.39649,25.76172-25.6289,1.189s.792-85.34326.9248-86.0039A64.03011,64.03011,0,0,1,489.95557,393.92705Zm6.73828,41.08642s9.9082.52832,10.04-7.13427c.13183-8.58692-10.04-6.60547-9.90821-6.60547S496.69385,435.01347,496.69385,435.01347Z"/><path class="cls-2" d="M578.606,394.85185s19.94824,84.68262,20.21289,84.68262c.26367,0-26.29,4.4917-26.29,4.75586,0,.13232-.92481-5.8125-1.84961-13.60693l-12.418-.26465c-1.18945,7.92676-2.24609,14.0039-2.24609,14.0039-.26465.13233-25.89356-3.17089-25.89356-3.17089s20.34473-84.94678,20.47656-85.07911C550.73,396.04082,578.606,394.85185,578.606,394.85185Zm-14.92871,40.0293s-.92481,5.813-1.98145,13.21094H567.773c-1.05664-7.39795-1.71777-13.4751-1.71777-13.4751Z"/><path class="cls-3" d="M408.74923,535.6986c4.59829-2.99855,10.67591-1.43059,14.54067,2.10867,8.59237,7.86871,8.716,27.74279,0,35.84727-4.11265,3.82408-10.68646,5.48631-15.396,2.10866C398.21,568.818,398.7325,542.23052,408.74923,535.6986Z"/><path class="cls-4" d="M334.78207,509.06341h42.53132a41.776,41.776,0,0,1,41.776,41.776v30.352a53.95528,53.95528,0,0,1-53.95528,53.95528H346.96139a53.95528,53.95528,0,0,1-53.95528-53.95528v-30.352a41.776,41.776,0,0,1,41.776-41.776Z"/><path class="cls-3" d="M315.91361,556.44186c-1.55137-13.23933-16.83276-21.3696-23.8985-18.3021-10.6548,4.62564-10.08236,37.95068-.14767,41.88132C299.24688,582.94076,317.736,571.99386,315.91361,556.44186Z"/><path class="cls-5" d="M331.69681,563.93978a10.973,10.973,0,0,1,9.66647-6.436,10.81686,10.81686,0,0,1,9.78591,6.49462,1.42405,1.42405,0,0,0,1.93266.50676,1.445,1.445,0,0,0,.50676-1.93265,13.71376,13.71376,0,0,0-8.82251-7.46563,13.26768,13.26768,0,0,0-11.16692,2.1767,14.09412,14.09412,0,0,0-4.34179,5.23033,1.45111,1.45111,0,0,0,.50676,1.93266,1.425,1.425,0,0,0,1.93266-.50676Z"/><path class="cls-5" d="M376.88543,563.99933a10.973,10.973,0,0,1,9.66648-6.436,10.81684,10.81684,0,0,1,9.7859,6.49463,1.42407,1.42407,0,0,0,1.93266.50676,1.445,1.445,0,0,0,.50676-1.93266,13.71372,13.71372,0,0,0-8.8225-7.46563,13.26774,13.26774,0,0,0-11.16693,2.17671,14.09411,14.09411,0,0,0-4.34179,5.23032,1.45113,1.45113,0,0,0,.50676,1.93266,1.425,1.425,0,0,0,1.93266-.50676Z"/><ellipse class="cls-3" cx="341.46673" cy="544.34734" rx="8.19055" ry="2.95811" transform="translate(-66.43062 47.82614) rotate(-7.30359)"/><ellipse class="cls-3" cx="386.61162" cy="544.24222" rx="2.95811" ry="8.19055" transform="translate(-197.35581 867.73902) rotate(-83.59614)"/><path class="cls-5" d="M398.10381,547.05817H375.11927a7.83547,7.83547,0,0,0-7.82649,7.82678v3.88359h-6.50719V554.885a7.83559,7.83559,0,0,0-7.827-7.82678h-22.984a7.83547,7.83547,0,0,0-7.82649,7.82678v9.60627a7.83547,7.83547,0,0,0,7.82649,7.82677h22.984a7.83559,7.83559,0,0,0,7.827-7.82677v-3.88359h6.50719v3.88359a7.83547,7.83547,0,0,0,7.82649,7.82677h22.98454a7.83548,7.83548,0,0,0,7.8265-7.82677V554.885A7.83548,7.83548,0,0,0,398.10381,547.05817Zm-39.57832,17.433a5.57308,5.57308,0,0,1-5.56694,5.56667h-22.984a5.57261,5.57261,0,0,1-5.56639-5.56667V554.885a5.57261,5.57261,0,0,1,5.56639-5.56667h22.984a5.57308,5.57308,0,0,1,5.56694,5.56667v3.88359h-.05732v1.83909h.05732Zm45.14471,0a5.57261,5.57261,0,0,1-5.56639,5.56667H375.11927a5.57261,5.57261,0,0,1-5.56639-5.56667v-3.88359h.01359v-1.83909h-.01359V554.885a5.57261,5.57261,0,0,1,5.56639-5.56667h22.98454a5.57261,5.57261,0,0,1,5.56639,5.56667Z"/><path class="cls-5" d="M365.57341,574.19977a4.08955,4.08955,0,0,1,2.97913,1.153,3.12427,3.12427,0,0,1,.99724,2.4715,3.51418,3.51418,0,0,1-1.39113,2.34035,4.19293,4.19293,0,0,1-3.14394.76327.87916.87916,0,0,0-.87478.87477.89708.89708,0,0,0,.87478.87478,5.7088,5.7088,0,0,0,5.79094-3.03854,4.81425,4.81425,0,0,0-1.39744-5.86281,5.91872,5.91872,0,0,0-3.8348-1.3259.8753.8753,0,0,0,0,1.74954Z"/><path class="cls-3" d="M346.431,584.74279c-4.24632,1.82488-9.992,6.20607-9.32783,9.6287,1.77205,9.131,49.39316,12.61128,53.55961,1.50448,1.39781-3.72621-1.97587-9.41281-6.01789-11.735-4.21017-2.41874-6.97868.05746-16.89581.51292C355.83472,585.20109,352.94523,581.9433,346.431,584.74279Z"/><path class="cls-5" d="M355.16927,606.39005a12.69562,12.69562,0,0,0,4.55312,4.37025,11.67462,11.67462,0,0,0,11.038.183,12.22029,12.22029,0,0,0,4.8335-4.55323c.71166-1.16741-1.12007-2.23328-1.82956-1.06942a9.8118,9.8118,0,0,1-11.07438,4.42791,10.11224,10.11224,0,0,1-4.17017-2.5524,8.32172,8.32172,0,0,1-1.52092-1.87551,1.06022,1.06022,0,0,0-1.82957,1.06942Z"/></svg>