<?xml version="1.0" encoding="utf-8"?>
<!-- Generator: Adobe Illustrator 26.5.1, SVG Export Plug-In . SVG Version: 6.00 Build 0)  -->
<svg version="1.1" id="Capa_de_píxeles_xA0_Imagen_00000115478999391608587660000005436258628793207461_"
	 xmlns="http://www.w3.org/2000/svg" xmlns:xlink="http://www.w3.org/1999/xlink" x="0px" y="0px" viewBox="0 0 714 714"
	 style="enable-background:new 0 0 714 714;" xml:space="preserve">
<style type="text/css">
	.st0{fill:#F9EFDE;}
	.st1{fill:#BAA667;}
	.st2{fill:#F5ECDF;}
	.st3{fill:#98A1A8;}
	.st4{fill:#F7F0DC;}
	.st5{fill:#A57E4A;}
	.st6{fill:#FCE3E8;}
	.st7{fill:#8D9599;}
	.st8{fill:#C44614;}
	.st9{fill:#3D5472;}
</style>
<g>
	<path d="M674.5102539,415.3888245c-0.7802734-0.8735962-2.2788086-1.4329224-3.3818359-1.7600708
		c-0.8574219-0.2543335-1.7763672-0.3632813-2.6347656-0.5896606c-2.2421875-0.5917358-4.4199219-1.4213257-6.4936523-2.4588013
		c-1.3496094-0.675293-2.6552734-1.4381104-3.909668-2.2775879c-0.640625-0.428833-1.2675781-0.8776855-1.8808594-1.3449707
		c-0.2983398-0.2275391-0.5932617-0.4594116-0.8852539-0.6955566c-0.2485352-0.201355-0.699707-0.4520874-0.8671875-0.7230835
		c-3.7626953-6.0721436-12.3144531-5.9799805-17.0966797-11.0185547c-4.4448242-4.0429077-9.6123047-6.4151611-14.9189453-9.1113892
		c-4.359375-2.3121948-8.3056641-5.2922363-12.2241211-8.255249c-3.5458984-2.1466064-7.6010742-3.4187622-11.2280273-5.3251953
		c-4.0883789-6.5559692-10.6938477-10.3068848-17.5615234-13.244873
		c-5.7172852-5.1763916-10.6044922-11.3259277-16.2167969-16.6812134
		c-2.8603516-4.0974121-6.8666992-7.4056396-10.8193359-10.4641724
		c-5.7490234-3.7633057-11.8032227-7.1293335-17.2075195-11.4383545c-3.2304688-2.8821411-5.8945313-6.2977295-8.7456055-9.5715942
		c-2.8935547-3.4050293-6.512207-6.0906982-9.3334961-9.5700073c-4.2631836-5.5653076-7.3158875-11.939209-12.0497742-17.147522
		c-0.5537109-0.7647095-2.5585938-2.4854126-4.3393555-3.2818604c-4.7299805-3.3912964-11.3393555,13.4067993-14.1342773,16.6439819
		c-3.0019531,4.5606689-7.4819336,7.9101563-10.5478516,12.3756104c-2.097168,3.6516724-2.6582031,7.9328613-4.3779297,11.749939
		c-0.9838867,2.4632568-3.6538086,3.312439-5.7143555,4.6499023c-5.4179688,2.7706299-7.2270508,8.6611938-9.6357422,13.7709351
		c-5.3540039,3.3565063-13.2817383,6.3614502-19.1201172,2.5837402c-1.5727539-0.8571167-3.1708984-2.7005005-4.8530273-3.6613159
		c-9.4067383-5.9077759-19.8505859-9.9360962-29.3959961-15.5401001c-4.5317383-3.0211792-6.1420898-8.6078491-8.2216797-13.3610229
		c-3.3989258-7.522644-8.3037109-15.6095581-16.7641602-17.9275513c-2.777832-0.7553101-5.4301758-2.0011597-7.5791016-3.9414673
		c-5.8017578-5.9771729-6.6640625-7.1882324-13.6777344-1.6925049c-5.9819336,4.4228516-13.0615234,9.1760864-18.2661133,14.0507813
		c-4.5795898,3.7548218-10.0273438,7.6962891-16.1176758,8.4385376
		c-14.8496094-0.0130005-22.5810547,1.6538696-33.8408203,12.0588379c-2.8833008,3.2738037-7.059082,3.3787842-11.1040039,3.75
		c-13.543457,1.7503662-14.4233398,7.0089111-28.4448395-1.5359497c-5.796875-5.9974365-13.3154297-9.5887451-21.0253906-12.4854126
		c-2.2260742-0.9868164-5.1938477-1.1906128-6.1171875-3.7792358c-1.4804688-3.3566895-2.6303711-8.1586304-7.027832-8.4256592
		c-4.722168-0.1587524-9.3178711,2.1052856-12.5795898,5.4347534c-4.152832,3.6165771-6.0932617,8.8342285-9.3242188,13.137207
		c-1.800293,2.2216187-4.4594727,3.3847656-6.9150391,4.7122192c-9.6459961,4.6207886-15.0180664,14.3806152-23.53125,20.4584961
		c-8.2983398,7.0432739-17.0004883,6.6117554-25.4604492,8.7985229c-0.3608398-0.0491333-0.8989258,0.0239258-1.2304688,0.3393555
		c-3.234375,0.9453735-6.4291992,2.343811-9.5463867,4.7740479c-5.0048752,4.2982788-10.25634,8.3410645-14.9247971,13.0040894
		c-2.6606445,2.5553589-5.3901367,5.026001-8.3901367,7.2067261c-5.3725586,5.298645-10.9731445,10.6229858-18.2958984,13.0537109
		c-8.0185547,1.1090088-16.4604492-0.6590576-24.1352577,2.7781372c-7.1904297,2.0425415-12.699707,7.4528809-19.6586914,9.8569336
		c-2.1464844,0.4313354-3.949707,0.4353027-3.5556641,3.234436c0.2524414,1.0516357,1.2211914,1.7510376,2.237793,1.5134277
		c5.4272461-0.5887451,9.7583008-4.3105469,14.3481445-6.9441528c3.6425781-1.9117432,7.4667969-3.4645996,11.4233437-4.5830688
		c6.9213867-2.0947876,14.3500977,0.1645508,21.2285156-1.8450317c7.1044922-2.784729,12.9736328-7.593811,18.1420898-13.078125
		c4.5488281-3.2055664,8.019043-7.6651001,13.2749023-9.6702881c6.7421875-2.9476929,4.2456055,1.3856812,9.4516525,2.885376
		c1.7504883,0.4239502,2.7412109,1.1502075,1.3847656,2.9287109c-1.6508789,2.0839844-2.6796875,4.5838013-4.22509,6.7206421
		c-2.2817383,1.9437256-3.0395508,4.8566895-4.6650391,7.2443237c-6.1889648,4.4664307-4.6142578,8.8966064-0.9306641,12.9651489
		c1.0200195,1.0800781,2.3994141,1.9086304,2.9306641,3.3743896c0.6435547,2.0010376,0.387207,4.4004517,1.5131836,6.2188721
		c0.5117188,1.9277344,2.1899414,3.8997803,4.3315353,3.9173584c0.3061523-2.0450439-0.3642578-4.0194702-0.9038086-5.9780884
		c0.0874023-6.6624146-0.9623947-7.1676025-5.7836838-11.3717651c-0.4858398-1.0916748-1.2358398-2.2438965-1.1152344-3.4785156
		c1.2788086-1.4942627,3.1445313-2.4158936,4.121582-4.1459961c0.4555664-0.9805298,0.4770508-2.2004395,1.7348633-2.5386963
		c2.8603439-0.772583,5.053215-3.1897583,5.6874924-6.0692139c0.5639648-1.8380127,0.5869141-4.2807007,2.515625-5.2721558
		c5.0014648-0.805542,6.8833008,2.7744141,9.4594727,6.2562866c2.4423828,2.3531494,8.3378906,8.5678101,11.8203125,6.1809082
		c-1.2109375-4.8151855-7.0820313-6.0794678-9.6474609-10.0021973c-1.7363281-2.4104614-3.5688477-4.7229614-5.8686523-6.6533813
		c-1.6870117-2.0895386-2.7431641-4.6521606-4.9306641-6.2941895c-2.1347656-1.7209473-3.9941406-4.9245605-2.3818359-7.5591431
		c7.0195313-8.2138672,19.6293945-4.8669434,27.8994141-11.178772c9.2900391-4.9776001,15.2338867-15.0192261,23.7026367-20.9307861
		l0.1142578-0.0396729l-0.0883789,0.1350098l0.1821289-0.1398315l0.0517578,0.0518188l0.0849609-0.0829468l0.0449219-0.0057983
		l0.2124023,0.0307007c0.1694336,0.0526733,0.3007813,0.1651001,0.4101563,0.3540649
		c0.1064453,0.1868286,0.1704102,0.4443359,0.1699219,0.699646c0,0.1263428-0.015625,0.2530518-0.0439453,0.3704224
		c-0.1538086,0.6412354-0.6474609,1.2584229-1.1005859,1.9946289c-0.6196289,1.0237427-1.0107422,2.1809082-1.1401367,3.3704834
		c-0.1074219,1.0372925-0.0356445,2.0130615-0.2397461,2.8649902c-0.2104492,0.9046631-0.7387695,1.7436523-1.4633789,2.3249512
		c-0.5727539,0.4647217-1.3232422,0.8000488-2.0600586,1.2874756c-1.4404297,0.965271-2.4584961,2.3381348-3.3574219,3.7265625
		c-6.3232422,3.9104004-12.6484375,7.611145-15.0092773,15.4984131c-0.4648438,0.7061157-1.328125,1.0101318-1.628418,1.8496094
		c-0.4599609,1.1005249-0.0541992,2.5961304,1.1459961,3.0081177c3.2661133,0.3293457,4.3647461-4.1484375,5.4238281-6.512146
		c0.7001953-1.5076904,1.8808594-2.6990356,3.0625-3.8387451c2.9765625-2.5175171,6.3188477-4.6115723,9.5625-6.7214966
		c1.4287109-0.7432251,2.840332-1.5355835,4.1567383-2.4379272c0.4516602-0.1795044,0.9033203-0.3562012,1.3613281-0.5070801
		c1.3671875-0.451355,2.8085938-0.7474365,4.2109375-0.7470703c0.8999023,0.000061,1.7836914,0.1211548,2.6298828,0.3980713
		c0.5952148,0.194458,1.1479492,0.4650269,1.5688477,0.848938c0.6279297,0.567627,1.0073242,1.4325562,1.15625,2.3374634
		c0.0537109,0.3237915,0.0805664,0.652832,0.0805664,0.9821167c0,0.5268555-0.0698242,1.0546265-0.2060547,1.5635376
		c-0.081543,0.3065796-0.1948242,0.6152344-0.3164063,0.9275513c-2.1474609,3.3376465-1.1064453,7.5495605-0.6918945,11.3320923
		c0.0507813,2.9163208-2.1108398,5.2963867-3.5981445,7.6296997c-3.7104492,3.2976074-4.3374023,8.5678101-6.4970703,12.7647095
		c-3.6157227,3.3533936-8.6767578,4.9072266-12.6513672,7.8659668c-3.855957,2.0162964-6.7973633,5.1446533-8.8676758,8.9521484
		c-2.6000977,3.9650879-5.6376953,7.6032715-9.1621094,10.7824097c-0.9370117,0.8452759-4.4638672,4.5679321-3.2924805,5.9536133
		c2.0429688,2.416687,7.9472656-4.8997803,9.1152344-5.8942261c3.390625-3.4052734,5.8027344-7.5501709,8.5498047-11.4486084
		c1.9091797-1.3287354,4.1821289-2.2120972,6.4970703-2.8076172c3.2353516-0.8354492,6.6259766-1.1951294,9.9609375-2.0222778
		c3.7680664-0.9420776,7.4023438-2.4337769,11.0820313-2.4280396c0.2026367,0,0.40625,0.0045166,0.6098633,0.0137329
		c2.8657227,0.1245117,5.6875,1.2320557,8.6992188,1.725708c2.1083984,0.3398438,4.206543,0.3574829,6.2011719,0.7197876
		c3.9868164,0.7173462,7.5986328,2.817688,10.5551758,5.6738281c0.7192383,1.2337036,1.4262695,2.5079956,2.1982422,3.8492432
		c6.4448242,11.3793945,21.418457,6.2126465,32.9673004,22.6195679l0.0375977-0.0036011
		c2.7480469,2.7449951,6.4526367,4.4202881,10.2495117,5.0909424c1.2807617,0.2263184,12.5737305,1.105896,10.0214844-2.3555908
		c-0.7216797-0.979248-2.3320313-1.3621826-3.4423828-1.6553955c-2.46875-0.6517334-5.2714844-0.7842407-7.3237305-2.4694824
		c-7.8769531-6.4678345-16.1049957-12.5043335-25.8759918-15.8302612c-4.7314453-1.914856-10.6259766-2.661499-13.3129883-7.5622559
		c-8.1181641-16.7277222-15.4013672-16.1474609-31.4907227-21.2492065
		c-7.0410156-4.776123,5.2612305-8.7476807,5.6660156-13.7089844c0.3974609-1.1907349,0.1821289-2.5050659-0.5327148-3.5795288
		c-3.4912109-4.4987183-5.3881836-8.6179199,0.5869141-12.0198364c4.2250977-2.2956543,5.2158203,0.7592163,8.8496094,2.4816895
		c6.1943359,3.5462646,12.3413086,7.1799927,18.8237305,10.2067871c3.8876953,1.727478,8.043457,2.7852173,11.6005859,5.2178955
		c3.3911133,2.2192993,6.3579102,5.5181274,10.3569336,6.6205444c2.3330078,0.3428955,0.5522461-2.5575562-0.043457-3.3898315
		c-1.3989258-1.9534302-3.3520508-3.0358276-5.1020508-4.5807495c-6.4804688-5.7212524-15.277832-7.1447754-22.5288086-11.598938
		c-4.0170898-2.164856-7.9462891-4.4882202-11.9135742-6.7250366c-1.109375-1.5091553-1.9873047-3.1794434-2.9155273-4.8190918
		c-0.4111328-1.2032471-1.1704102-2.281189-2.0078125-3.1831055l-0.0483398-0.0479736
		c-0.0771484-0.1030273-0.1479492-0.210144-0.2275391-0.3115234c-0.5791016-0.7086792-1.2709961-1.2876587-2.0014648-1.8231812
		c-0.5581055-0.5201416-1.0991211-1.0426025-1.5688477-1.6105957c-1.6040039-1.9307861-2.4916992-4.4544067-2.4912109-6.9675293
		c0-0.5404663,0.0415039-1.0803833,0.1245117-1.6138916c0.1821289-1.1743774,0.5825195-2.3131104,1.3364258-3.107605
		c0.8203125-0.8730469,2.0761719-1.3190308,3.3398438-1.3180542c0.2177734,0,0.4355469,0.0132446,0.6508789,0.0393677
		c1.1645508,0.1405029,2.28125,0.6375732,3.2993164,1.3128052c1.5849609,1.8973389,3.5932617,3.4101563,5.7163086,4.6866455
		c3.4750977,2.7069092,6.6152344,5.8521729,10.5073242,8.0205688c3.730957,2.9016724,8.8632813,2.907959,12.5322266,5.7990723
		c2.6064453,2.8519897,4.6342773,6.182373,7.4443359,8.8859863c5.1308594,4.9245605,10.328125,9.9157715,15.9878082,14.2219849
		c1.0522461,0.7999878,2.2558594,1.574646,3.5458984,1.9213257c2.2666016,0.6087646,1.8510742-1.6533203,1.0859375-2.907959
		c-1.4370117-2.355957-3.9907227-3.8235474-6.0317383-5.5848999c-1.5-1.2943726-3.0390625-2.5430298-4.5263824-3.8521729
		c-0.487793-0.4291382-4.2089844-3.3755493-4.0239258-3.9337769c0.2421875-0.7304077,0.8144531-0.9003296,1.4716797-0.8462524
		c5.5000153,3.2628174,11.8159332,4.4118652,17.8017731,6.3474731c2.7026367,1.3116455,5.1572266,3.9636841,8.4267578,2.8758545
		c-0.394043-5.375061-9.2304688-8.0012207-13.6757813-8.9422607c-4.3632813-1.1563721-8.8286133-2.9193115-12.7251129-5.2955933
		c-4.8710938-3.0263672-10.2680664-6.5392456-15.6503906-9.3737793c-2.9453125-1.791687-6.4345703-2.4039917-9.5058594-3.8815308
		c-2.2685547-1.8041992-4.5371094-3.6082153-6.8056641-5.4123535c-1.1040039-0.8775024-2.1953125-1.7468262-3.1728516-2.7128296
		c-0.9311523-0.9197388-1.7749023-1.9431763-2.6132813-2.9875488c-1.2158203-1.5153198-2.3945313-3.045105-3.3295898-4.7007446
		c-0.7006836-1.2349243-1.2426758-2.6655884-1.2397461-3.9655151c0.0004883-0.6270142,0.1210938-1.2220459,0.3999023-1.7770996
		c0.3964844-0.7930908,1.1113281-1.4445801,1.9208984-1.9749756c1.1538086-0.7610474,2.5263672-1.2695313,3.8398438-1.2675781
		c0.4389648,0.000061,0.8720703,0.055542,1.2939453,0.1749878c0.9980469,0.2796631,1.9394531,0.9310303,2.9365234,1.5723877
		c0.8413086,0.5359497,1.7426758,1.0501709,2.78125,1.2644653l0.0742188,0.0581665
		c5.7841797,3.0175781,12.6225586,4.1958618,17.5913086,8.7536011c3.7875977,3.4607544,5.871582,8.3753052,9.7255859,11.7872925
		c3.2939453,3.006897,7.7544098,4.0427246,11.7978668,5.6560669c7.4384766,2.9271851,14.9233398,6.2251587,21.3266602,11.0688477
		c6.1708984,4.8129883,11.4179688,10.9057617,18.0878906,15.1063232c3.4794922,2.190979,7.3984375,4.1044312,11.2817383,5.4484253
		c1.9916992,0.6894531,4.0527344,1.2087402,6.1547852,1.4099121c1.2260742,0.1173706,3.3227539,0.869873,4.4873047,0.3536987
		c2.9667969-1.3151245-3.0551758-3.782959-4.1835938-4.1901855c-4.9707031-1.7940063-10.0336914-3.4584961-14.6137695-6.1530151
		c-7.0556641-4.7709351-11.2529297-12.5899048-18.3125-17.3709106c-4.081543-3.2947388-12.019043-5.0264893-13.2055664-10.6512451
		c0.0947266-5.6622314,10.4101563-3.362915,13.8417969-5.7087402c3.5556641-1.1279297,5.9926758-4.2988281,8.9624023-6.5597534
		c10.6728516-8.5224609,16.4399414-7.5371094,24.2568359-7.9743652l0.0581055,0.4017334
		c1.7900391-0.2590942,3.5795898-0.5181885,5.3696289-0.7773438c1.5527344-0.2253418,3.1459961-0.4541016,4.6904297-0.9730225
		c1.9140625-0.6454468,3.609375-1.6832275,5.3212891-2.5481567c1.7099609-0.8674316,3.5053711-1.5793457,5.3203125-1.5863647
		l0.0307617-0.0001221c0.6533203-0.001709,1.2792969,0.1107178,1.722168,0.4255371
		c0.5361328,0.3739624,0.8081055,1.0440063,0.8100586,1.8009644c0.0004883,0.4956665-0.1230469,1.0123901-0.3447266,1.4448853
		c-0.5737305,1.1312866-1.7021484,1.9793701-2.8642578,2.8154907c-2.9663086,2.147522-5.9208984,4.3441162-8.706543,6.7492065
		c-3.3657227,1.7601929-6.1425781,4.3546143-9.2685547,8.6969604c-2.8623047,3.2786255-4.7529297,7.5703735-8.7905273,9.6843262
		c-1.65625,0.5192871-2.6157227,2.921936-1.0981445,4.1239624c3.3051758,1.9686279,9.3569336-5.9595947,10.8544922-8.5537109
		c2.4746094-1.6813354,5.605957-0.8474731,7.621582,1.1763916c1.4970703,1.8363647,3.6132813,3.1530762,6.0170898,4.2026978
		c1.1459961,0.8866577,2.5019531,1.4171143,3.815918,1.9266968c1.6987305,0.6512451,3.328125,1.2783203,4.4604492,2.4464111
		c0.9179688,0.9393311,1.4960938,2.2191772,1.9682617,3.5487061c0.7202148,2.0211182,1.215332,4.1512451,1.2148438,6.2429199
		c-0.0004883,0.7883911-0.0703125,1.5717773-0.2236328,2.3441772c-0.4086914,2.0599365-1.5214844,4.026001-3.1152344,5.2998047
		c-0.7705078,0.0864258-1.5405273,0.1782837-2.2749023,0.4036865c-5.190918,1.3130493-7.4033203,6.6270752-11.0107422,10.1011963
		c-2.1005859,2.2992554-8.5463867,4.4266357-7.7329102,7.9476929c0.4125977,1.4628296,2.2197266,1.380249,3.1904297,0.6165771
		c1.8623047-1.4498291,3.8632813-2.7216797,5.7475586-4.1498413c3.5639648-2.5567017,5.3012695-6.9252319,8.8891602-9.4455566
		c4.8901367-2.0634155,8.699707-0.4112549,12.0878906-6.2518311c2.1791992-2.3065796,7.8876953-0.5222168,6.8828125,2.901123
		c-1.1987305,1.2994385-3.0913086,1.3682251-4.612793,2.0863647c-1.7788086,0.8762207-2.1811523,3.1291504-3.5981445,4.3729858
		c-2.3364258,0.6165771-2.6572266,3.4014282-3.4536133,5.3241577c-1.2641602,2.2208252-3.6308594,3.543457-4.7026367,5.9373169
		c-0.3535156,0.5319824-0.9243164,1.2290039-0.4213867,1.848877c0.6396484,0.6547241,1.4204102-0.3213501,2.03125-0.598877
		c2.5073242-1.9833374,5.0546875-6.0146484,8.7514648-4.4451294c2.1601563,1.1567993,3.5942383,4.0596924,6.4804688,3.5603638
		c0.9672852-0.0351563,1.8808594,0.1925659,2.7763672,0.4960327c5.8139648,3.041748,11.8862305,5.5412598,17.4165039,9.1099243
		c0.6098633,0.3656616,1.2241211-0.1322021,1.2890625-0.7728882c0.1987305-2.3566284-6.4858398-6.0626831-8.4077148-7.4271851
		c-4.1987305-3.0162354-16.144043-5.9356689-17.7973633-10.7020264c0.7807617-2.8761597,4.4165039-4.1593018,6.8754883-5.4230957
		c1.9204102-0.355957,3.4350586-1.6247559,2.9555664-3.7195435c-0.3901367-1.2840576,0.7548828-1.3100586,1.7036133-1.1524658
		c6.4433594,2.031189,11.6464844,6.7606201,16.7900391,11.0071411c7.0825195,5.1195679,14.8115234,9.4528809,23.2539063,11.8369141
		c1.6679688,0.309021,3.4394531,0.0352783,4.9140625-0.8115845c-2.659668-4.1167603-8.0581055-4.4334106-12.1733398-6.4828491
		c-5.3325195-2.4442749-10.3330078-5.5994873-15.0395508-9.09198c-3.4716797-2.8818359-6.7211914-6.1313477-10.8603516-8.069519
		c-3.9790039-2.5645752-10.3305664-3.1671753-12.2299805-8.0053711c-0.0498047-0.4501343,0.0727539-1.0157471,0.6474609-0.9026489
		c2.3017578,1.6448364,5.2583008,1.6421509,7.9169922,2.3339233c3.9189453,0.7936401,7.5283203,3.8115234,11.6538086,2.6762695
		c-2.0878906-6.3574219-10.3808594-6.2056885-15.5927734-8.2719727c-3.5585938-2.2052612-6.4526367-5.4707642-10.237793-7.4071655
		c-6.6972656-2.7601318-15.1791992-2.1171875-20.2954102-8.0228882c-2.3764648-3.09729-1.4848633-7.939209,1.2827148-10.5792236
		c4.902832-2.9395752,10.652832-4.3047485,15.8549805-6.6876831c5.078125-1.585144,10.2431641,0.3346558,13.9238281,3.9003906
		c4.590332,9.5484009,9.2402344,9.2984009,17.7021484,13.6039429c1.9516602,1.2876587,3.4238281,3.1635742,5.2871094,4.5582275
		c4.8203125,3.151123,9.9130859,5.8734131,14.7412109,9.0164185c1.2641602,0.6470947,2.7568359,1.0151367,4.1738281,1.0541382
		c6.5761719,0.0939331-1.590332-4.2682495-3.2338867-5.4868774c-3.21875-2.1152954-6.5200195-4.2375488-9.9467773-6.0032959
		c-2.605957-1.3427734-4.8588867-3.1697998-6.9150391-5.2436523c-2.8486328-2.6872559-6.6259766-3.9743652-10.2070313-5.368042
		c-4.3847656-1.434082-6.1962891-4.8068848-8.1860352-8.0604248c-0.2563477-1.0024414-0.5083008-2.0328979-0.8759766-3.0136719
		c-1.0947266-2.8812866-3.1816406-5.142395-4.355957-7.7339478c-0.7880859-1.7218018-1.1879883-3.6203613-1.1879883-5.5178223
		c0-1.3793945,0.2119141-2.7576904,0.6367188-4.0667114c0.3476563-1.0722046,0.8959961-2.1363525,1.6142578-2.9713135
		c0.7192383-0.8369141,1.5952148-1.4396973,2.621582-1.6547241c0.3071289-0.0646973,0.6181641-0.0928955,0.9350586-0.0929565
		c0.7612305-0.0010376,1.5576172,0.1700439,2.3837891,0.3789673c7.0444336,4.2264404,11.3081055,1.5652466,18.1342773,14.1574707
		c3.4462891,6.1986694,4.7749023,13.9644165,10.7216797,18.4528198c7.5141602,5.0570068,16.2128906,8.1216431,24.0566406,12.6665039
		c3.4648438,2.0900879,7.7353516,3.5687866,10.0043945,7.1055908c2.4384766,5.164856,0.0581055,10.321228-2.7236328,14.9700317
		c-0.6083984,0.7839966-1.2260742,1.5568848-1.8608398,2.3101196c-1.4355469,2.2401123-6.9599609,5.836853-4.015625,8.5427246
		c2.2236328,1.5582275,3.4746094-2.0717163,4.9204102-3.272644c4.6474609-4.9644775,7.8857422-11.1223755,13.2470703-15.3963013
		c2.1723633-2.4404297,4.9399414-4.0872192,7.8261719-5.6168823c3.1445313-1.1134644,6.3701172-2.3514404,7.9604492-5.487915
		c1.9726563-3.6409302,2.784668-8.098938,6.1777344-10.7930298c10.7631836-6.3013306,8.6894531-6.8215942,12.762207-17.8108521
		c2.3657227-0.7518311,4.3007813,1.7199097,4.9741211,4.3271484c1.0336914,5.9031982-5.1118164,5.9451294-6.5214844,10.8345947
		c-1.1791992,5.4623413-5.6049805,3.5808716-8.5039063,7.0754395c-2.8178711,2.5037842-3.6074219,6.0144043-4.5170898,9.4827271
		c-2.4038086,4.7958374-4.8935547,9.5507813-8.6699219,13.4883423c-2.0981445,2.1876221-4.734375,3.9727783-6.3442383,6.5916748
		c-3.2524414,5.1899414,0.2260742,5.3718872,3.5444336,1.8417969c3.6503906-3.2433472,7.0473633-6.7822876,9.7885742-10.8346558
		c3.8876953-4.9660645,5.0600586-11.9790649,9.7304688-16.2418213c6.1762695-4.8297729,14.7089844-2.0014648,21.1811523,0.7748413
		c0.7929688,0.760498,0.5454102,1.7644653,0.3745117,2.762146c-2.6987305,2.8546753-2.5732422,6.4961548,2.9326172,9.4705811
		c0.5844727,0.1544189,1.2587891,0.2791748,1.9887695,0.3891602c1.0493164,0.2890015,2.1079102,0.5430908,3.1811523,0.7197266
		c1.1855469,0.1893311,2.3339844,0.3455811,3.1494141,0.9369507c0.6132813,0.4356689,1.074707,1.1339111,1.4970703,1.888916
		c0.8266602,1.4666138,1.4824219,3.1199341,1.4794922,4.6705933c-0.0004883,0.5280151-0.0742188,1.0454712-0.2387695,1.5499878
		c-0.3203125,0.9852295-0.9990234,1.8796387-1.7006836,2.7987061c-1.9111328,2.5134888-3.7290039,5.0966187-5.4838867,7.7219849
		c-2.078125,1.2944336-4.5942383,1.7861328-6.7841797,2.9327393c-6.1279297,2.5345459-13.3359375,5.3468628-16.1347656,11.5326538
		c-4.2241211,5.8544312-5.7592773,12.8251343-8.2666016,19.4555664
		c-4.6137695,9.4683228-11.6225586,17.4353638-19.4042969,24.4383545c-0.4912109,0.4616089-1.269043,1.1610107-0.5249023,1.7626343
		c2.9013672,1.3893433,8.8154297-3.6162109,10.9174805-5.6471558c9.6855469-7.4258423,14.269043-19.067688,18.4262695-30.1560669
		c3.2456055-8.6815796,9.9033203-13.6533813,17.6938477-17.5465088c6.9394531-1.6968384,10.3959961-8.5819702,16.0400085-13.336792
		c5.1772461-2.4007568,10.715332-2.2161865,16.1479492-1.1268311c3.121582,1.2783203,6.3686523,2.3865967,9.753418,2.6116943
		c1.5966797,0.1062012,8.6425781,0.2924194,4.7988281-2.2853394c-4.378418-2.4765625-9.7128906-2.5670776-14.2265625-4.8296509
		c-3.4233398-1.072876-6.7558594-2.3365479-8.9160156-5.3869629c-4.3032227-5.3724976-11.7563171-5.5601807-17.9057312-7.4463501
		c-1.2080078-0.2492065-2.5175781-0.5786133-3.2294922-1.6837158c-0.3198242-1.5125732,1.668457-1.7981567,2.7587891-2.038208
		c2.8925781-0.6413574,5.6586914,0.0214233,8.3754883,0.94104c2.879364,1.9633179,6.2270203,1.3355103,9.4257507,1.9259033
		c2.8261719,0.5216064,5.3935547,3.0933838,7.9179688,4.357666c1.3144531,0.6582642,8.3691406,2.6781616,6.53125-0.880127
		c-0.8745117-1.6929932-3.6113281-2.7679443-5.2758789-3.4526367c-4.1430664-2.2510376-8.0961914-5.399292-13.0981445-4.7783203
		c-4.7792969-1.1594238-7.7607117-5.4562988-12.1777039-7.3308105c-3.6049805-1.4801025-7.6362305-1.0032959-11.4541016-1.6207275
		c-3.6293945-1.9519043-8.222168-2.9462891-5.9633789-8.0321045c7.378418-6.0859375-1.2241211-10.6199341,1.0424805-17.444397
		c1.8100586-5.2219849,7.5546875-8.0587158,10.546875-12.4879761c1.1264648-2.0095825,2.4916992-5.762207,4.9331055-2.5899658
		c4.8901367,6.0778198,3.8188477,15.0088501,0.7553711,21.6523438c-0.9873047,2.1417236-5.7319336,6.565918-4.2290039,9.2164307
		c1.8857422,3.3250732,4.3422852-2.3865356,5.1064453-3.3752441c2.0327148-2.4690552,3.1347656-5.3766479,4.0830078-8.3600464
		c7.2104187-7.1146851,16.3842468,12.0402832,23.0180359,14.3483276c6.527832,5.4450073,15.5947266,6.7851563,22.7993164,11.1054077
		c3.9130859,3.6259766,6.4355469,8.7180786,10.6113281,12.140564c2.9458008,2.4569092,5.9165039,5.0070801,8.1777344,8.15448
		c0.1699219,0.508667,0.3061523,1.0269165,0.3852539,1.5568237c0.0883789,0.5843506,0.1245117,1.2267456,0.2275391,1.8779297
		c0.1040039,0.6497803,0.2773438,1.3183594,0.675293,1.9267578c0.4428711,0.6735229,1.0556641,1.1192627,1.6450195,1.5154419
		c0.5927734,0.3949585,1.1699219,0.7468262,1.6025391,1.175293c0.7895508,0.7783203,1.1577148,1.8638306,1.1591797,3.026062
		c0.0014648,1.1904907-0.3984375,2.4420166-1.0908203,3.4136963c-1.0893555,1.5456543-2.8520508,2.6624146-4.2226563,4.2923584
		c-1.0820313,1.302063-1.7832031,2.7974854-2.612793,4.1291504c-1.0317383,1.661377-2.3056641,3.1731567-3.7680664,4.4713745
		c-1.2631836,1.1223145-2.7177734,2.133606-4.0776367,3.2606812c-1.003418,0.8327026-1.9560547,1.7344971-2.730957,2.8005981
		c-0.4736328,0.3219604-0.9516602,0.6384277-1.4384766,0.9440308c-3.5708008,2.1044312-8.0473633,2.5063477-11.6533203,4.3967896
		c-0.7270508,0.9040527,0.1552734,1.9870605,1.1938477,1.8842773c1.6196289,0.1170654,2.9438477-0.9796753,4.5146484-1.1763306
		c4.659668-0.6021729,9.0722656-2.4354858,12.4458008-5.7495117c1.284668-0.4082642,2.8032227-0.1576538,3.9057617-1.0960083
		c1.0966797-1.036438,1.762207-2.385498,2.9321289-3.3757935c1.2167969-0.3917236,2.5302734-0.4657593,3.8041992-0.242981
		c1.2348633,0.5715942,2.4003906,1.6715088,3.734375,1.9321899c0.8457031-0.0001831,1.3740234-0.9707031,0.9204102-1.925293
		c-0.6000977-1.4544067-2.4946289-2.220459-2.7231445-3.7649536l0.0957031-0.1470947
		c2.4960938-1.1489868,5.2636719-0.8192749,7.8847656-0.5030518c7.1640625,2.4578857,14.0585938-2.0641479,20.2324219,4.269165
		c2.9267578,1.9714966,6.5600586,2.0568237,9.8408203,3.0596924c5.6191406,1.7901611,10.1689453,5.7758179,15.4941406,8.2126465
		c3.284668,1.3643188,6.6845703,2.4628906,9.953125,3.8826904c3.4013672,1.477417,6.4155273,3.7958374,9.3583984,6.0131836
		c3.0366211,2.2879639,6.065918,4.6531982,9.4614258,6.3948975c2.0712891,1.0623779,4.3120117,1.8221436,6.6220703,2.1395264
		c1.1630859,0.1598511,2.3432617,0.2059326,3.5146484,0.1185303
		C672.6879883,417.0541077,675.8925781,416.9371643,674.5102539,415.3888245z"/>
</g>
</svg>
